<svg width="37" height="36" viewBox="0 0 37 36" fill="none" xmlns="http://www.w3.org/2000/svg">
<g opacity="0.6">
<path fill-rule="evenodd" clip-rule="evenodd" d="M18.5 4.5C14.8334 4.5 14.3744 4.5153 12.9344 4.581C11.4971 4.6467 10.5152 4.8753 9.6566 5.2092C8.7566 5.5476 7.9403 6.0786 7.2653 6.7662C6.5788 7.44042 6.04747 8.25615 5.7083 9.1566C5.3762 10.0152 5.1467 10.998 5.081 12.4353C5.0162 13.8744 5 14.3325 5 18C5 21.6675 5.0153 22.1256 5.081 23.5656C5.1467 25.0029 5.3753 25.9848 5.7092 26.8434C6.0476 27.7434 6.5786 28.5597 7.2662 29.2347C7.94044 29.9212 8.75616 30.4525 9.6566 30.7917C10.5152 31.1247 11.4971 31.3533 12.9344 31.419C14.3744 31.4847 14.8334 31.5 18.5 31.5C22.1666 31.5 22.6256 31.4847 24.0656 31.419C25.5029 31.3533 26.4848 31.1247 27.3434 30.7908C28.2434 30.4524 29.0597 29.9214 29.7347 29.2338C30.4212 28.5596 30.9525 27.7439 31.2917 26.8434C31.6247 25.9848 31.8533 25.0029 31.919 23.5656C31.9847 22.1256 32 21.6666 32 18C32 14.3334 31.9847 13.8744 31.919 12.4344C31.8533 10.9971 31.6247 10.0152 31.2908 9.1566C30.9519 8.25576 30.4205 7.43969 29.7338 6.7653C29.0596 6.0788 28.2439 5.54747 27.3434 5.2083C26.4848 4.8762 25.502 4.6467 24.0647 4.581C22.6256 4.5162 22.1675 4.5 18.5 4.5ZM18.5 6.9327C22.1045 6.9327 22.532 6.9462 23.9558 7.011C25.2716 7.0713 25.9862 7.29 26.4623 7.4763C27.0923 7.7202 27.5423 8.0136 28.0148 8.4852C28.4873 8.9577 28.7798 9.4077 29.0237 10.0377C29.2091 10.5138 29.4287 11.2284 29.489 12.5442C29.5538 13.968 29.5673 14.3955 29.5673 18C29.5673 21.6045 29.5538 22.032 29.489 23.4558C29.4287 24.7716 29.21 25.4862 29.0237 25.9623C28.8076 26.5487 28.4629 27.0792 28.0148 27.5148C27.5793 27.963 27.0487 28.3077 26.4623 28.5237C25.9862 28.7091 25.2716 28.9287 23.9558 28.989C22.532 29.0538 22.1054 29.0673 18.5 29.0673C14.8946 29.0673 14.468 29.0538 13.0442 28.989C11.7284 28.9287 11.0138 28.71 10.5377 28.5237C9.95131 28.3076 9.42081 27.9629 8.9852 27.5148C8.53716 27.0792 8.19242 26.5487 7.9763 25.9623C7.7909 25.4862 7.5713 24.7716 7.511 23.4558C7.4462 22.032 7.4327 21.6045 7.4327 18C7.4327 14.3955 7.4462 13.968 7.511 12.5442C7.5713 11.2284 7.79 10.5138 7.9763 10.0377C8.2202 9.4077 8.5136 8.9577 8.9852 8.4852C9.42075 8.03704 9.95127 7.69228 10.5377 7.4763C11.0138 7.2909 11.7284 7.0713 13.0442 7.011C14.468 6.9462 14.8955 6.9327 18.5 6.9327Z" fill="#969696"/>
<path fill-rule="evenodd" clip-rule="evenodd" d="M18.5015 22.5045C17.91 22.5045 17.3242 22.388 16.7777 22.1617C16.2312 21.9353 15.7346 21.6035 15.3163 21.1852C14.8981 20.7669 14.5663 20.2704 14.3399 19.7238C14.1135 19.1773 13.997 18.5916 13.997 18.0001C13.997 17.4085 14.1135 16.8228 14.3399 16.2763C14.5663 15.7297 14.8981 15.2332 15.3163 14.8149C15.7346 14.3966 16.2312 14.0648 16.7777 13.8384C17.3242 13.6121 17.91 13.4955 18.5015 13.4955C19.6962 13.4955 20.8419 13.9701 21.6867 14.8149C22.5314 15.6596 23.006 16.8054 23.006 18.0001C23.006 19.1947 22.5314 20.3405 21.6867 21.1852C20.8419 22.03 19.6962 22.5045 18.5015 22.5045ZM18.5015 11.061C16.6612 11.061 14.8962 11.7921 13.5949 13.0934C12.2936 14.3948 11.5625 16.1597 11.5625 18.0001C11.5625 19.8404 12.2936 21.6053 13.5949 22.9067C14.8962 24.208 16.6612 24.939 18.5015 24.939C20.3418 24.939 22.1068 24.208 23.4081 22.9067C24.7094 21.6053 25.4405 19.8404 25.4405 18.0001C25.4405 16.1597 24.7094 14.3948 23.4081 13.0934C22.1068 11.7921 20.3418 11.061 18.5015 11.061ZM27.4592 10.9351C27.4592 11.3701 27.2864 11.7873 26.9788 12.0949C26.6712 12.4025 26.254 12.5753 25.8189 12.5753C25.3839 12.5753 24.9667 12.4025 24.6591 12.0949C24.3515 11.7873 24.1787 11.3701 24.1787 10.9351C24.1787 10.5 24.3515 10.0828 24.6591 9.77522C24.9667 9.46761 25.3839 9.2948 25.8189 9.2948C26.254 9.2948 26.6712 9.46761 26.9788 9.77522C27.2864 10.0828 27.4592 10.5 27.4592 10.9351Z" fill="#969696"/>
</g>
</svg>
