<svg width="23" height="24" viewBox="0 0 23 24" fill="none" xmlns="http://www.w3.org/2000/svg">
<path d="M20.25 0.75C20.913 0.75 21.5489 1.01339 22.0178 1.48223C22.4866 1.95107 22.75 2.58696 22.75 3.25V20.75C22.75 21.413 22.4866 22.0489 22.0178 22.5178C21.5489 22.9866 20.913 23.25 20.25 23.25H2.75C2.08696 23.25 1.45107 22.9866 0.982233 22.5178C0.513392 22.0489 0.25 21.413 0.25 20.75V3.25C0.25 2.58696 0.513392 1.95107 0.982233 1.48223C1.45107 1.01339 2.08696 0.75 2.75 0.75H20.25ZM19.625 20.125V13.5C19.625 12.4192 19.1957 11.3828 18.4315 10.6185C17.6672 9.85433 16.6308 9.425 15.55 9.425C14.4875 9.425 13.25 10.075 12.65 11.05V9.6625H9.1625V20.125H12.65V13.9625C12.65 13 13.425 12.2125 14.3875 12.2125C14.8516 12.2125 15.2967 12.3969 15.6249 12.7251C15.9531 13.0533 16.1375 13.4984 16.1375 13.9625V20.125H19.625ZM5.1 7.7C5.65695 7.7 6.1911 7.47875 6.58492 7.08492C6.97875 6.6911 7.2 6.15695 7.2 5.6C7.2 4.4375 6.2625 3.4875 5.1 3.4875C4.53973 3.4875 4.00241 3.71007 3.60624 4.10624C3.21007 4.50241 2.9875 5.03973 2.9875 5.6C2.9875 6.7625 3.9375 7.7 5.1 7.7ZM6.8375 20.125V9.6625H3.375V20.125H6.8375Z" fill="#A0A0A0"/>
</svg>
