<svg width="126" height="126" viewBox="0 0 126 126" fill="none" xmlns="http://www.w3.org/2000/svg">
<path d="M62.9997 94.5007V66.9382M62.9997 66.9382C65.656 66.9408 68.302 66.6074 70.8747 65.946M62.9997 66.9382C60.3434 66.9408 57.6974 66.6074 55.1247 65.946M74.8122 105.205C67.0065 106.683 58.9929 106.683 51.1872 105.205M70.8747 117.716C65.639 118.265 60.3604 118.265 55.1247 117.716M74.8122 94.5007V93.4927C74.8122 88.332 78.2667 83.922 82.7292 81.3337C90.2262 76.9922 96.0822 70.2994 99.3896 62.2922C102.697 54.285 103.271 45.4106 101.024 37.0439C98.776 28.6772 93.8317 21.2853 86.9568 16.0136C80.082 10.742 71.6605 7.88477 62.9971 7.88477C54.3337 7.88477 45.9122 10.742 39.0373 16.0136C32.1625 21.2853 27.2182 28.6772 24.9704 37.0439C22.7227 45.4106 23.2971 54.285 26.6045 62.2922C29.912 70.2994 35.7679 76.9922 43.265 81.3337C47.7275 83.922 51.1872 88.332 51.1872 93.4927V94.5007" stroke="#E26D38" stroke-width="2" stroke-linecap="round" stroke-linejoin="round"/>
</svg>
