<svg width="126" height="126" viewBox="0 0 126 126" fill="none" xmlns="http://www.w3.org/2000/svg">
<path d="M99.7501 88.7253C106.13 87.4299 111.8 83.8103 115.661 78.5691C119.522 73.3279 121.298 66.839 120.644 60.3622C119.989 53.8855 116.952 47.8828 112.121 43.5196C107.29 39.1563 101.01 36.7438 94.5001 36.7504H87.8851C86.1458 30.0163 82.7613 23.8196 78.0356 18.7165C73.3099 13.6135 67.3909 9.76393 60.81 7.51343C54.229 5.26293 47.1923 4.68195 40.3313 5.82264C33.4704 6.96334 27.0002 9.79001 21.5015 14.0489C16.0029 18.3077 11.6479 23.8655 8.82767 30.2231C6.00741 36.5807 4.81014 43.5392 5.34334 50.4738C5.87655 57.4084 8.12354 64.1021 11.8826 69.9538C15.6416 75.8055 20.795 80.6322 26.8801 84.0004" stroke="#E26D38" stroke-width="1.5" stroke-linecap="round" stroke-linejoin="round"/>
<path d="M68.25 57.75L47.25 89.25H78.75L57.75 120.75" stroke="#E26D38" stroke-width="1.5" stroke-linecap="round" stroke-linejoin="round"/>
</svg>
