<svg width="126" height="126" viewBox="0 0 126 126" fill="#E26D38" xmlns="http://www.w3.org/2000/svg">
<path fill-rule="evenodd" clip-rule="evenodd" d="M55.5 2.75C55.5 2.61193 55.6119 2.5 55.75 2.5H69.25C69.3881 2.5 69.5 2.61193 69.5 2.75V9.25C69.5 10.2165 70.2835 11 71.25 11H78.006C78.1164 11 78.2137 11.0724 78.2454 11.1782L79.5226 15.4353L81.2622 23.6985C81.2949 23.8539 81.1763 24 81.0176 24H44.4824C44.3237 24 44.2051 23.8539 44.2378 23.6985L45.9774 15.4354L47.2546 11.1782C47.2863 11.0724 47.3836 11 47.494 11H53.75C54.7165 11 55.5 10.2165 55.5 9.25V2.75ZM82.73 23.3895L81.1743 16H104.75C104.888 16 105 16.1119 105 16.25V122.25C105 122.388 104.888 122.5 104.75 122.5H20.75C20.6119 122.5 20.5 122.388 20.5 122.25V16.25C20.5 16.1119 20.6119 16 20.75 16H44.3257L42.77 23.3895C42.541 24.4772 43.3709 25.5 44.4824 25.5H81.0176C82.1291 25.5 82.959 24.4772 82.73 23.3895ZM45.8178 10.7471L44.692 14.5H20.75C19.7835 14.5 19 15.2835 19 16.25V122.25C19 123.216 19.7835 124 20.75 124H104.75C105.716 124 106.5 123.216 106.5 122.25V16.25C106.5 15.2835 105.716 14.5 104.75 14.5H80.808L79.6822 10.7471C79.4601 10.0069 78.7788 9.5 78.006 9.5H71.25C71.1119 9.5 71 9.38807 71 9.25V2.75C71 1.7835 70.2165 1 69.25 1H55.75C54.7835 1 54 1.7835 54 2.75V9.25C54 9.38807 53.8881 9.5 53.75 9.5H47.494C46.7212 9.5 46.0399 10.0069 45.8178 10.7471ZM60.3444 43.6761C60.6373 43.3833 61.1122 43.3833 61.4051 43.6761C61.6979 43.969 61.6979 44.4439 61.4051 44.7368L54.8808 51.261L64.7616 51.5684C67.6614 51.5697 70.5138 52.3045 73.0534 53.7046C75.5965 55.1065 77.743 57.1299 79.2926 59.5858C80.8422 62.0417 81.7444 64.8501 81.9151 67.749C82.0857 70.6479 81.5193 73.5428 80.2685 76.1636C80.0901 76.5374 79.6424 76.6958 79.2686 76.5174C78.8948 76.339 78.7364 75.8913 78.9148 75.5175C80.0564 73.1254 80.5734 70.4831 80.4177 67.8372C80.2619 65.1912 79.4384 62.6278 78.024 60.3862C76.6096 58.1446 74.6504 56.2978 72.3293 55.0182C70.0081 53.7386 67.4006 53.0678 64.75 53.0684L64.7414 53.0684L64.7265 53.0681L54.9936 52.7653L61.405 59.1767C61.6979 59.4696 61.6979 59.9445 61.405 60.2374C61.1122 60.5303 60.6373 60.5303 60.3444 60.2374L52.5954 52.4883C52.5932 52.4862 52.591 52.484 52.5888 52.4817C52.5164 52.4078 52.4623 52.3227 52.4265 52.2319C52.3921 52.1446 52.3735 52.0494 52.3745 51.9501C52.3753 51.8516 52.3955 51.7531 52.435 51.661C52.4619 51.5982 52.4978 51.5384 52.5426 51.4834C52.5586 51.4637 52.5758 51.4447 52.5941 51.4264L52.5952 51.4253M76.9571 85.0679C76.9411 85.0483 76.9239 85.0293 76.9056 85.011L69.1553 77.2607C68.8624 76.9678 68.3876 76.9678 68.0947 77.2607C67.8018 77.5536 67.8018 78.0285 68.0947 78.3213L74.5061 84.7328L64.7732 84.43C64.7653 84.4297 64.7575 84.4296 64.7497 84.4296C62.0991 84.4303 59.4916 83.7595 57.1704 82.4799C54.8493 81.2002 52.8901 79.3534 51.4757 77.1118C50.0613 74.8702 49.2378 72.3068 49.082 69.6609C48.9263 67.0149 49.4433 64.3726 50.5849 61.9806C50.7634 61.6067 50.6049 61.1591 50.2311 60.9807C49.8573 60.8022 49.4096 60.9607 49.2312 61.3345C47.9805 63.9552 47.414 66.8501 47.5846 69.749C47.7553 72.6479 48.6575 75.4564 50.2071 77.9123C51.7567 80.3682 53.9032 82.3915 56.4463 83.7935C58.9859 85.1935 61.8383 85.9283 64.7382 85.9296L74.6189 86.237L68.0947 92.7612C67.8018 93.0541 67.8018 93.529 68.0947 93.8219C68.3876 94.1148 68.8624 94.1148 69.1553 93.8219L76.9049 86.0723C76.9051 86.0721 76.9054 86.0719 76.9056 86.0716M77.1249 85.5646C77.1282 85.4597 77.1097 85.3591 77.0736 85.2671C77.1109 85.3624 77.128 85.4638 77.1249 85.5646Z" fill="#E26D38"/>
</svg>
