<svg width="126" height="126" viewBox="0 0 126 126" fill="none" xmlns="http://www.w3.org/2000/svg">
<path fill-rule="evenodd" clip-rule="evenodd" d="M117.72 1.25L124.47 1.25C124.884 1.25 125.22 1.58578 125.22 2V8.75C125.22 9.16422 124.884 9.5 124.47 9.5C124.056 9.5 123.72 9.16421 123.72 8.75V3.81066L75.3107 52.2197L123.311 100.22L122.25 101.281L24.749 3.7793L25.8097 2.71864L74.2501 51.159L122.659 2.75L117.72 2.75C117.306 2.75 116.97 2.41421 116.97 2C116.97 1.58579 117.306 1.25 117.72 1.25ZM8.75 124.561H2C1.58578 124.561 1.25 124.225 1.25 123.811V117.061C1.25 116.646 1.58578 116.311 2 116.311C2.41422 116.311 2.75 116.646 2.75 117.061V122L51.159 73.5909L3.15876 25.5906L4.21942 24.53L101.721 122.031L100.66 123.092L52.2197 74.6515L3.81066 123.061H8.75C9.16422 123.061 9.5 123.396 9.5 123.811C9.5 124.225 9.16422 124.561 8.75 124.561Z" fill="#E26D38"/>
</svg>
