<svg width="258" height="258" viewBox="0 0 258 258" fill="none" xmlns="http://www.w3.org/2000/svg">
<rect x="0.5" y="0.5" width="257" height="257" fill="#020202"/>
<rect x="0.5" y="0.5" width="257" height="257" stroke="url(#paint0_linear_787_1876)"/>
<g clip-path="url(#clip0_787_1876)">
<path fill-rule="evenodd" clip-rule="evenodd" d="M103.419 66.5C102.864 66.4743 102.314 66.7035 101.94 67.1417L90.94 79.975C90.731 80.2188 90.6008 80.4993 90.5385 80.7945V80.7982C90.5385 80.8018 90.5403 80.8055 90.5385 80.8092C90.4927 81.0475 90.4908 81.295 90.5385 81.5315V81.5388C90.5623 81.6543 90.6008 81.7662 90.6467 81.8762V81.8798L90.6503 81.8835C90.7567 82.1347 90.9198 82.3693 91.1417 82.56C91.2883 82.6865 91.4533 82.7855 91.6238 82.857H91.6275C91.732 82.8992 91.8383 82.934 91.9465 82.9578C91.9722 82.9633 91.996 82.9633 92.0217 82.967C92.1225 82.9853 92.2252 83 92.326 83H159.243L161.996 86.6667H92.337C91.3305 86.6667 90.5037 87.488 90.5037 88.5C90.5037 89.512 91.3305 90.3333 92.337 90.3333H101.5V132.5H97.8333C96.8213 132.5 96 133.321 96 134.333V139.833H92.3333C91.3213 139.833 90.5 140.655 90.5 141.667C90.5 142.679 91.3213 143.5 92.3333 143.5H165.667C166.679 143.5 167.5 142.679 167.5 141.667C167.5 140.655 166.679 139.833 165.667 139.833H118V134.333C118 133.321 117.179 132.5 116.167 132.5H112.5V90.3333H145.5V95.0743L135.574 105H132.667C131.655 105 130.833 105.821 130.833 106.833V114.167C130.833 115.179 131.655 116 132.667 116H162C163.012 116 163.833 115.179 163.833 114.167V106.833C163.833 105.821 163.012 105 162 105H159.092L149.167 95.0743V90.3333H165.659C166.352 90.3333 166.996 89.941 167.309 89.3195C167.623 88.698 167.544 87.9555 167.131 87.4L161.635 80.0667C161.289 79.6047 160.744 79.3333 160.167 79.3333H133.162L111.591 66.7512C111.024 66.4193 110.322 66.4157 109.754 66.7438C109.183 67.0702 108.833 67.677 108.833 68.3333V79.3333H105.167V68.3333C105.167 67.5652 104.69 66.8813 103.971 66.6155C103.79 66.5477 103.605 66.5092 103.419 66.5ZM112.5 71.5233L125.889 79.3333H112.5V71.5233ZM101.5 73.2888V79.3333H96.319L101.5 73.2888ZM105.167 90.3333H108.833V98.3688L105.167 96.5355V90.3333ZM145.5 100.259V105H140.759L145.5 100.259ZM149.167 100.259L153.908 105H149.167V100.259ZM105.167 100.631L108.833 102.464V103.869L105.167 105.702V100.631ZM108.833 107.964V114.869L105.167 113.035V109.798L108.833 107.964ZM134.5 108.667H160.167V112.333H134.5V108.667ZM105.167 117.131L108.833 118.964V120.369L105.167 122.202V117.131ZM108.833 124.464V132.5H105.167V126.298L108.833 124.464ZM99.6667 136.167H114.333V139.833H99.6667V136.167Z" fill="url(#paint1_linear_787_1876)"/>
</g>
<path d="M84.9628 194.3C85.0695 194.647 85.1695 194.9 85.2628 195.06C85.3695 195.22 85.5028 195.327 85.6628 195.38C85.8361 195.433 86.0895 195.46 86.4228 195.46V196H82.3428V195.46H83.0028C83.4028 195.46 83.6028 195.3 83.6028 194.98C83.6028 194.833 83.5761 194.687 83.5228 194.54L82.2028 190.92H77.5628L76.2028 194.58C76.1495 194.793 76.1228 194.933 76.1228 195C76.1228 195.307 76.3095 195.46 76.6828 195.46H77.2628V196H74.0628V195.46C74.4095 195.46 74.6761 195.427 74.8628 195.36C75.0495 195.28 75.1895 195.153 75.2828 194.98C75.3895 194.807 75.5095 194.527 75.6428 194.14L79.9228 182.8H80.7228L84.9628 194.3ZM81.9428 190.24L79.9228 184.72H79.8628L77.8228 190.24H81.9428ZM92.0289 186.42C92.4556 186.42 92.7956 186.547 93.0489 186.8C93.3022 187.053 93.4289 187.427 93.4289 187.92C93.4289 188.733 93.0822 189.14 92.3889 189.14C92.0689 189.14 91.8289 189.06 91.6689 188.9C91.5089 188.727 91.4289 188.52 91.4289 188.28C91.4289 188.133 91.4556 188.007 91.5089 187.9C91.5622 187.793 91.6422 187.68 91.7489 187.56C91.8556 187.44 91.9089 187.347 91.9089 187.28C91.9089 187.16 91.8156 187.1 91.6289 187.1C91.3356 187.1 91.0289 187.247 90.7089 187.54C90.3889 187.833 90.1222 188.227 89.9089 188.72C89.7089 189.2 89.6089 189.707 89.6089 190.24V194.34C89.6089 194.7 89.6356 194.953 89.6889 195.1C89.7422 195.247 89.8622 195.347 90.0489 195.4C90.2356 195.44 90.5622 195.46 91.0289 195.46V196H86.8689V195.46C87.3489 195.46 87.6756 195.44 87.8489 195.4C88.0356 195.347 88.1556 195.253 88.2089 195.12C88.2622 194.973 88.2889 194.713 88.2889 194.34V188.28C88.2889 187.947 88.2489 187.727 88.1689 187.62C88.0889 187.5 87.9289 187.44 87.6889 187.44H86.9489V186.9L89.0089 186.54H89.5489V188.5H89.5689C89.8089 188.087 90.0156 187.753 90.1889 187.5C90.3756 187.233 90.6222 186.987 90.9289 186.76C91.2489 186.533 91.6156 186.42 92.0289 186.42ZM98.4797 196.24C97.5597 196.24 96.773 196.033 96.1197 195.62C95.4797 195.193 94.993 194.613 94.6597 193.88C94.3397 193.147 94.1797 192.32 94.1797 191.4C94.1797 190.52 94.333 189.707 94.6397 188.96C94.9464 188.2 95.4264 187.587 96.0797 187.12C96.7464 186.653 97.593 186.42 98.6197 186.42C99.473 186.42 100.213 186.587 100.84 186.92C101.466 187.24 101.78 187.733 101.78 188.4C101.78 188.707 101.706 188.96 101.56 189.16C101.413 189.347 101.173 189.44 100.84 189.44C100.533 189.44 100.293 189.36 100.12 189.2C99.9597 189.04 99.8797 188.82 99.8797 188.54C99.8797 188.367 99.9064 188.233 99.9597 188.14C100.013 188.033 100.093 187.927 100.2 187.82C100.306 187.7 100.36 187.6 100.36 187.52C100.36 187.347 100.213 187.213 99.9197 187.12C99.6264 187.013 99.273 186.96 98.8597 186.96C96.753 186.96 95.6997 188.42 95.6997 191.34C95.6997 192.873 95.9664 193.987 96.4997 194.68C97.0464 195.36 97.7797 195.7 98.6997 195.7C99.473 195.7 100.08 195.513 100.52 195.14C100.96 194.767 101.266 194.373 101.44 193.96L101.92 194.22C100.64 196.14 100.2 196.807 100.6 196.22C101 195.647 100.946 195.507 100.44 195.8C99.9464 196.093 99.293 196.24 98.4797 196.24ZM111.831 194.34C111.831 194.713 111.858 194.973 111.911 195.12C111.965 195.253 112.078 195.347 112.251 195.4C112.438 195.44 112.771 195.46 113.251 195.46V196H109.091V195.46C109.558 195.46 109.885 195.44 110.071 195.4C110.258 195.347 110.378 195.247 110.431 195.1C110.485 194.953 110.511 194.7 110.511 194.34V189.46C110.511 188.807 110.358 188.267 110.051 187.84C109.758 187.4 109.265 187.18 108.571 187.18C108.011 187.18 107.538 187.327 107.151 187.62C106.778 187.913 106.405 188.34 106.031 188.9V194.34C106.031 194.7 106.058 194.953 106.111 195.1C106.165 195.247 106.285 195.347 106.471 195.4C106.658 195.44 106.985 195.46 107.451 195.46V196H103.291V195.46C103.771 195.46 104.098 195.44 104.271 195.4C104.458 195.347 104.578 195.253 104.631 195.12C104.685 194.973 104.711 194.713 104.711 194.34V183.88C104.711 183.547 104.671 183.327 104.591 183.22C104.511 183.1 104.351 183.04 104.111 183.04H103.371V182.5L105.491 182.14H106.031V188H106.071C106.445 187.453 106.865 187.053 107.331 186.8C107.798 186.547 108.391 186.42 109.111 186.42C110.058 186.42 110.745 186.653 111.171 187.12C111.611 187.573 111.831 188.293 111.831 189.28V194.34ZM116.761 184.52C116.481 184.52 116.248 184.427 116.061 184.24C115.874 184.053 115.781 183.827 115.781 183.56C115.781 183.267 115.868 183.027 116.041 182.84C116.228 182.653 116.468 182.56 116.761 182.56C117.054 182.56 117.288 182.653 117.461 182.84C117.648 183.027 117.741 183.267 117.741 183.56C117.728 183.84 117.628 184.073 117.441 184.26C117.268 184.433 117.041 184.52 116.761 184.52ZM114.721 195.46C115.201 195.46 115.528 195.44 115.701 195.4C115.888 195.347 116.008 195.253 116.061 195.12C116.114 194.973 116.141 194.713 116.141 194.34V188.28C116.141 187.947 116.101 187.727 116.021 187.62C115.941 187.5 115.781 187.44 115.541 187.44H114.801V186.9L116.921 186.54H117.461V194.34C117.461 194.7 117.488 194.953 117.541 195.1C117.594 195.247 117.714 195.347 117.901 195.4C118.088 195.44 118.414 195.46 118.881 195.46V196H114.721V195.46ZM123.382 196.22C122.942 196.22 122.542 196.093 122.182 195.84C121.835 195.573 121.662 195.053 121.662 194.28V187.2H120.022V186.66C120.755 186.66 121.335 186.387 121.762 185.84C122.188 185.28 122.455 184.56 122.562 183.68H122.982V186.66H125.242V187.2H122.982V194.22C122.982 194.727 123.048 195.08 123.182 195.28C123.328 195.48 123.522 195.58 123.762 195.58C123.988 195.58 124.235 195.507 124.502 195.36C124.768 195.213 124.975 195.067 125.122 194.92L125.342 195.38C125.008 195.66 124.708 195.867 124.442 196C124.175 196.147 123.822 196.22 123.382 196.22ZM128.18 191.4C128.18 194.267 129.18 195.7 131.18 195.7C132.047 195.7 132.713 195.473 133.18 195.02C133.66 194.553 133.987 194.007 134.16 193.38L134.66 193.54C134.433 194.353 134.027 195.007 133.44 195.5C132.853 195.993 131.993 196.24 130.86 196.24C129.433 196.24 128.373 195.82 127.68 194.98C127 194.14 126.66 192.967 126.66 191.46C126.66 189.9 127.013 188.673 127.72 187.78C128.44 186.873 129.5 186.42 130.9 186.42C132.433 186.42 133.453 186.893 133.96 187.84C134.48 188.787 134.74 189.927 134.74 191.26V191.4H128.18ZM130.88 186.96C129.2 186.96 128.307 188.26 128.2 190.86H133.22C133.22 189.54 133.033 188.56 132.66 187.92C132.3 187.28 131.707 186.96 130.88 186.96ZM140.96 196.24C140.04 196.24 139.253 196.033 138.6 195.62C137.96 195.193 137.473 194.613 137.14 193.88C136.82 193.147 136.66 192.32 136.66 191.4C136.66 190.52 136.813 189.707 137.12 188.96C137.427 188.2 137.907 187.587 138.56 187.12C139.227 186.653 140.073 186.42 141.1 186.42C141.953 186.42 142.693 186.587 143.32 186.92C143.947 187.24 144.26 187.733 144.26 188.4C144.26 188.707 144.187 188.96 144.04 189.16C143.893 189.347 143.653 189.44 143.32 189.44C143.013 189.44 142.773 189.36 142.6 189.2C142.44 189.04 142.36 188.82 142.36 188.54C142.36 188.367 142.387 188.233 142.44 188.14C142.493 188.033 142.573 187.927 142.68 187.82C142.787 187.7 142.84 187.6 142.84 187.52C142.84 187.347 142.693 187.213 142.4 187.12C142.107 187.013 141.753 186.96 141.34 186.96C139.233 186.96 138.18 188.42 138.18 191.34C138.18 192.873 138.447 193.987 138.98 194.68C139.527 195.36 140.26 195.7 141.18 195.7C141.953 195.7 142.56 195.513 143 195.14C143.44 194.767 143.747 194.373 143.92 193.96L144.4 194.22C143.12 196.14 142.68 196.807 143.08 196.22C143.48 195.647 143.427 195.507 142.92 195.8C142.427 196.093 141.773 196.24 140.96 196.24ZM148.792 196.22C148.352 196.22 147.952 196.093 147.592 195.84C147.245 195.573 147.072 195.053 147.072 194.28V187.2H145.432V186.66C146.165 186.66 146.745 186.387 147.172 185.84C147.599 185.28 147.865 184.56 147.972 183.68H148.392V186.66H150.652V187.2H148.392V194.22C148.392 194.727 148.459 195.08 148.592 195.28C148.739 195.48 148.932 195.58 149.172 195.58C149.399 195.58 149.645 195.507 149.912 195.36C150.179 195.213 150.385 195.067 150.532 194.92L150.752 195.38C150.419 195.66 150.119 195.867 149.852 196C149.585 196.147 149.232 196.22 148.792 196.22ZM160.19 194.34C160.19 194.713 160.217 194.973 160.27 195.12C160.324 195.253 160.437 195.347 160.61 195.4C160.797 195.44 161.13 195.46 161.61 195.46V196H158.89V194.58H158.85C158.477 195.127 158.044 195.54 157.55 195.82C157.07 196.1 156.464 196.24 155.73 196.24C154.824 196.24 154.15 196.007 153.71 195.54C153.284 195.073 153.07 194.353 153.07 193.38V188.28C153.07 187.947 153.03 187.727 152.95 187.62C152.87 187.5 152.71 187.44 152.47 187.44H151.73V186.9L153.85 186.54H154.39V193.2C154.39 193.867 154.537 194.413 154.83 194.84C155.124 195.267 155.61 195.48 156.29 195.48C156.85 195.48 157.33 195.333 157.73 195.04C158.13 194.733 158.504 194.307 158.85 193.76L158.87 188.28C158.87 187.947 158.83 187.727 158.75 187.62C158.67 187.5 158.51 187.44 158.27 187.44H157.53V186.9L159.65 186.54H160.19V194.34ZM168.005 186.42C168.432 186.42 168.772 186.547 169.025 186.8C169.279 187.053 169.405 187.427 169.405 187.92C169.405 188.733 169.059 189.14 168.365 189.14C168.045 189.14 167.805 189.06 167.645 188.9C167.485 188.727 167.405 188.52 167.405 188.28C167.405 188.133 167.432 188.007 167.485 187.9C167.539 187.793 167.619 187.68 167.725 187.56C167.832 187.44 167.885 187.347 167.885 187.28C167.885 187.16 167.792 187.1 167.605 187.1C167.312 187.1 167.005 187.247 166.685 187.54C166.365 187.833 166.099 188.227 165.885 188.72C165.685 189.2 165.585 189.707 165.585 190.24V194.34C165.585 194.7 165.612 194.953 165.665 195.1C165.719 195.247 165.839 195.347 166.025 195.4C166.212 195.44 166.539 195.46 167.005 195.46V196H162.845V195.46C163.325 195.46 163.652 195.44 163.825 195.4C164.012 195.347 164.132 195.253 164.185 195.12C164.239 194.973 164.265 194.713 164.265 194.34V188.28C164.265 187.947 164.225 187.727 164.145 187.62C164.065 187.5 163.905 187.44 163.665 187.44H162.925V186.9L164.985 186.54H165.525V188.5H165.545C165.785 188.087 165.992 187.753 166.165 187.5C166.352 187.233 166.599 186.987 166.905 186.76C167.225 186.533 167.592 186.42 168.005 186.42ZM171.676 191.4C171.676 194.267 172.676 195.7 174.676 195.7C175.543 195.7 176.21 195.473 176.676 195.02C177.156 194.553 177.483 194.007 177.656 193.38L178.156 193.54C177.93 194.353 177.523 195.007 176.936 195.5C176.35 195.993 175.49 196.24 174.356 196.24C172.93 196.24 171.87 195.82 171.176 194.98C170.496 194.14 170.156 192.967 170.156 191.46C170.156 189.9 170.51 188.673 171.216 187.78C171.936 186.873 172.996 186.42 174.396 186.42C175.93 186.42 176.95 186.893 177.456 187.84C177.976 188.787 178.236 189.927 178.236 191.26V191.4H171.676ZM174.376 186.96C172.696 186.96 171.803 188.26 171.696 190.86H176.716C176.716 189.54 176.53 188.56 176.156 187.92C175.796 187.28 175.203 186.96 174.376 186.96ZM180.716 197.38C181.103 197.26 181.383 197.113 181.556 196.94C181.73 196.78 181.816 196.567 181.816 196.3C181.816 196.1 181.723 195.987 181.536 195.96C181.323 195.933 181.13 195.853 180.956 195.72C180.796 195.573 180.716 195.347 180.716 195.04C180.716 194.747 180.81 194.52 180.996 194.36C181.183 194.187 181.41 194.1 181.676 194.1C181.956 194.1 182.183 194.207 182.356 194.42C182.543 194.633 182.636 194.953 182.636 195.38C182.636 195.94 182.496 196.453 182.216 196.92C181.936 197.4 181.47 197.707 180.816 197.84L180.716 197.38ZM90.9584 219.46C91.4651 219.46 91.8184 219.433 92.0184 219.38C92.2184 219.327 92.3451 219.227 92.3984 219.08C92.4518 218.92 92.4784 218.633 92.4784 218.22V208.58C92.4784 208.18 92.4518 207.907 92.3984 207.76C92.3451 207.6 92.2184 207.493 92.0184 207.44C91.8184 207.373 91.4651 207.34 90.9584 207.34V206.8H95.4784C97.0251 206.8 98.2384 207.06 99.1184 207.58C99.9984 208.087 100.438 208.84 100.438 209.84C100.438 210.547 100.212 211.167 99.7584 211.7C99.3051 212.233 98.6851 212.587 97.8984 212.76V212.8C98.8051 212.947 99.5584 213.34 100.158 213.98C100.758 214.62 101.058 215.433 101.058 216.42C101.058 217.593 100.618 218.487 99.7384 219.1C98.8584 219.7 97.5718 220 95.8784 220H90.9584V219.46ZM95.6584 212.56C96.7384 212.56 97.5384 212.36 98.0584 211.96C98.5784 211.547 98.8384 210.913 98.8384 210.06C98.8384 209.047 98.5184 208.353 97.8784 207.98C97.2518 207.607 96.4118 207.42 95.3584 207.42C94.9184 207.42 94.5984 207.453 94.3984 207.52C94.2118 207.573 94.0918 207.667 94.0384 207.8C93.9984 207.92 93.9784 208.127 93.9784 208.42V212.56H95.6584ZM95.6984 219.4C98.1784 219.4 99.4184 218.4 99.4184 216.4C99.4184 215.387 99.1118 214.6 98.4984 214.04C97.8851 213.48 96.9651 213.2 95.7384 213.2H93.9784V217.86C93.9784 218.287 94.0251 218.607 94.1184 218.82C94.2118 219.033 94.3784 219.187 94.6184 219.28C94.8584 219.36 95.2184 219.4 95.6984 219.4ZM111.147 218.34C111.147 218.713 111.174 218.973 111.227 219.12C111.281 219.253 111.394 219.347 111.567 219.4C111.754 219.44 112.087 219.46 112.567 219.46V220H109.847V218.58H109.807C109.434 219.127 109.001 219.54 108.507 219.82C108.027 220.1 107.421 220.24 106.687 220.24C105.781 220.24 105.107 220.007 104.667 219.54C104.241 219.073 104.027 218.353 104.027 217.38V212.28C104.027 211.947 103.987 211.727 103.907 211.62C103.827 211.5 103.667 211.44 103.427 211.44H102.687V210.9L104.807 210.54H105.347V217.2C105.347 217.867 105.494 218.413 105.787 218.84C106.081 219.267 106.567 219.48 107.247 219.48C107.807 219.48 108.287 219.333 108.687 219.04C109.087 218.733 109.461 218.307 109.807 217.76L109.827 212.28C109.827 211.947 109.787 211.727 109.707 211.62C109.627 211.5 109.467 211.44 109.227 211.44H108.487V210.9L110.607 210.54H111.147V218.34ZM116.253 208.52C115.973 208.52 115.74 208.427 115.553 208.24C115.366 208.053 115.273 207.827 115.273 207.56C115.273 207.267 115.36 207.027 115.533 206.84C115.72 206.653 115.96 206.56 116.253 206.56C116.546 206.56 116.78 206.653 116.953 206.84C117.14 207.027 117.233 207.267 117.233 207.56C117.22 207.84 117.12 208.073 116.933 208.26C116.76 208.433 116.533 208.52 116.253 208.52ZM114.213 219.46C114.693 219.46 115.02 219.44 115.193 219.4C115.38 219.347 115.5 219.253 115.553 219.12C115.606 218.973 115.633 218.713 115.633 218.34V212.28C115.633 211.947 115.593 211.727 115.513 211.62C115.433 211.5 115.273 211.44 115.033 211.44H114.293V210.9L116.413 210.54H116.953V218.34C116.953 218.7 116.98 218.953 117.033 219.1C117.086 219.247 117.206 219.347 117.393 219.4C117.58 219.44 117.906 219.46 118.373 219.46V220H114.213V219.46ZM119.914 219.46C120.394 219.46 120.721 219.44 120.894 219.4C121.081 219.347 121.201 219.253 121.254 219.12C121.307 218.973 121.334 218.713 121.334 218.34V207.88C121.334 207.547 121.294 207.327 121.214 207.22C121.134 207.1 120.974 207.04 120.734 207.04H119.994V206.5L122.114 206.14H122.654V218.34C122.654 218.7 122.681 218.953 122.734 219.1C122.787 219.247 122.907 219.347 123.094 219.4C123.281 219.44 123.607 219.46 124.074 219.46V220H119.914V219.46ZM134.747 219.46V220H132.307L132.167 219.04C131.301 219.84 130.294 220.24 129.147 220.24C127.961 220.24 127.061 219.84 126.447 219.04C125.834 218.24 125.527 217.053 125.527 215.48C125.527 213.747 125.881 212.473 126.587 211.66C127.307 210.833 128.274 210.42 129.487 210.42C130.474 210.42 131.334 210.733 132.067 211.36H132.107V207.98C132.107 207.62 132.067 207.387 131.987 207.28C131.907 207.16 131.741 207.1 131.487 207.1H130.707V206.56L132.887 206.14H133.427V218.58C133.427 218.94 133.467 219.18 133.547 219.3C133.627 219.407 133.794 219.46 134.047 219.46H134.747ZM129.507 219.7C130.387 219.7 131.254 219.26 132.107 218.38V212.12C131.401 211.333 130.594 210.94 129.687 210.94C128.821 210.94 128.161 211.293 127.707 212C127.267 212.693 127.047 213.813 127.047 215.36C127.047 216.747 127.241 217.82 127.627 218.58C128.014 219.327 128.641 219.7 129.507 219.7ZM138.011 208.52C137.731 208.52 137.498 208.427 137.311 208.24C137.124 208.053 137.031 207.827 137.031 207.56C137.031 207.267 137.118 207.027 137.291 206.84C137.478 206.653 137.718 206.56 138.011 206.56C138.304 206.56 138.538 206.653 138.711 206.84C138.898 207.027 138.991 207.267 138.991 207.56C138.978 207.84 138.878 208.073 138.691 208.26C138.518 208.433 138.291 208.52 138.011 208.52ZM135.971 219.46C136.451 219.46 136.778 219.44 136.951 219.4C137.138 219.347 137.258 219.253 137.311 219.12C137.364 218.973 137.391 218.713 137.391 218.34V212.28C137.391 211.947 137.351 211.727 137.271 211.62C137.191 211.5 137.031 211.44 136.791 211.44H136.051V210.9L138.171 210.54H138.711V218.34C138.711 218.7 138.738 218.953 138.791 219.1C138.844 219.247 138.964 219.347 139.151 219.4C139.338 219.44 139.664 219.46 140.131 219.46V220H135.971V219.46ZM150.292 218.34C150.292 218.713 150.318 218.973 150.372 219.12C150.425 219.253 150.538 219.347 150.712 219.4C150.898 219.44 151.232 219.46 151.712 219.46V220H147.552V219.46C148.018 219.46 148.345 219.44 148.532 219.4C148.718 219.347 148.838 219.247 148.892 219.1C148.945 218.953 148.972 218.7 148.972 218.34V213.46C148.972 212.807 148.818 212.267 148.512 211.84C148.218 211.4 147.725 211.18 147.032 211.18C146.472 211.18 145.998 211.327 145.612 211.62C145.238 211.913 144.865 212.34 144.492 212.9V218.34C144.492 218.7 144.518 218.953 144.572 219.1C144.625 219.247 144.745 219.347 144.932 219.4C145.118 219.44 145.445 219.46 145.912 219.46V220H141.752V219.46C142.232 219.46 142.558 219.44 142.732 219.4C142.918 219.347 143.038 219.253 143.092 219.12C143.145 218.973 143.172 218.713 143.172 218.34V212.28C143.172 211.947 143.132 211.727 143.052 211.62C142.972 211.5 142.812 211.44 142.572 211.44H141.832V210.9L143.892 210.54H144.432V212.1H144.452C144.852 211.513 145.285 211.087 145.752 210.82C146.232 210.553 146.838 210.42 147.572 210.42C148.518 210.42 149.205 210.653 149.632 211.12C150.072 211.573 150.292 212.293 150.292 213.28V218.34ZM161.233 210.42C161.66 210.42 162 210.547 162.253 210.8C162.506 211.04 162.633 211.333 162.633 211.68C162.633 211.947 162.56 212.167 162.413 212.34C162.28 212.5 162.093 212.58 161.853 212.58C161.626 212.58 161.44 212.513 161.293 212.38C161.146 212.247 161.073 212.08 161.073 211.88C161.073 211.813 161.086 211.74 161.113 211.66C161.14 211.567 161.153 211.487 161.153 211.42C161.153 211.313 161.106 211.227 161.013 211.16C160.933 211.093 160.84 211.06 160.733 211.06C160.533 211.06 160.253 211.307 159.893 211.8C160.213 212.293 160.373 212.88 160.373 213.56C160.373 214.613 160.02 215.393 159.313 215.9C158.606 216.407 157.746 216.66 156.733 216.66C156.253 216.66 155.826 216.607 155.453 216.5C154.573 216.913 154.133 217.38 154.133 217.9C154.133 218.553 154.833 218.88 156.233 218.88H157.453C158.746 218.88 159.673 219.073 160.233 219.46C160.793 219.847 161.073 220.427 161.073 221.2C161.073 222.24 160.653 223.007 159.813 223.5C158.973 223.993 157.886 224.24 156.553 224.24C155.366 224.24 154.406 224.047 153.673 223.66C152.953 223.273 152.593 222.68 152.593 221.88C152.593 221.44 152.72 221.053 152.973 220.72C153.24 220.387 153.666 220.1 154.253 219.86C153.866 219.74 153.56 219.533 153.333 219.24C153.12 218.947 153.013 218.64 153.013 218.32C153.013 217.947 153.16 217.587 153.453 217.24C153.76 216.88 154.213 216.56 154.813 216.28C154.28 216.04 153.86 215.7 153.553 215.26C153.246 214.807 153.093 214.24 153.093 213.56C153.093 212.507 153.446 211.72 154.153 211.2C154.873 210.68 155.733 210.42 156.733 210.42C157.293 210.42 157.82 210.5 158.313 210.66C158.806 210.82 159.22 211.067 159.553 211.4C160.046 210.747 160.606 210.42 161.233 210.42ZM156.633 216.12C157.486 216.12 158.073 215.9 158.393 215.46C158.726 215.02 158.893 214.347 158.893 213.44C158.893 212.667 158.72 212.06 158.373 211.62C158.026 211.18 157.48 210.96 156.733 210.96C156 210.96 155.453 211.193 155.093 211.66C154.746 212.113 154.573 212.76 154.573 213.6C154.573 214.373 154.733 214.987 155.053 215.44C155.386 215.893 155.913 216.12 156.633 216.12ZM155.153 220C154.686 220.173 154.353 220.413 154.153 220.72C153.966 221.04 153.873 221.38 153.873 221.74C153.873 222.353 154.12 222.833 154.613 223.18C155.12 223.527 155.813 223.7 156.693 223.7C157.64 223.7 158.393 223.5 158.953 223.1C159.513 222.7 159.793 222.14 159.793 221.42C159.793 220.927 159.613 220.567 159.253 220.34C158.906 220.113 158.28 220 157.373 220H155.153ZM164.701 221.38C165.087 221.26 165.367 221.113 165.541 220.94C165.714 220.78 165.801 220.567 165.801 220.3C165.801 220.1 165.707 219.987 165.521 219.96C165.307 219.933 165.114 219.853 164.941 219.72C164.781 219.573 164.701 219.347 164.701 219.04C164.701 218.747 164.794 218.52 164.981 218.36C165.167 218.187 165.394 218.1 165.661 218.1C165.941 218.1 166.167 218.207 166.341 218.42C166.527 218.633 166.621 218.953 166.621 219.38C166.621 219.94 166.481 220.453 166.201 220.92C165.921 221.4 165.454 221.707 164.801 221.84L164.701 221.38ZM81.1995 244.24C79.9462 244.24 78.8595 243.967 77.9395 243.42C77.0329 242.86 76.3395 242.08 75.8595 241.08C75.3929 240.067 75.1595 238.893 75.1595 237.56C75.1595 236.147 75.4062 234.913 75.8995 233.86C76.3929 232.807 77.1062 231.993 78.0395 231.42C78.9862 230.847 80.1129 230.56 81.4195 230.56C81.9929 230.56 82.4729 230.613 82.8595 230.72C83.2462 230.813 83.6329 230.94 84.0195 231.1C84.3262 231.233 84.5529 231.3 84.6995 231.3C84.8195 231.3 84.9195 231.273 84.9995 231.22C85.0795 231.167 85.1329 231.1 85.1595 231.02L85.2195 230.8H85.7595L85.9595 234.28H85.4195C85.1662 233.413 84.7529 232.68 84.1795 232.08C83.6195 231.467 82.7329 231.16 81.5195 231.16C80.3995 231.16 79.4929 231.487 78.7995 232.14C78.1195 232.78 77.6329 233.573 77.3395 234.52C77.0595 235.467 76.9195 236.433 76.9195 237.42C76.9195 238.5 77.0862 239.513 77.4195 240.46C77.7529 241.393 78.2662 242.16 78.9595 242.76C79.6662 243.347 80.5462 243.64 81.5995 243.64C82.3729 243.64 83.0129 243.513 83.5195 243.26C84.0262 243.007 84.4195 242.693 84.6995 242.32C84.9795 241.933 85.2529 241.46 85.5195 240.9L86.0195 241.16C85.7662 241.733 85.4729 242.233 85.1395 242.66C84.8062 243.087 84.3195 243.46 83.6795 243.78C83.0395 244.087 82.2129 244.24 81.1995 244.24ZM91.5623 244.24C90.1757 244.24 89.1357 243.82 88.4423 242.98C87.749 242.127 87.4023 240.907 87.4023 239.32C87.4023 237.747 87.749 236.54 88.4423 235.7C89.149 234.847 90.189 234.42 91.5623 234.42C92.949 234.42 93.989 234.847 94.6823 235.7C95.389 236.54 95.7423 237.747 95.7423 239.32C95.7423 240.907 95.389 242.127 94.6823 242.98C93.989 243.82 92.949 244.24 91.5623 244.24ZM91.5623 243.7C92.4557 243.7 93.1223 243.32 93.5623 242.56C94.0023 241.8 94.2223 240.72 94.2223 239.32C94.2223 237.933 94.0023 236.86 93.5623 236.1C93.1223 235.34 92.4557 234.96 91.5623 234.96C90.6823 234.96 90.0157 235.34 89.5623 236.1C89.1223 236.86 88.9023 237.933 88.9023 239.32C88.9023 240.72 89.1223 241.8 89.5623 242.56C90.0157 243.32 90.6823 243.7 91.5623 243.7ZM105.995 242.34C105.995 242.713 106.022 242.973 106.075 243.12C106.128 243.253 106.242 243.347 106.415 243.4C106.602 243.44 106.935 243.46 107.415 243.46V244H103.255V243.46C103.722 243.46 104.048 243.44 104.235 243.4C104.422 243.347 104.542 243.247 104.595 243.1C104.648 242.953 104.675 242.7 104.675 242.34V237.46C104.675 236.807 104.522 236.267 104.215 235.84C103.922 235.4 103.428 235.18 102.735 235.18C102.175 235.18 101.702 235.327 101.315 235.62C100.942 235.913 100.568 236.34 100.195 236.9V242.34C100.195 242.7 100.222 242.953 100.275 243.1C100.328 243.247 100.448 243.347 100.635 243.4C100.822 243.44 101.148 243.46 101.615 243.46V244H97.4548V243.46C97.9348 243.46 98.2615 243.44 98.4348 243.4C98.6215 243.347 98.7415 243.253 98.7948 243.12C98.8482 242.973 98.8748 242.713 98.8748 242.34V236.28C98.8748 235.947 98.8348 235.727 98.7548 235.62C98.6748 235.5 98.5148 235.44 98.2748 235.44H97.5348V234.9L99.5948 234.54H100.135V236.1H100.155C100.555 235.513 100.988 235.087 101.455 234.82C101.935 234.553 102.542 234.42 103.275 234.42C104.222 234.42 104.908 234.653 105.335 235.12C105.775 235.573 105.995 236.293 105.995 237.28V242.34ZM112.191 244.22C111.804 244.22 111.484 244.187 111.231 244.12C110.978 244.053 110.718 243.967 110.451 243.86C110.158 243.74 109.944 243.68 109.811 243.68C109.678 243.68 109.578 243.707 109.511 243.76C109.458 243.813 109.404 243.913 109.351 244.06H108.971L108.751 240.76H109.091C109.344 241.773 109.718 242.513 110.211 242.98C110.718 243.447 111.344 243.68 112.091 243.68C112.731 243.68 113.258 243.527 113.671 243.22C114.084 242.9 114.291 242.467 114.291 241.92C114.291 241.293 114.064 240.827 113.611 240.52C113.158 240.213 112.558 239.94 111.811 239.7L111.251 239.52C110.504 239.28 109.931 238.987 109.531 238.64C109.131 238.28 108.931 237.773 108.931 237.12C108.931 236.307 109.231 235.653 109.831 235.16C110.431 234.667 111.211 234.42 112.171 234.42C112.478 234.42 112.724 234.44 112.911 234.48C113.111 234.52 113.324 234.58 113.551 234.66C113.791 234.74 113.951 234.78 114.031 234.78C114.164 234.78 114.251 234.753 114.291 234.7C114.344 234.633 114.378 234.573 114.391 234.52C114.418 234.467 114.431 234.433 114.431 234.42H114.751L114.891 237.36H114.551C114.391 236.587 114.138 235.993 113.791 235.58C113.458 235.167 112.931 234.96 112.211 234.96C111.584 234.96 111.071 235.113 110.671 235.42C110.271 235.727 110.071 236.12 110.071 236.6C110.071 237.08 110.264 237.48 110.651 237.8C111.051 238.107 111.511 238.333 112.031 238.48L112.511 238.62C113.551 238.927 114.311 239.287 114.791 239.7C115.271 240.113 115.511 240.673 115.511 241.38C115.511 242.233 115.198 242.92 114.571 243.44C113.958 243.96 113.164 244.22 112.191 244.22ZM120.12 244.22C119.68 244.22 119.28 244.093 118.92 243.84C118.573 243.573 118.4 243.053 118.4 242.28V235.2H116.76V234.66C117.493 234.66 118.073 234.387 118.5 233.84C118.927 233.28 119.193 232.56 119.3 231.68H119.72V234.66H121.98V235.2H119.72V242.22C119.72 242.727 119.787 243.08 119.92 243.28C120.067 243.48 120.26 243.58 120.5 243.58C120.727 243.58 120.973 243.507 121.24 243.36C121.507 243.213 121.713 243.067 121.86 242.92L122.08 243.38C121.747 243.66 121.447 243.867 121.18 244C120.913 244.147 120.56 244.22 120.12 244.22ZM128.298 234.42C128.725 234.42 129.065 234.547 129.318 234.8C129.572 235.053 129.698 235.427 129.698 235.92C129.698 236.733 129.352 237.14 128.658 237.14C128.338 237.14 128.098 237.06 127.938 236.9C127.778 236.727 127.698 236.52 127.698 236.28C127.698 236.133 127.725 236.007 127.778 235.9C127.832 235.793 127.912 235.68 128.018 235.56C128.125 235.44 128.178 235.347 128.178 235.28C128.178 235.16 128.085 235.1 127.898 235.1C127.605 235.1 127.298 235.247 126.978 235.54C126.658 235.833 126.392 236.227 126.178 236.72C125.978 237.2 125.878 237.707 125.878 238.24V242.34C125.878 242.7 125.905 242.953 125.958 243.1C126.012 243.247 126.132 243.347 126.318 243.4C126.505 243.44 126.832 243.46 127.298 243.46V244H123.138V243.46C123.618 243.46 123.945 243.44 124.118 243.4C124.305 243.347 124.425 243.253 124.478 243.12C124.532 242.973 124.558 242.713 124.558 242.34V236.28C124.558 235.947 124.518 235.727 124.438 235.62C124.358 235.5 124.198 235.44 123.958 235.44H123.218V234.9L125.278 234.54H125.818V236.5H125.838C126.078 236.087 126.285 235.753 126.458 235.5C126.645 235.233 126.892 234.987 127.198 234.76C127.518 234.533 127.885 234.42 128.298 234.42ZM138.765 242.34C138.765 242.713 138.791 242.973 138.845 243.12C138.898 243.253 139.011 243.347 139.185 243.4C139.371 243.44 139.705 243.46 140.185 243.46V244H137.465V242.58H137.425C137.051 243.127 136.618 243.54 136.125 243.82C135.645 244.1 135.038 244.24 134.305 244.24C133.398 244.24 132.725 244.007 132.285 243.54C131.858 243.073 131.645 242.353 131.645 241.38V236.28C131.645 235.947 131.605 235.727 131.525 235.62C131.445 235.5 131.285 235.44 131.045 235.44H130.305V234.9L132.425 234.54H132.965V241.2C132.965 241.867 133.111 242.413 133.405 242.84C133.698 243.267 134.185 243.48 134.865 243.48C135.425 243.48 135.905 243.333 136.305 243.04C136.705 242.733 137.078 242.307 137.425 241.76L137.445 236.28C137.445 235.947 137.405 235.727 137.325 235.62C137.245 235.5 137.085 235.44 136.845 235.44H136.105V234.9L138.225 234.54H138.765V242.34ZM146.37 244.24C145.45 244.24 144.664 244.033 144.01 243.62C143.37 243.193 142.884 242.613 142.55 241.88C142.23 241.147 142.07 240.32 142.07 239.4C142.07 238.52 142.224 237.707 142.53 236.96C142.837 236.2 143.317 235.587 143.97 235.12C144.637 234.653 145.484 234.42 146.51 234.42C147.364 234.42 148.104 234.587 148.73 234.92C149.357 235.24 149.67 235.733 149.67 236.4C149.67 236.707 149.597 236.96 149.45 237.16C149.304 237.347 149.064 237.44 148.73 237.44C148.424 237.44 148.184 237.36 148.01 237.2C147.85 237.04 147.77 236.82 147.77 236.54C147.77 236.367 147.797 236.233 147.85 236.14C147.904 236.033 147.984 235.927 148.09 235.82C148.197 235.7 148.25 235.6 148.25 235.52C148.25 235.347 148.104 235.213 147.81 235.12C147.517 235.013 147.164 234.96 146.75 234.96C144.644 234.96 143.59 236.42 143.59 239.34C143.59 240.873 143.857 241.987 144.39 242.68C144.937 243.36 145.67 243.7 146.59 243.7C147.364 243.7 147.97 243.513 148.41 243.14C148.85 242.767 149.157 242.373 149.33 241.96L149.81 242.22C148.53 244.14 148.09 244.807 148.49 244.22C148.89 243.647 148.837 243.507 148.33 243.8C147.837 244.093 147.184 244.24 146.37 244.24ZM154.202 244.22C153.762 244.22 153.362 244.093 153.002 243.84C152.655 243.573 152.482 243.053 152.482 242.28V235.2H150.842V234.66C151.575 234.66 152.155 234.387 152.582 233.84C153.009 233.28 153.275 232.56 153.382 231.68H153.802V234.66H156.062V235.2H153.802V242.22C153.802 242.727 153.869 243.08 154.002 243.28C154.149 243.48 154.342 243.58 154.582 243.58C154.809 243.58 155.055 243.507 155.322 243.36C155.589 243.213 155.795 243.067 155.942 242.92L156.162 243.38C155.829 243.66 155.529 243.867 155.262 244C154.995 244.147 154.642 244.22 154.202 244.22ZM159.28 232.52C159 232.52 158.767 232.427 158.58 232.24C158.394 232.053 158.3 231.827 158.3 231.56C158.3 231.267 158.387 231.027 158.56 230.84C158.747 230.653 158.987 230.56 159.28 230.56C159.574 230.56 159.807 230.653 159.98 230.84C160.167 231.027 160.26 231.267 160.26 231.56C160.247 231.84 160.147 232.073 159.96 232.26C159.787 232.433 159.56 232.52 159.28 232.52ZM157.24 243.46C157.72 243.46 158.047 243.44 158.22 243.4C158.407 243.347 158.527 243.253 158.58 243.12C158.634 242.973 158.66 242.713 158.66 242.34V236.28C158.66 235.947 158.62 235.727 158.54 235.62C158.46 235.5 158.3 235.44 158.06 235.44H157.32V234.9L159.44 234.54H159.98V242.34C159.98 242.7 160.007 242.953 160.06 243.1C160.114 243.247 160.234 243.347 160.42 243.4C160.607 243.44 160.934 243.46 161.4 243.46V244H157.24V243.46ZM167.441 244.24C166.055 244.24 165.015 243.82 164.321 242.98C163.628 242.127 163.281 240.907 163.281 239.32C163.281 237.747 163.628 236.54 164.321 235.7C165.028 234.847 166.068 234.42 167.441 234.42C168.828 234.42 169.868 234.847 170.561 235.7C171.268 236.54 171.621 237.747 171.621 239.32C171.621 240.907 171.268 242.127 170.561 242.98C169.868 243.82 168.828 244.24 167.441 244.24ZM167.441 243.7C168.335 243.7 169.001 243.32 169.441 242.56C169.881 241.8 170.101 240.72 170.101 239.32C170.101 237.933 169.881 236.86 169.441 236.1C169.001 235.34 168.335 234.96 167.441 234.96C166.561 234.96 165.895 235.34 165.441 236.1C165.001 236.86 164.781 237.933 164.781 239.32C164.781 240.72 165.001 241.8 165.441 242.56C165.895 243.32 166.561 243.7 167.441 243.7ZM181.874 242.34C181.874 242.713 181.9 242.973 181.954 243.12C182.007 243.253 182.12 243.347 182.294 243.4C182.48 243.44 182.814 243.46 183.294 243.46V244H179.134V243.46C179.6 243.46 179.927 243.44 180.114 243.4C180.3 243.347 180.42 243.247 180.474 243.1C180.527 242.953 180.554 242.7 180.554 242.34V237.46C180.554 236.807 180.4 236.267 180.094 235.84C179.8 235.4 179.307 235.18 178.614 235.18C178.054 235.18 177.58 235.327 177.194 235.62C176.82 235.913 176.447 236.34 176.074 236.9V242.34C176.074 242.7 176.1 242.953 176.154 243.1C176.207 243.247 176.327 243.347 176.514 243.4C176.7 243.44 177.027 243.46 177.494 243.46V244H173.334V243.46C173.814 243.46 174.14 243.44 174.314 243.4C174.5 243.347 174.62 243.253 174.674 243.12C174.727 242.973 174.754 242.713 174.754 242.34V236.28C174.754 235.947 174.714 235.727 174.634 235.62C174.554 235.5 174.394 235.44 174.154 235.44H173.414V234.9L175.474 234.54H176.014V236.1H176.034C176.434 235.513 176.867 235.087 177.334 234.82C177.814 234.553 178.42 234.42 179.154 234.42C180.1 234.42 180.787 234.653 181.214 235.12C181.654 235.573 181.874 236.293 181.874 237.28V242.34Z" fill="#CACACA"/>
<defs>
<linearGradient id="paint0_linear_787_1876" x1="-52.2023" y1="-56.7199" x2="329.276" y2="348.35" gradientUnits="userSpaceOnUse">
<stop stop-color="#FFC10E"/>
<stop offset="1" stop-color="#FFFEFD"/>
</linearGradient>
<linearGradient id="paint1_linear_787_1876" x1="129.282" y1="28.7235" x2="106.368" y2="124.969" gradientUnits="userSpaceOnUse">
<stop stop-color="#FFC10E"/>
<stop offset="1" stop-color="#F8F8F8"/>
</linearGradient>
<clipPath id="clip0_787_1876">
<rect width="88" height="88" fill="white" transform="translate(85 61)"/>
</clipPath>
</defs>
</svg>
