<svg width="258" height="258" viewBox="0 0 258 258" fill="none" xmlns="http://www.w3.org/2000/svg">
<rect x="0.5" y="0.5" width="257" height="257" fill="#020202"/>
<rect x="0.5" y="0.5" width="257" height="257" stroke="url(#paint0_linear_787_1837)"/>
<path d="M160.478 114.908H137.161V90.8461C137.161 90.5088 137.062 90.1825 136.881 89.9261L130.165 80.4148V75.2769H131.331C131.641 75.2769 131.937 75.1278 132.156 74.8623C132.374 74.5969 132.497 74.2369 132.497 73.8615V62.5384C132.497 62.163 132.374 61.803 132.156 61.5376C131.937 61.2722 131.641 61.123 131.331 61.123H98.6868C98.3776 61.123 98.0811 61.2722 97.8624 61.5376C97.6438 61.803 97.5209 62.163 97.5209 62.5384V73.8615C97.5209 74.2369 97.6438 74.5969 97.8624 74.8623C98.0811 75.1278 98.3776 75.2769 98.6868 75.2769H99.8527V80.4148L93.1372 89.9261C92.9566 90.1825 92.8574 90.5088 92.8574 90.8461V127.646C92.8574 129.523 93.4716 131.323 94.5648 132.65C95.1061 133.307 95.7487 133.829 96.456 134.184C97.1633 134.54 97.9213 134.723 98.6868 134.723H120.838V143.215C120.838 144.717 121.33 146.157 122.204 147.219C123.079 148.28 124.265 148.877 125.502 148.877H160.478C161.715 148.877 162.901 148.28 163.776 147.219C164.65 146.157 165.142 144.717 165.142 143.215V120.569C165.142 119.068 164.65 117.628 163.776 116.566C162.901 115.504 161.715 114.908 160.478 114.908ZM99.8527 63.9538H130.165V72.4461H99.8527V63.9538ZM127.834 75.2769V79.5231H102.184V75.2769H127.834ZM101.555 82.3538H128.463L133.465 89.4308H96.5533L101.555 82.3538ZM98.6868 131.892C97.7592 131.892 96.8695 131.445 96.2136 130.649C95.5577 129.852 95.1892 128.772 95.1892 127.646V126.231H120.838V131.892H98.6868ZM120.838 120.569V123.4H95.1892V92.2615H134.829V114.908H125.502C124.265 114.908 123.079 115.504 122.204 116.566C121.33 117.628 120.838 119.068 120.838 120.569ZM162.81 143.215C162.81 143.966 162.564 144.686 162.127 145.217C161.69 145.748 161.097 146.046 160.478 146.046H125.502C124.884 146.046 124.29 145.748 123.853 145.217C123.416 144.686 123.17 143.966 123.17 143.215V120.569C123.17 119.818 123.416 119.098 123.853 118.568C124.29 118.037 124.884 117.738 125.502 117.738H160.478C161.097 117.738 161.69 118.037 162.127 118.568C162.564 119.098 162.81 119.818 162.81 120.569V143.215Z" fill="url(#paint1_linear_787_1837)"/>
<path d="M130.509 121.877C129.615 121.877 128.742 122.115 127.999 122.56C127.256 123.005 126.677 123.637 126.335 124.377C125.993 125.118 125.903 125.932 126.078 126.718C126.252 127.503 126.682 128.225 127.314 128.791C127.946 129.358 128.751 129.744 129.627 129.9C130.504 130.056 131.412 129.976 132.237 129.669C133.063 129.363 133.768 128.844 134.265 128.178C134.761 127.512 135.026 126.728 135.026 125.927C135.026 124.853 134.55 123.823 133.703 123.064C132.856 122.304 131.707 121.877 130.509 121.877ZM130.509 127.277C130.211 127.277 129.92 127.198 129.672 127.05C129.424 126.902 129.231 126.691 129.117 126.444C129.003 126.197 128.973 125.926 129.032 125.664C129.09 125.402 129.233 125.162 129.444 124.973C129.654 124.784 129.923 124.655 130.215 124.603C130.507 124.551 130.81 124.578 131.085 124.68C131.36 124.782 131.595 124.955 131.761 125.177C131.926 125.399 132.014 125.66 132.014 125.927C132.014 126.285 131.856 126.629 131.573 126.882C131.291 127.135 130.908 127.277 130.509 127.277ZM142.556 121.877C141.662 121.877 140.789 122.115 140.046 122.56C139.303 123.005 138.724 123.637 138.382 124.377C138.04 125.118 137.951 125.932 138.125 126.718C138.299 127.503 138.73 128.225 139.361 128.791C139.993 129.358 140.798 129.744 141.675 129.9C142.551 130.056 143.459 129.976 144.285 129.669C145.11 129.363 145.816 128.844 146.312 128.178C146.809 127.512 147.074 126.728 147.074 125.927C147.074 124.853 146.598 123.823 145.75 123.064C144.903 122.304 143.754 121.877 142.556 121.877ZM142.556 127.277C142.258 127.277 141.967 127.198 141.719 127.05C141.472 126.902 141.279 126.691 141.165 126.444C141.051 126.197 141.021 125.926 141.079 125.664C141.137 125.402 141.28 125.162 141.491 124.973C141.702 124.784 141.97 124.655 142.262 124.603C142.554 124.551 142.857 124.578 143.132 124.68C143.407 124.782 143.643 124.955 143.808 125.177C143.974 125.399 144.062 125.66 144.062 125.927C144.062 126.285 143.903 126.629 143.621 126.882C143.338 127.135 142.955 127.277 142.556 127.277ZM154.603 121.877C153.71 121.877 152.836 122.115 152.093 122.56C151.35 123.005 150.771 123.637 150.429 124.377C150.088 125.118 149.998 125.932 150.172 126.718C150.347 127.503 150.777 128.225 151.409 128.791C152.041 129.358 152.846 129.744 153.722 129.9C154.598 130.056 155.507 129.976 156.332 129.669C157.158 129.363 157.863 128.844 158.36 128.178C158.856 127.512 159.121 126.728 159.121 125.927C159.121 124.853 158.645 123.823 157.798 123.064C156.951 122.304 155.802 121.877 154.603 121.877ZM154.603 127.277C154.305 127.277 154.014 127.198 153.767 127.05C153.519 126.902 153.326 126.691 153.212 126.444C153.098 126.197 153.068 125.926 153.126 125.664C153.184 125.402 153.328 125.162 153.538 124.973C153.749 124.784 154.017 124.655 154.31 124.603C154.602 124.551 154.904 124.578 155.18 124.68C155.455 124.782 155.69 124.955 155.855 125.177C156.021 125.399 156.109 125.66 156.109 125.927C156.109 126.285 155.951 126.629 155.668 126.882C155.386 127.135 155.003 127.277 154.603 127.277ZM130.509 135.378C129.615 135.378 128.742 135.615 127.999 136.06C127.256 136.505 126.677 137.138 126.335 137.878C125.993 138.618 125.903 139.433 126.078 140.218C126.252 141.004 126.682 141.726 127.314 142.292C127.946 142.858 128.751 143.244 129.627 143.4C130.504 143.557 131.412 143.476 132.237 143.17C133.063 142.863 133.768 142.344 134.265 141.678C134.761 141.012 135.026 140.229 135.026 139.428C135.026 138.354 134.55 137.324 133.703 136.564C132.856 135.805 131.707 135.378 130.509 135.378ZM130.509 140.778C130.211 140.778 129.92 140.699 129.672 140.551C129.424 140.402 129.231 140.191 129.117 139.945C129.003 139.698 128.973 139.427 129.032 139.165C129.09 138.903 129.233 138.662 129.444 138.473C129.654 138.285 129.923 138.156 130.215 138.104C130.507 138.052 130.81 138.079 131.085 138.181C131.36 138.283 131.595 138.456 131.761 138.678C131.926 138.9 132.014 139.161 132.014 139.428C132.014 139.786 131.856 140.129 131.573 140.383C131.291 140.636 130.908 140.778 130.509 140.778ZM142.556 135.378C141.662 135.378 140.789 135.615 140.046 136.06C139.303 136.505 138.724 137.138 138.382 137.878C138.04 138.618 137.951 139.433 138.125 140.218C138.299 141.004 138.73 141.726 139.361 142.292C139.993 142.858 140.798 143.244 141.675 143.4C142.551 143.557 143.459 143.476 144.285 143.17C145.11 142.863 145.816 142.344 146.312 141.678C146.809 141.012 147.074 140.229 147.074 139.428C147.074 138.354 146.598 137.324 145.75 136.564C144.903 135.805 143.754 135.378 142.556 135.378ZM142.556 140.778C142.258 140.778 141.967 140.699 141.719 140.551C141.472 140.402 141.279 140.191 141.165 139.945C141.051 139.698 141.021 139.427 141.079 139.165C141.137 138.903 141.28 138.662 141.491 138.473C141.702 138.285 141.97 138.156 142.262 138.104C142.554 138.052 142.857 138.079 143.132 138.181C143.407 138.283 143.643 138.456 143.808 138.678C143.974 138.9 144.062 139.161 144.062 139.428C144.062 139.786 143.903 140.129 143.621 140.383C143.338 140.636 142.955 140.778 142.556 140.778ZM154.603 135.378C153.71 135.378 152.836 135.615 152.093 136.06C151.35 136.505 150.771 137.138 150.429 137.878C150.088 138.618 149.998 139.433 150.172 140.218C150.347 141.004 150.777 141.726 151.409 142.292C152.041 142.858 152.846 143.244 153.722 143.4C154.598 143.557 155.507 143.476 156.332 143.17C157.158 142.863 157.863 142.344 158.36 141.678C158.856 141.012 159.121 140.229 159.121 139.428C159.121 138.354 158.645 137.324 157.798 136.564C156.951 135.805 155.802 135.378 154.603 135.378ZM154.603 140.778C154.305 140.778 154.014 140.699 153.767 140.551C153.519 140.402 153.326 140.191 153.212 139.945C153.098 139.698 153.068 139.427 153.126 139.165C153.184 138.903 153.328 138.662 153.538 138.473C153.749 138.285 154.017 138.156 154.31 138.104C154.602 138.052 154.904 138.079 155.18 138.181C155.455 138.283 155.69 138.456 155.855 138.678C156.021 138.9 156.109 139.161 156.109 139.428C156.109 139.786 155.951 140.129 155.668 140.383C155.386 140.636 155.003 140.778 154.603 140.778ZM142.556 105.123C142.078 105.55 141.698 106.057 141.44 106.615C141.181 107.173 141.047 107.772 141.047 108.377C141.047 108.981 141.181 109.58 141.44 110.138C141.698 110.697 142.078 111.204 142.556 111.63L143.444 112.427C143.92 112.855 144.486 113.196 145.109 113.428C145.731 113.66 146.399 113.779 147.074 113.779C147.748 113.779 148.416 113.66 149.039 113.428C149.662 113.196 150.227 112.855 150.703 112.427L157.615 106.23C158.093 105.804 158.473 105.297 158.732 104.738C158.99 104.18 159.124 103.581 159.124 102.976C159.124 102.372 158.99 101.773 158.732 101.215C158.473 100.656 158.093 100.149 157.615 99.7228L156.727 98.9262C155.749 98.0894 154.449 97.6224 153.097 97.6224C151.746 97.6224 150.446 98.0894 149.468 98.9262L142.556 105.123ZM148.58 110.523C148.169 110.861 147.631 111.048 147.074 111.048C146.516 111.048 145.979 110.861 145.568 110.523L144.679 109.727C144.282 109.368 144.059 108.882 144.059 108.377C144.059 107.871 144.282 107.386 144.679 107.027L147.074 104.88L150.974 108.377L148.58 110.523ZM153.097 100.276C153.661 100.277 154.201 100.476 154.603 100.83L155.492 101.626C155.889 101.985 156.112 102.471 156.112 102.976C156.112 103.482 155.889 103.967 155.492 104.326L153.097 106.473L149.197 102.976L151.591 100.83C151.993 100.476 152.534 100.277 153.097 100.276ZM141.938 90.8259C142.414 91.2545 142.98 91.5946 143.603 91.8267C144.225 92.0587 144.893 92.1782 145.568 92.1782C146.242 92.1782 146.91 92.0587 147.533 91.8267C148.156 91.5946 148.721 91.2545 149.197 90.8259L150.086 90.0293C150.564 89.6028 150.943 89.0958 151.202 88.5374C151.461 87.9791 151.594 87.3804 151.594 86.7757C151.594 86.171 151.461 85.5723 151.202 85.0139C150.943 84.4556 150.564 83.9486 150.086 83.522L143.173 77.3253C142.196 76.4884 140.896 76.0215 139.544 76.0215C138.192 76.0215 136.893 76.4884 135.915 77.3253L135.026 78.1218C134.548 78.5483 134.169 79.0553 133.91 79.6137C133.651 80.1721 133.518 80.7708 133.518 81.3754C133.518 81.9801 133.651 82.5788 133.91 83.1372C134.169 83.6956 134.548 84.2026 135.026 84.6291L141.938 90.8259ZM148.58 86.7757C148.579 87.2808 148.357 87.7655 147.962 88.1257L147.074 88.9223C146.663 89.26 146.125 89.4474 145.568 89.4474C145.01 89.4474 144.473 89.26 144.062 88.9223L141.667 86.7757L145.568 83.279L147.962 85.4256C148.357 85.7859 148.579 86.2706 148.58 86.7757ZM137.15 80.0254L138.038 79.2288C138.439 78.8727 138.98 78.6728 139.544 78.6728C140.108 78.6728 140.649 78.8727 141.05 79.2288L143.444 81.3754L139.544 84.8721L137.15 82.7255C136.752 82.3664 136.529 81.8812 136.529 81.3754C136.529 80.8697 136.752 80.3844 137.15 80.0254Z" fill="url(#paint2_linear_787_1837)"/>
<path d="M106.915 195.46C107.422 195.46 107.775 195.433 107.975 195.38C108.175 195.313 108.302 195.207 108.355 195.06C108.409 194.9 108.435 194.62 108.435 194.22V184.58C108.435 184.18 108.409 183.907 108.355 183.76C108.302 183.6 108.175 183.493 107.975 183.44C107.775 183.373 107.422 183.34 106.915 183.34V182.8H116.015V185.84H115.475C115.382 185.147 115.249 184.633 115.075 184.3C114.915 183.967 114.642 183.74 114.255 183.62C113.882 183.487 113.302 183.42 112.515 183.42H110.635C110.315 183.42 110.115 183.46 110.035 183.54C109.969 183.62 109.935 183.827 109.935 184.16V189.08H112.395C112.929 189.08 113.315 189.027 113.555 188.92C113.795 188.813 113.955 188.653 114.035 188.44C114.129 188.227 114.209 187.88 114.275 187.4H114.735V191.48H114.275C114.209 191 114.129 190.653 114.035 190.44C113.955 190.227 113.795 190.067 113.555 189.96C113.315 189.853 112.929 189.8 112.395 189.8H109.935V194.22C109.935 194.62 109.962 194.9 110.015 195.06C110.082 195.207 110.235 195.313 110.475 195.38C110.729 195.433 111.155 195.46 111.755 195.46V196H106.915V195.46ZM121.035 196.24C119.648 196.24 118.608 195.82 117.915 194.98C117.222 194.127 116.875 192.907 116.875 191.32C116.875 189.747 117.222 188.54 117.915 187.7C118.622 186.847 119.662 186.42 121.035 186.42C122.422 186.42 123.462 186.847 124.155 187.7C124.862 188.54 125.215 189.747 125.215 191.32C125.215 192.907 124.862 194.127 124.155 194.98C123.462 195.82 122.422 196.24 121.035 196.24ZM121.035 195.7C121.928 195.7 122.595 195.32 123.035 194.56C123.475 193.8 123.695 192.72 123.695 191.32C123.695 189.933 123.475 188.86 123.035 188.1C122.595 187.34 121.928 186.96 121.035 186.96C120.155 186.96 119.488 187.34 119.035 188.1C118.595 188.86 118.375 189.933 118.375 191.32C118.375 192.72 118.595 193.8 119.035 194.56C119.488 195.32 120.155 195.7 121.035 195.7ZM131.348 196.24C129.961 196.24 128.921 195.82 128.228 194.98C127.534 194.127 127.188 192.907 127.188 191.32C127.188 189.747 127.534 188.54 128.228 187.7C128.934 186.847 129.974 186.42 131.348 186.42C132.734 186.42 133.774 186.847 134.468 187.7C135.174 188.54 135.528 189.747 135.528 191.32C135.528 192.907 135.174 194.127 134.468 194.98C133.774 195.82 132.734 196.24 131.348 196.24ZM131.348 195.7C132.241 195.7 132.908 195.32 133.348 194.56C133.788 193.8 134.008 192.72 134.008 191.32C134.008 189.933 133.788 188.86 133.348 188.1C132.908 187.34 132.241 186.96 131.348 186.96C130.468 186.96 129.801 187.34 129.348 188.1C128.908 188.86 128.688 189.933 128.688 191.32C128.688 192.72 128.908 193.8 129.348 194.56C129.801 195.32 130.468 195.7 131.348 195.7ZM146.72 195.46V196H144.28L144.14 195.04C143.273 195.84 142.267 196.24 141.12 196.24C139.933 196.24 139.033 195.84 138.42 195.04C137.807 194.24 137.5 193.053 137.5 191.48C137.5 189.747 137.853 188.473 138.56 187.66C139.28 186.833 140.247 186.42 141.46 186.42C142.447 186.42 143.307 186.733 144.04 187.36H144.08V183.98C144.08 183.62 144.04 183.387 143.96 183.28C143.88 183.16 143.713 183.1 143.46 183.1H142.68V182.56L144.86 182.14H145.4V194.58C145.4 194.94 145.44 195.18 145.52 195.3C145.6 195.407 145.767 195.46 146.02 195.46H146.72ZM141.48 195.7C142.36 195.7 143.227 195.26 144.08 194.38V188.12C143.373 187.333 142.567 186.94 141.66 186.94C140.793 186.94 140.133 187.293 139.68 188C139.24 188.693 139.02 189.813 139.02 191.36C139.02 192.747 139.213 193.82 139.6 194.58C139.987 195.327 140.613 195.7 141.48 195.7ZM148.744 197.38C149.13 197.26 149.41 197.113 149.584 196.94C149.757 196.78 149.844 196.567 149.844 196.3C149.844 196.1 149.75 195.987 149.564 195.96C149.35 195.933 149.157 195.853 148.984 195.72C148.824 195.573 148.744 195.347 148.744 195.04C148.744 194.747 148.837 194.52 149.024 194.36C149.21 194.187 149.437 194.1 149.704 194.1C149.984 194.1 150.21 194.207 150.384 194.42C150.57 194.633 150.664 194.953 150.664 195.38C150.664 195.94 150.524 196.453 150.244 196.92C149.964 197.4 149.497 197.707 148.844 197.84L148.744 197.38ZM61.8276 219.46C62.3076 219.46 62.6476 219.433 62.8476 219.38C63.0609 219.313 63.1942 219.207 63.2476 219.06C63.3142 218.913 63.3476 218.673 63.3476 218.34V208.48C63.3476 208.133 63.3142 207.887 63.2476 207.74C63.1809 207.593 63.0409 207.493 62.8276 207.44C62.6276 207.373 62.2942 207.34 61.8276 207.34V206.8H66.3276C67.7942 206.8 68.9476 207.1 69.7876 207.7C70.6409 208.3 71.0676 209.247 71.0676 210.54C71.0676 211.86 70.6276 212.86 69.7476 213.54C68.8809 214.22 67.7409 214.56 66.3276 214.56H64.8276V218.34C64.8276 218.687 64.8609 218.933 64.9276 219.08C64.9942 219.227 65.1409 219.327 65.3676 219.38C65.5942 219.433 65.9742 219.46 66.5076 219.46V220H61.8276V219.46ZM66.1076 213.88C67.2409 213.88 68.0742 213.627 68.6076 213.12C69.1542 212.613 69.4276 211.8 69.4276 210.68C69.4276 209.56 69.1542 208.747 68.6076 208.24C68.0609 207.72 67.2142 207.46 66.0676 207.46C65.5476 207.46 65.2076 207.513 65.0476 207.62C64.9009 207.727 64.8276 207.907 64.8276 208.16V213.88H66.1076ZM80.9623 218.34C80.9623 218.713 80.9889 218.973 81.0423 219.12C81.0956 219.253 81.2089 219.347 81.3823 219.4C81.5689 219.44 81.9023 219.46 82.3823 219.46V220H78.2223V219.46C78.6889 219.46 79.0156 219.44 79.2023 219.4C79.3889 219.347 79.5089 219.247 79.5623 219.1C79.6156 218.953 79.6423 218.7 79.6423 218.34V213.46C79.6423 212.807 79.4889 212.267 79.1823 211.84C78.8889 211.4 78.3956 211.18 77.7023 211.18C77.1423 211.18 76.6689 211.327 76.2823 211.62C75.9089 211.913 75.5356 212.34 75.1623 212.9V218.34C75.1623 218.7 75.1889 218.953 75.2423 219.1C75.2956 219.247 75.4156 219.347 75.6023 219.4C75.7889 219.44 76.1156 219.46 76.5823 219.46V220H72.4223V219.46C72.9023 219.46 73.2289 219.44 73.4023 219.4C73.5889 219.347 73.7089 219.253 73.7623 219.12C73.8156 218.973 73.8423 218.713 73.8423 218.34V207.88C73.8423 207.547 73.8023 207.327 73.7223 207.22C73.6423 207.1 73.4823 207.04 73.2423 207.04H72.5023V206.5L74.6223 206.14H75.1623V212H75.2023C75.5756 211.453 75.9956 211.053 76.4623 210.8C76.9289 210.547 77.5223 210.42 78.2423 210.42C79.1889 210.42 79.8756 210.653 80.3023 211.12C80.7423 211.573 80.9623 212.293 80.9623 213.28V218.34ZM91.9612 219.74C91.7212 219.873 91.4878 219.98 91.2612 220.06C91.0478 220.153 90.7478 220.2 90.3612 220.2C90.0412 220.2 89.7878 220.127 89.6012 219.98C89.4145 219.82 89.3012 219.48 89.2612 218.96C88.7278 219.4 88.2278 219.727 87.7612 219.94C87.3078 220.14 86.8012 220.24 86.2412 220.24C85.4945 220.24 84.8945 220.073 84.4412 219.74C83.9878 219.393 83.7612 218.887 83.7612 218.22C83.7612 217.273 84.2278 216.453 85.1612 215.76C86.0945 215.067 87.4545 214.587 89.2412 214.32V213.2C89.2412 212.453 89.1012 211.893 88.8212 211.52C88.5412 211.147 88.0812 210.96 87.4412 210.96C87.0945 210.96 86.7545 211.013 86.4212 211.12C86.1012 211.213 85.8412 211.34 85.6412 211.5C85.4545 211.647 85.3612 211.78 85.3612 211.9C85.3612 211.98 85.4212 212.067 85.5412 212.16C85.6745 212.253 85.7812 212.347 85.8612 212.44C85.9412 212.533 85.9812 212.687 85.9812 212.9C85.9812 213.153 85.9078 213.36 85.7612 213.52C85.6278 213.667 85.4278 213.74 85.1612 213.74C84.8812 213.74 84.6612 213.653 84.5012 213.48C84.3412 213.293 84.2612 213.04 84.2612 212.72C84.2612 212.333 84.3812 211.967 84.6212 211.62C84.8612 211.26 85.2345 210.973 85.7412 210.76C86.2612 210.533 86.9145 210.42 87.7012 210.42C88.6612 210.42 89.3745 210.627 89.8412 211.04C90.3212 211.44 90.5612 212.127 90.5612 213.1V218.04C90.5612 218.56 90.6145 218.92 90.7212 219.12C90.8412 219.307 91.0278 219.4 91.2812 219.4C91.4145 219.4 91.6012 219.36 91.8412 219.28L91.9612 219.74ZM85.2812 217.88C85.2812 218.373 85.4212 218.747 85.7012 219C85.9812 219.24 86.3745 219.36 86.8812 219.36C87.3078 219.36 87.7078 219.273 88.0812 219.1C88.4678 218.927 88.8545 218.693 89.2412 218.4V214.88C86.6012 215.4 85.2812 216.4 85.2812 217.88ZM98.1324 210.42C98.5591 210.42 98.8991 210.547 99.1524 210.8C99.4058 211.053 99.5324 211.427 99.5324 211.92C99.5324 212.733 99.1858 213.14 98.4924 213.14C98.1724 213.14 97.9324 213.06 97.7724 212.9C97.6124 212.727 97.5324 212.52 97.5324 212.28C97.5324 212.133 97.5591 212.007 97.6124 211.9C97.6658 211.793 97.7458 211.68 97.8524 211.56C97.9591 211.44 98.0124 211.347 98.0124 211.28C98.0124 211.16 97.9191 211.1 97.7324 211.1C97.4391 211.1 97.1324 211.247 96.8124 211.54C96.4924 211.833 96.2258 212.227 96.0124 212.72C95.8124 213.2 95.7124 213.707 95.7124 214.24V218.34C95.7124 218.7 95.7391 218.953 95.7924 219.1C95.8458 219.247 95.9658 219.347 96.1524 219.4C96.3391 219.44 96.6658 219.46 97.1324 219.46V220H92.9724V219.46C93.4524 219.46 93.7791 219.44 93.9524 219.4C94.1391 219.347 94.2591 219.253 94.3124 219.12C94.3658 218.973 94.3924 218.713 94.3924 218.34V212.28C94.3924 211.947 94.3524 211.727 94.2724 211.62C94.1924 211.5 94.0324 211.44 93.7924 211.44H93.0524V210.9L95.1124 210.54H95.6524V212.5H95.6724C95.9124 212.087 96.1191 211.753 96.2924 211.5C96.4791 211.233 96.7258 210.987 97.0324 210.76C97.3524 210.533 97.7191 210.42 98.1324 210.42ZM113.879 218.34C113.879 218.713 113.905 218.973 113.959 219.12C114.012 219.253 114.125 219.347 114.299 219.4C114.485 219.44 114.819 219.46 115.299 219.46V220H111.139V219.46C111.619 219.46 111.945 219.44 112.119 219.4C112.305 219.347 112.425 219.253 112.479 219.12C112.532 218.973 112.559 218.713 112.559 218.34V213.46C112.559 211.94 111.999 211.18 110.879 211.18C110.345 211.18 109.885 211.333 109.499 211.64C109.125 211.947 108.765 212.367 108.419 212.9V218.34C108.419 218.713 108.445 218.973 108.499 219.12C108.552 219.253 108.665 219.347 108.839 219.4C109.025 219.44 109.359 219.46 109.839 219.46V220H105.679V219.46C106.159 219.46 106.485 219.44 106.659 219.4C106.845 219.347 106.965 219.253 107.019 219.12C107.072 218.973 107.099 218.713 107.099 218.34V213.46C107.099 211.94 106.539 211.18 105.419 211.18C104.885 211.18 104.425 211.333 104.039 211.64C103.665 211.947 103.305 212.367 102.959 212.9V218.34C102.959 218.7 102.985 218.953 103.039 219.1C103.092 219.247 103.212 219.347 103.399 219.4C103.585 219.44 103.912 219.46 104.379 219.46V220H100.219V219.46C100.699 219.46 101.025 219.44 101.199 219.4C101.385 219.347 101.505 219.253 101.559 219.12C101.612 218.973 101.639 218.713 101.639 218.34V212.28C101.639 211.947 101.599 211.727 101.519 211.62C101.439 211.5 101.279 211.44 101.039 211.44H100.299V210.9L102.359 210.54H102.899V212.1H102.919C103.292 211.54 103.719 211.12 104.199 210.84C104.679 210.56 105.272 210.42 105.979 210.42C107.365 210.42 108.159 210.987 108.359 212.12C108.745 211.56 109.179 211.14 109.659 210.86C110.139 210.567 110.732 210.42 111.439 210.42C112.292 210.42 112.912 210.647 113.299 211.1C113.685 211.553 113.879 212.28 113.879 213.28V218.34ZM124.852 219.74C124.612 219.873 124.378 219.98 124.152 220.06C123.938 220.153 123.638 220.2 123.252 220.2C122.932 220.2 122.678 220.127 122.492 219.98C122.305 219.82 122.192 219.48 122.152 218.96C121.618 219.4 121.118 219.727 120.652 219.94C120.198 220.14 119.692 220.24 119.132 220.24C118.385 220.24 117.785 220.073 117.332 219.74C116.878 219.393 116.652 218.887 116.652 218.22C116.652 217.273 117.118 216.453 118.052 215.76C118.985 215.067 120.345 214.587 122.132 214.32V213.2C122.132 212.453 121.992 211.893 121.712 211.52C121.432 211.147 120.972 210.96 120.332 210.96C119.985 210.96 119.645 211.013 119.312 211.12C118.992 211.213 118.732 211.34 118.532 211.5C118.345 211.647 118.252 211.78 118.252 211.9C118.252 211.98 118.312 212.067 118.432 212.16C118.565 212.253 118.672 212.347 118.752 212.44C118.832 212.533 118.872 212.687 118.872 212.9C118.872 213.153 118.798 213.36 118.652 213.52C118.518 213.667 118.318 213.74 118.052 213.74C117.772 213.74 117.552 213.653 117.392 213.48C117.232 213.293 117.152 213.04 117.152 212.72C117.152 212.333 117.272 211.967 117.512 211.62C117.752 211.26 118.125 210.973 118.632 210.76C119.152 210.533 119.805 210.42 120.592 210.42C121.552 210.42 122.265 210.627 122.732 211.04C123.212 211.44 123.452 212.127 123.452 213.1V218.04C123.452 218.56 123.505 218.92 123.612 219.12C123.732 219.307 123.918 219.4 124.172 219.4C124.305 219.4 124.492 219.36 124.732 219.28L124.852 219.74ZM118.172 217.88C118.172 218.373 118.312 218.747 118.592 219C118.872 219.24 119.265 219.36 119.772 219.36C120.198 219.36 120.598 219.273 120.972 219.1C121.358 218.927 121.745 218.693 122.132 218.4V214.88C119.492 215.4 118.172 216.4 118.172 217.88ZM130.423 220.24C129.503 220.24 128.716 220.033 128.063 219.62C127.423 219.193 126.936 218.613 126.603 217.88C126.283 217.147 126.123 216.32 126.123 215.4C126.123 214.52 126.276 213.707 126.583 212.96C126.89 212.2 127.37 211.587 128.023 211.12C128.69 210.653 129.536 210.42 130.563 210.42C131.416 210.42 132.156 210.587 132.783 210.92C133.41 211.24 133.723 211.733 133.723 212.4C133.723 212.707 133.65 212.96 133.503 213.16C133.356 213.347 133.116 213.44 132.783 213.44C132.476 213.44 132.236 213.36 132.063 213.2C131.903 213.04 131.823 212.82 131.823 212.54C131.823 212.367 131.85 212.233 131.903 212.14C131.956 212.033 132.036 211.927 132.143 211.82C132.25 211.7 132.303 211.6 132.303 211.52C132.303 211.347 132.156 211.213 131.863 211.12C131.57 211.013 131.216 210.96 130.803 210.96C128.696 210.96 127.643 212.42 127.643 215.34C127.643 216.873 127.91 217.987 128.443 218.68C128.99 219.36 129.723 219.7 130.643 219.7C131.416 219.7 132.023 219.513 132.463 219.14C132.903 218.767 133.21 218.373 133.383 217.96L133.863 218.22C132.583 220.14 132.143 220.807 132.543 220.22C132.943 219.647 132.89 219.507 132.383 219.8C131.89 220.093 131.236 220.24 130.423 220.24ZM137.155 215.4C137.155 218.267 138.155 219.7 140.155 219.7C141.021 219.7 141.688 219.473 142.155 219.02C142.635 218.553 142.961 218.007 143.135 217.38L143.635 217.54C143.408 218.353 143.001 219.007 142.415 219.5C141.828 219.993 140.968 220.24 139.835 220.24C138.408 220.24 137.348 219.82 136.655 218.98C135.975 218.14 135.635 216.967 135.635 215.46C135.635 213.9 135.988 212.673 136.695 211.78C137.415 210.873 138.475 210.42 139.875 210.42C141.408 210.42 142.428 210.893 142.935 211.84C143.455 212.787 143.715 213.927 143.715 215.26V215.4H137.155ZM139.855 210.96C138.175 210.96 137.281 212.26 137.175 214.86H142.195C142.195 213.54 142.008 212.56 141.635 211.92C141.275 211.28 140.681 210.96 139.855 210.96ZM153.755 218.34C153.755 218.713 153.781 218.973 153.835 219.12C153.888 219.253 154.001 219.347 154.175 219.4C154.361 219.44 154.695 219.46 155.175 219.46V220H152.455V218.58H152.415C152.041 219.127 151.608 219.54 151.115 219.82C150.635 220.1 150.028 220.24 149.295 220.24C148.388 220.24 147.715 220.007 147.275 219.54C146.848 219.073 146.635 218.353 146.635 217.38V212.28C146.635 211.947 146.595 211.727 146.515 211.62C146.435 211.5 146.275 211.44 146.035 211.44H145.295V210.9L147.415 210.54H147.955V217.2C147.955 217.867 148.101 218.413 148.395 218.84C148.688 219.267 149.175 219.48 149.855 219.48C150.415 219.48 150.895 219.333 151.295 219.04C151.695 218.733 152.068 218.307 152.415 217.76L152.435 212.28C152.435 211.947 152.395 211.727 152.315 211.62C152.235 211.5 152.075 211.44 151.835 211.44H151.095V210.9L153.215 210.54H153.755V218.34ZM159.681 220.22C159.241 220.22 158.841 220.093 158.481 219.84C158.134 219.573 157.961 219.053 157.961 218.28V211.2H156.321V210.66C157.054 210.66 157.634 210.387 158.061 209.84C158.487 209.28 158.754 208.56 158.861 207.68H159.281V210.66H161.541V211.2H159.281V218.22C159.281 218.727 159.347 219.08 159.481 219.28C159.627 219.48 159.821 219.58 160.061 219.58C160.287 219.58 160.534 219.507 160.801 219.36C161.067 219.213 161.274 219.067 161.421 218.92L161.641 219.38C161.307 219.66 161.007 219.867 160.741 220C160.474 220.147 160.121 220.22 159.681 220.22ZM164.759 208.52C164.479 208.52 164.246 208.427 164.059 208.24C163.872 208.053 163.779 207.827 163.779 207.56C163.779 207.267 163.866 207.027 164.039 206.84C164.226 206.653 164.466 206.56 164.759 206.56C165.052 206.56 165.286 206.653 165.459 206.84C165.646 207.027 165.739 207.267 165.739 207.56C165.726 207.84 165.626 208.073 165.439 208.26C165.266 208.433 165.039 208.52 164.759 208.52ZM162.719 219.46C163.199 219.46 163.526 219.44 163.699 219.4C163.886 219.347 164.006 219.253 164.059 219.12C164.112 218.973 164.139 218.713 164.139 218.34V212.28C164.139 211.947 164.099 211.727 164.019 211.62C163.939 211.5 163.779 211.44 163.539 211.44H162.799V210.9L164.919 210.54H165.459V218.34C165.459 218.7 165.486 218.953 165.539 219.1C165.592 219.247 165.712 219.347 165.899 219.4C166.086 219.44 166.412 219.46 166.879 219.46V220H162.719V219.46ZM173.06 220.24C172.14 220.24 171.353 220.033 170.7 219.62C170.06 219.193 169.573 218.613 169.24 217.88C168.92 217.147 168.76 216.32 168.76 215.4C168.76 214.52 168.913 213.707 169.22 212.96C169.526 212.2 170.006 211.587 170.66 211.12C171.326 210.653 172.173 210.42 173.2 210.42C174.053 210.42 174.793 210.587 175.42 210.92C176.046 211.24 176.36 211.733 176.36 212.4C176.36 212.707 176.286 212.96 176.14 213.16C175.993 213.347 175.753 213.44 175.42 213.44C175.113 213.44 174.873 213.36 174.7 213.2C174.54 213.04 174.46 212.82 174.46 212.54C174.46 212.367 174.486 212.233 174.54 212.14C174.593 212.033 174.673 211.927 174.78 211.82C174.886 211.7 174.94 211.6 174.94 211.52C174.94 211.347 174.793 211.213 174.5 211.12C174.206 211.013 173.853 210.96 173.44 210.96C171.333 210.96 170.28 212.42 170.28 215.34C170.28 216.873 170.546 217.987 171.08 218.68C171.626 219.36 172.36 219.7 173.28 219.7C174.053 219.7 174.66 219.513 175.1 219.14C175.54 218.767 175.846 218.373 176.02 217.96L176.5 218.22C175.22 220.14 174.78 220.807 175.18 220.22C175.58 219.647 175.526 219.507 175.02 219.8C174.526 220.093 173.873 220.24 173.06 220.24ZM186.531 219.74C186.291 219.873 186.058 219.98 185.831 220.06C185.618 220.153 185.318 220.2 184.931 220.2C184.611 220.2 184.358 220.127 184.171 219.98C183.985 219.82 183.871 219.48 183.831 218.96C183.298 219.4 182.798 219.727 182.331 219.94C181.878 220.14 181.371 220.24 180.811 220.24C180.065 220.24 179.465 220.073 179.011 219.74C178.558 219.393 178.331 218.887 178.331 218.22C178.331 217.273 178.798 216.453 179.731 215.76C180.665 215.067 182.025 214.587 183.811 214.32V213.2C183.811 212.453 183.671 211.893 183.391 211.52C183.111 211.147 182.651 210.96 182.011 210.96C181.665 210.96 181.325 211.013 180.991 211.12C180.671 211.213 180.411 211.34 180.211 211.5C180.025 211.647 179.931 211.78 179.931 211.9C179.931 211.98 179.991 212.067 180.111 212.16C180.245 212.253 180.351 212.347 180.431 212.44C180.511 212.533 180.551 212.687 180.551 212.9C180.551 213.153 180.478 213.36 180.331 213.52C180.198 213.667 179.998 213.74 179.731 213.74C179.451 213.74 179.231 213.653 179.071 213.48C178.911 213.293 178.831 213.04 178.831 212.72C178.831 212.333 178.951 211.967 179.191 211.62C179.431 211.26 179.805 210.973 180.311 210.76C180.831 210.533 181.485 210.42 182.271 210.42C183.231 210.42 183.945 210.627 184.411 211.04C184.891 211.44 185.131 212.127 185.131 213.1V218.04C185.131 218.56 185.185 218.92 185.291 219.12C185.411 219.307 185.598 219.4 185.851 219.4C185.985 219.4 186.171 219.36 186.411 219.28L186.531 219.74ZM179.851 217.88C179.851 218.373 179.991 218.747 180.271 219C180.551 219.24 180.945 219.36 181.451 219.36C181.878 219.36 182.278 219.273 182.651 219.1C183.038 218.927 183.425 218.693 183.811 218.4V214.88C181.171 215.4 179.851 216.4 179.851 217.88ZM187.463 219.46C187.943 219.46 188.269 219.44 188.443 219.4C188.629 219.347 188.749 219.253 188.803 219.12C188.856 218.973 188.883 218.713 188.883 218.34V207.88C188.883 207.547 188.843 207.327 188.763 207.22C188.683 207.1 188.523 207.04 188.283 207.04H187.543V206.5L189.663 206.14H190.203V218.34C190.203 218.7 190.229 218.953 190.283 219.1C190.336 219.247 190.456 219.347 190.643 219.4C190.829 219.44 191.156 219.46 191.623 219.46V220H187.463V219.46ZM193.831 221.38C194.218 221.26 194.498 221.113 194.671 220.94C194.845 220.78 194.931 220.567 194.931 220.3C194.931 220.1 194.838 219.987 194.651 219.96C194.438 219.933 194.245 219.853 194.071 219.72C193.911 219.573 193.831 219.347 193.831 219.04C193.831 218.747 193.925 218.52 194.111 218.36C194.298 218.187 194.525 218.1 194.791 218.1C195.071 218.1 195.298 218.207 195.471 218.42C195.658 218.633 195.751 218.953 195.751 219.38C195.751 219.94 195.611 220.453 195.331 220.92C195.051 221.4 194.585 221.707 193.931 221.84L193.831 221.38ZM106.623 243.46C107.129 243.46 107.483 243.433 107.683 243.38C107.883 243.327 108.009 243.227 108.062 243.08C108.116 242.92 108.143 242.633 108.143 242.22V232.58C108.143 232.18 108.116 231.907 108.062 231.76C108.009 231.6 107.883 231.493 107.683 231.44C107.483 231.373 107.129 231.34 106.623 231.34V230.8H112.343C114.329 230.827 115.883 231.393 117.003 232.5C118.123 233.607 118.683 235.16 118.683 237.16C118.683 238.587 118.409 239.813 117.863 240.84C117.329 241.867 116.556 242.653 115.543 243.2C114.543 243.733 113.349 244 111.963 244H106.623V243.46ZM111.603 243.4C113.189 243.4 114.469 242.94 115.443 242.02C116.429 241.087 116.923 239.493 116.923 237.24C116.923 235.493 116.516 234.1 115.703 233.06C114.903 232.007 113.609 231.46 111.823 231.42C111.103 231.42 110.596 231.447 110.303 231.5C110.023 231.54 109.836 231.633 109.743 231.78C109.663 231.927 109.623 232.187 109.623 232.56V241.62C109.623 242.127 109.689 242.507 109.823 242.76C109.969 243.013 110.176 243.187 110.443 243.28C110.723 243.36 111.109 243.4 111.603 243.4ZM129.08 243.74C128.84 243.873 128.607 243.98 128.38 244.06C128.167 244.153 127.867 244.2 127.48 244.2C127.16 244.2 126.907 244.127 126.72 243.98C126.534 243.82 126.42 243.48 126.38 242.96C125.847 243.4 125.347 243.727 124.88 243.94C124.427 244.14 123.92 244.24 123.36 244.24C122.614 244.24 122.014 244.073 121.56 243.74C121.107 243.393 120.88 242.887 120.88 242.22C120.88 241.273 121.347 240.453 122.28 239.76C123.214 239.067 124.574 238.587 126.36 238.32V237.2C126.36 236.453 126.22 235.893 125.94 235.52C125.66 235.147 125.2 234.96 124.56 234.96C124.214 234.96 123.874 235.013 123.54 235.12C123.22 235.213 122.96 235.34 122.76 235.5C122.574 235.647 122.48 235.78 122.48 235.9C122.48 235.98 122.54 236.067 122.66 236.16C122.794 236.253 122.9 236.347 122.98 236.44C123.06 236.533 123.1 236.687 123.1 236.9C123.1 237.153 123.027 237.36 122.88 237.52C122.747 237.667 122.547 237.74 122.28 237.74C122 237.74 121.78 237.653 121.62 237.48C121.46 237.293 121.38 237.04 121.38 236.72C121.38 236.333 121.5 235.967 121.74 235.62C121.98 235.26 122.354 234.973 122.86 234.76C123.38 234.533 124.034 234.42 124.82 234.42C125.78 234.42 126.494 234.627 126.96 235.04C127.44 235.44 127.68 236.127 127.68 237.1V242.04C127.68 242.56 127.734 242.92 127.84 243.12C127.96 243.307 128.147 243.4 128.4 243.4C128.534 243.4 128.72 243.36 128.96 243.28L129.08 243.74ZM122.4 241.88C122.4 242.373 122.54 242.747 122.82 243C123.1 243.24 123.494 243.36 124 243.36C124.427 243.36 124.827 243.273 125.2 243.1C125.587 242.927 125.974 242.693 126.36 242.4V238.88C123.72 239.4 122.4 240.4 122.4 241.88ZM132.152 232.52C131.872 232.52 131.638 232.427 131.452 232.24C131.265 232.053 131.172 231.827 131.172 231.56C131.172 231.267 131.258 231.027 131.432 230.84C131.618 230.653 131.858 230.56 132.152 230.56C132.445 230.56 132.678 230.653 132.852 230.84C133.038 231.027 133.132 231.267 133.132 231.56C133.118 231.84 133.018 232.073 132.832 232.26C132.658 232.433 132.432 232.52 132.152 232.52ZM130.112 243.46C130.592 243.46 130.918 243.44 131.092 243.4C131.278 243.347 131.398 243.253 131.452 243.12C131.505 242.973 131.532 242.713 131.532 242.34V236.28C131.532 235.947 131.492 235.727 131.412 235.62C131.332 235.5 131.172 235.44 130.932 235.44H130.192V234.9L132.312 234.54H132.852V242.34C132.852 242.7 132.878 242.953 132.932 243.1C132.985 243.247 133.105 243.347 133.292 243.4C133.478 243.44 133.805 243.46 134.272 243.46V244H130.112V243.46ZM141.052 234.42C141.479 234.42 141.819 234.547 142.072 234.8C142.326 235.053 142.452 235.427 142.452 235.92C142.452 236.733 142.106 237.14 141.412 237.14C141.092 237.14 140.852 237.06 140.692 236.9C140.532 236.727 140.452 236.52 140.452 236.28C140.452 236.133 140.479 236.007 140.532 235.9C140.586 235.793 140.666 235.68 140.772 235.56C140.879 235.44 140.932 235.347 140.932 235.28C140.932 235.16 140.839 235.1 140.652 235.1C140.359 235.1 140.052 235.247 139.732 235.54C139.412 235.833 139.146 236.227 138.932 236.72C138.732 237.2 138.632 237.707 138.632 238.24V242.34C138.632 242.7 138.659 242.953 138.712 243.1C138.766 243.247 138.886 243.347 139.072 243.4C139.259 243.44 139.586 243.46 140.052 243.46V244H135.892V243.46C136.372 243.46 136.699 243.44 136.872 243.4C137.059 243.347 137.179 243.253 137.232 243.12C137.286 242.973 137.312 242.713 137.312 242.34V236.28C137.312 235.947 137.272 235.727 137.192 235.62C137.112 235.5 136.952 235.44 136.712 235.44H135.972V234.9L138.032 234.54H138.572V236.5H138.592C138.832 236.087 139.039 235.753 139.212 235.5C139.399 235.233 139.646 234.987 139.952 234.76C140.272 234.533 140.639 234.42 141.052 234.42ZM152.359 234.66V235.2C151.999 235.2 151.733 235.233 151.559 235.3C151.386 235.353 151.253 235.447 151.159 235.58C151.079 235.7 150.986 235.9 150.879 236.18L146.819 246.78C146.619 247.313 146.406 247.687 146.179 247.9C145.966 248.127 145.626 248.24 145.159 248.24C144.679 248.24 144.299 248.107 144.019 247.84C143.739 247.573 143.599 247.253 143.599 246.88C143.599 246.6 143.686 246.367 143.859 246.18C144.033 245.993 144.246 245.9 144.499 245.9C144.699 245.9 144.879 245.96 145.039 246.08C145.213 246.213 145.299 246.4 145.299 246.64C145.299 246.787 145.259 246.927 145.179 247.06C145.099 247.207 145.059 247.327 145.059 247.42C145.059 247.607 145.173 247.7 145.399 247.7C145.599 247.7 145.759 247.6 145.879 247.4C145.999 247.213 146.186 246.793 146.439 246.14L147.239 244.04L144.319 236.2C144.159 235.773 143.993 235.5 143.819 235.38C143.659 235.26 143.359 235.2 142.919 235.2V234.66H146.759V235.2H146.059C145.739 235.2 145.579 235.313 145.579 235.54C145.579 235.607 145.606 235.72 145.659 235.88L147.899 242.28H147.919L150.339 235.94C150.393 235.793 150.419 235.667 150.419 235.56C150.419 235.32 150.259 235.2 149.939 235.2H149.079V234.66H152.359Z" fill="#CACACA"/>
<defs>
<linearGradient id="paint0_linear_787_1837" x1="-52.2023" y1="-56.7199" x2="329.276" y2="348.35" gradientUnits="userSpaceOnUse">
<stop stop-color="#FFC10E"/>
<stop offset="1" stop-color="#FFFEFD"/>
</linearGradient>
<linearGradient id="paint1_linear_787_1837" x1="129.263" y1="18.074" x2="98.3481" y2="125.04" gradientUnits="userSpaceOnUse">
<stop stop-color="#FFC10E"/>
<stop offset="1" stop-color="#F8F8F8"/>
</linearGradient>
<linearGradient id="paint2_linear_787_1837" x1="136.698" y1="42.9295" x2="108.582" y2="122.029" gradientUnits="userSpaceOnUse">
<stop stop-color="#FFC10E"/>
<stop offset="1" stop-color="#F8F8F8"/>
</linearGradient>
</defs>
</svg>
