<svg width="258" height="258" viewBox="0 0 258 258" fill="none" xmlns="http://www.w3.org/2000/svg">
<rect x="0.5" y="0.5" width="257" height="257" fill="#020202"/>
<rect x="0.5" y="0.5" width="257" height="257" stroke="url(#paint0_linear_787_1833)"/>
<path d="M168.444 135.79H158.566C158.375 135.805 158.186 135.747 158.037 135.627C157.888 135.507 157.792 135.335 157.766 135.145C157.718 134.546 157.788 133.999 158.566 133.968H161.786C162.295 133.972 162.799 133.875 163.271 133.683C163.742 133.491 164.17 133.208 164.532 132.849C164.893 132.491 165.179 132.064 165.375 131.594C165.571 131.124 165.671 130.621 165.671 130.112C165.671 129.603 165.571 129.099 165.375 128.629C165.179 128.159 164.893 127.733 164.532 127.374C164.17 127.016 163.742 126.732 163.271 126.54C162.799 126.348 162.295 126.251 161.786 126.255H139.194V112.769C153.322 115.977 169.012 102.669 161.088 88.8076L145.327 61.7901C145.189 61.5528 144.991 61.356 144.753 61.2192C144.515 61.0824 144.246 61.0105 143.971 61.0107C143.094 61.0078 141.931 60.8566 141.447 61.7902L136.737 69.8656H123.536V63.9075C123.536 63.7012 123.495 63.4968 123.416 63.3062C123.337 63.1155 123.222 62.9423 123.076 62.7964C122.93 62.6505 122.757 62.5347 122.566 62.4558C122.375 62.3769 122.171 62.3363 121.965 62.3363H106.067C105.861 62.3363 105.657 62.3769 105.466 62.4558C105.275 62.5347 105.102 62.6505 104.956 62.7964C104.81 62.9423 104.695 63.1155 104.616 63.3062C104.537 63.4968 104.496 63.7012 104.496 63.9075V69.8656H89.4827C88.4269 69.8669 87.4146 70.287 86.668 71.0338C85.9213 71.7805 85.5013 72.7929 85.5 73.8489V75.1931C85.5024 76.1359 85.8394 77.0473 86.4509 77.7648C87.0624 78.4824 87.9088 78.9595 88.8392 79.1113V93.7471C88.8428 103.625 88.8366 130.211 88.8392 139.723C87.9071 139.884 87.0617 140.369 86.4516 141.092C85.8416 141.815 85.506 142.731 85.5038 143.677V144.944C85.5051 146.011 85.9293 147.034 86.6836 147.788C87.4378 148.543 88.4605 148.967 89.5273 148.969H136.805C136.855 148.982 136.906 148.992 136.957 148.999H149.379C150.406 149.017 151.397 148.626 152.136 147.913C152.875 147.201 153.302 146.224 153.322 145.197C153.345 145.007 153.442 144.833 153.592 144.713C153.741 144.593 153.932 144.536 154.123 144.554H168.444C169.473 144.574 170.467 144.185 171.209 143.472C171.951 142.76 172.38 141.782 172.403 140.754C172.535 140.159 172.532 139.543 172.395 138.949C172.258 138.356 171.99 137.801 171.61 137.325C171.231 136.849 170.749 136.464 170.201 136.198C169.654 135.933 169.053 135.793 168.444 135.79ZM125.687 88.8078C125.071 89.8693 124.582 90.9998 124.231 92.1759H91.9812V79.1764H131.306L125.687 88.8078ZM91.9812 139.653V126.642H136.052C136.106 126.906 136.012 138.933 136.052 139.654L91.9812 139.653ZM136.052 123.499H91.9812V95.3183H123.663C123.037 102.923 128.805 109.632 136.052 111.964L136.052 123.499ZM143.388 64.6993L158.376 90.3913C164.082 100.317 154.119 110.415 143.388 110.044C132.66 110.416 122.69 100.315 128.401 90.3911L143.388 64.6993ZM107.638 65.4787H120.394V69.8656H107.638V65.4787ZM88.642 73.8489C88.6408 73.7382 88.6618 73.6283 88.7036 73.5258C88.7454 73.4232 88.8073 73.33 88.8856 73.2517C88.9639 73.1734 89.0571 73.1115 89.1596 73.0697C89.2622 73.0278 89.372 73.0069 89.4827 73.0081H134.904L133.139 76.0339H89.4827C88.363 76.0275 88.6812 74.561 88.642 73.8489ZM88.6459 144.944C88.6819 144.202 88.3808 142.815 89.5273 142.796H90.3949C90.3877 142.804 137.622 142.796 137.623 142.799C137.635 142.79 138.49 142.799 138.505 142.796C139.634 142.812 139.362 144.2 139.385 144.944C139.385 145.178 139.293 145.402 139.128 145.567C138.962 145.733 138.738 145.826 138.505 145.826H89.5273C89.2935 145.826 89.0694 145.733 88.9041 145.567C88.7389 145.402 88.646 145.178 88.6459 144.944ZM169.261 140.754C169.237 140.948 169.139 141.126 168.986 141.249C168.834 141.372 168.639 141.43 168.444 141.412H154.123C153.098 141.393 152.108 141.78 151.369 142.49C150.63 143.199 150.202 144.173 150.18 145.197C150.159 145.39 150.064 145.567 149.914 145.691C149.764 145.814 149.572 145.874 149.379 145.857H142.413C142.525 145.136 142.564 144.405 142.527 143.677C142.525 142.731 142.19 141.816 141.58 141.093C140.97 140.37 140.125 139.885 139.194 139.723V129.397H161.786C161.884 129.39 161.983 129.403 162.076 129.436C162.169 129.468 162.254 129.52 162.326 129.587C162.399 129.654 162.456 129.735 162.496 129.825C162.535 129.916 162.555 130.013 162.555 130.112C162.555 130.21 162.535 130.308 162.496 130.398C162.456 130.488 162.399 130.57 162.326 130.637C162.254 130.704 162.169 130.755 162.076 130.788C161.983 130.82 161.884 130.833 161.786 130.826H158.566C157.542 130.807 156.552 131.194 155.813 131.904C155.074 132.614 154.647 133.587 154.624 134.611C154.567 135.161 154.627 135.716 154.8 136.241C154.972 136.765 155.254 137.248 155.626 137.656C155.999 138.064 156.453 138.389 156.959 138.609C157.466 138.829 158.014 138.939 158.566 138.932H168.444C169.535 138.936 169.221 140.074 169.261 140.754Z" fill="url(#paint1_linear_787_1833)"/>
<path d="M95.6977 196.24C94.3777 196.24 93.2777 195.947 92.3977 195.36C91.5311 194.773 90.8844 193.973 90.4577 192.96C90.0311 191.933 89.8177 190.767 89.8177 189.46C89.8177 188.18 90.0244 187.02 90.4377 185.98C90.8511 184.94 91.4977 184.113 92.3777 183.5C93.2577 182.873 94.3644 182.56 95.6977 182.56C97.0311 182.56 98.1377 182.873 99.0177 183.5C99.8977 184.113 100.544 184.94 100.958 185.98C101.371 187.02 101.578 188.18 101.578 189.46C101.578 190.767 101.364 191.933 100.938 192.96C100.511 193.973 99.8577 194.773 98.9777 195.36C98.1111 195.947 97.0177 196.24 95.6977 196.24ZM95.6977 195.64C97.3111 195.64 98.3977 195.027 98.9577 193.8C99.5311 192.56 99.8177 191.113 99.8177 189.46C99.8177 187.62 99.5377 186.113 98.9777 184.94C98.4311 183.753 97.3377 183.16 95.6977 183.16C94.0577 183.16 92.9577 183.753 92.3977 184.94C91.8511 186.113 91.5777 187.62 91.5777 189.46C91.5777 191.113 91.8577 192.56 92.4177 193.8C92.9911 195.027 94.0844 195.64 95.6977 195.64ZM105.501 184.52C105.221 184.52 104.988 184.427 104.801 184.24C104.615 184.053 104.521 183.827 104.521 183.56C104.521 183.267 104.608 183.027 104.781 182.84C104.968 182.653 105.208 182.56 105.501 182.56C105.795 182.56 106.028 182.653 106.201 182.84C106.388 183.027 106.481 183.267 106.481 183.56C106.468 183.84 106.368 184.073 106.181 184.26C106.008 184.433 105.781 184.52 105.501 184.52ZM103.461 195.46C103.941 195.46 104.268 195.44 104.441 195.4C104.628 195.347 104.748 195.253 104.801 195.12C104.855 194.973 104.881 194.713 104.881 194.34V188.28C104.881 187.947 104.841 187.727 104.761 187.62C104.681 187.5 104.521 187.44 104.281 187.44H103.541V186.9L105.661 186.54H106.201V194.34C106.201 194.7 106.228 194.953 106.281 195.1C106.335 195.247 106.455 195.347 106.641 195.4C106.828 195.44 107.155 195.46 107.621 195.46V196H103.461V195.46ZM109.162 195.46C109.642 195.46 109.969 195.44 110.142 195.4C110.329 195.347 110.449 195.253 110.502 195.12C110.555 194.973 110.582 194.713 110.582 194.34V183.88C110.582 183.547 110.542 183.327 110.462 183.22C110.382 183.1 110.222 183.04 109.982 183.04H109.242V182.5L111.362 182.14H111.902V194.34C111.902 194.7 111.929 194.953 111.982 195.1C112.035 195.247 112.155 195.347 112.342 195.4C112.529 195.44 112.855 195.46 113.322 195.46V196H109.162V195.46ZM129.214 194.04C129.601 194.387 130.074 194.713 130.634 195.02C131.194 195.313 131.754 195.46 132.314 195.46V196H131.454C130.721 196 130.101 195.927 129.594 195.78C129.101 195.62 128.654 195.367 128.254 195.02C127.214 195.833 125.868 196.24 124.214 196.24C122.761 196.24 121.634 195.94 120.834 195.34C120.048 194.74 119.654 193.94 119.654 192.94C119.654 192.073 119.921 191.34 120.454 190.74C120.988 190.14 121.721 189.56 122.654 189C121.988 188.253 121.548 187.633 121.334 187.14C121.134 186.633 121.034 186.173 121.034 185.76C121.034 184.667 121.348 183.86 121.974 183.34C122.601 182.82 123.394 182.56 124.354 182.56C125.314 182.56 126.094 182.8 126.694 183.28C127.294 183.76 127.594 184.387 127.594 185.16C127.594 185.72 127.434 186.213 127.114 186.64C126.808 187.067 126.448 187.42 126.034 187.7C125.621 187.98 125.061 188.313 124.354 188.7L128.774 193.56C129.148 193.133 129.434 192.653 129.634 192.12C129.834 191.587 129.934 191.067 129.934 190.56C129.934 190.253 129.834 190.007 129.634 189.82C129.434 189.62 129.001 189.52 128.334 189.52V189H132.234V189.52C131.794 189.52 131.461 189.56 131.234 189.64C131.021 189.72 130.874 189.827 130.794 189.96C130.728 190.093 130.674 190.273 130.634 190.5C130.528 191.1 130.368 191.7 130.154 192.3C129.954 192.9 129.641 193.48 129.214 194.04ZM124.454 183.1C123.814 183.1 123.301 183.287 122.914 183.66C122.541 184.02 122.354 184.52 122.354 185.16C122.354 185.667 122.481 186.16 122.734 186.64C122.988 187.107 123.381 187.64 123.914 188.24C124.861 187.667 125.508 187.173 125.854 186.76C126.214 186.333 126.394 185.807 126.394 185.18C126.394 184.487 126.221 183.967 125.874 183.62C125.528 183.273 125.054 183.1 124.454 183.1ZM121.214 192.46C121.214 193.313 121.554 194 122.234 194.52C122.928 195.027 123.808 195.28 124.874 195.28C125.941 195.28 126.888 195.013 127.714 194.48L123.094 189.48C121.841 190.387 121.214 191.38 121.214 192.46ZM145.074 196.24C143.847 196.24 142.787 195.96 141.894 195.4C141.001 194.84 140.314 194.053 139.834 193.04C139.367 192.013 139.134 190.827 139.134 189.48C139.134 188.093 139.381 186.88 139.874 185.84C140.367 184.8 141.081 183.993 142.014 183.42C142.961 182.847 144.081 182.56 145.374 182.56C145.947 182.56 146.421 182.607 146.794 182.7C147.181 182.793 147.561 182.92 147.934 183.08C148.294 183.227 148.547 183.3 148.694 183.3C148.814 183.3 148.921 183.273 149.014 183.22C149.107 183.167 149.167 183.1 149.194 183.02L149.294 182.8H149.734L149.934 186.28H149.394C149.141 185.453 148.714 184.727 148.114 184.1C147.527 183.473 146.661 183.16 145.514 183.16C144.394 183.16 143.487 183.48 142.794 184.12C142.114 184.76 141.627 185.56 141.334 186.52C141.041 187.48 140.894 188.467 140.894 189.48C140.894 190.547 141.054 191.547 141.374 192.48C141.707 193.413 142.234 194.173 142.954 194.76C143.687 195.347 144.621 195.64 145.754 195.64C146.487 195.64 147.107 195.5 147.614 195.22C148.121 194.927 148.374 194.413 148.374 193.68V191.4C148.374 190.813 148.054 190.52 147.414 190.52H147.094V189.98H150.774V190.52H150.554C150.087 190.52 149.854 190.74 149.854 191.18V196.06H149.534C149.467 195.9 149.387 195.78 149.294 195.7C149.201 195.62 149.067 195.58 148.894 195.58C148.721 195.58 148.367 195.653 147.834 195.8C147.274 195.947 146.794 196.053 146.394 196.12C146.007 196.2 145.567 196.24 145.074 196.24ZM160.262 195.74C160.022 195.873 159.789 195.98 159.562 196.06C159.349 196.153 159.049 196.2 158.662 196.2C158.342 196.2 158.089 196.127 157.902 195.98C157.715 195.82 157.602 195.48 157.562 194.96C157.029 195.4 156.529 195.727 156.062 195.94C155.609 196.14 155.102 196.24 154.542 196.24C153.795 196.24 153.195 196.073 152.742 195.74C152.289 195.393 152.062 194.887 152.062 194.22C152.062 193.273 152.529 192.453 153.462 191.76C154.395 191.067 155.755 190.587 157.542 190.32V189.2C157.542 188.453 157.402 187.893 157.122 187.52C156.842 187.147 156.382 186.96 155.742 186.96C155.395 186.96 155.055 187.013 154.722 187.12C154.402 187.213 154.142 187.34 153.942 187.5C153.755 187.647 153.662 187.78 153.662 187.9C153.662 187.98 153.722 188.067 153.842 188.16C153.975 188.253 154.082 188.347 154.162 188.44C154.242 188.533 154.282 188.687 154.282 188.9C154.282 189.153 154.209 189.36 154.062 189.52C153.929 189.667 153.729 189.74 153.462 189.74C153.182 189.74 152.962 189.653 152.802 189.48C152.642 189.293 152.562 189.04 152.562 188.72C152.562 188.333 152.682 187.967 152.922 187.62C153.162 187.26 153.535 186.973 154.042 186.76C154.562 186.533 155.215 186.42 156.002 186.42C156.962 186.42 157.675 186.627 158.142 187.04C158.622 187.44 158.862 188.127 158.862 189.1V194.04C158.862 194.56 158.915 194.92 159.022 195.12C159.142 195.307 159.329 195.4 159.582 195.4C159.715 195.4 159.902 195.36 160.142 195.28L160.262 195.74ZM153.582 193.88C153.582 194.373 153.722 194.747 154.002 195C154.282 195.24 154.675 195.36 155.182 195.36C155.609 195.36 156.009 195.273 156.382 195.1C156.769 194.927 157.155 194.693 157.542 194.4V190.88C154.902 191.4 153.582 192.4 153.582 193.88ZM165.013 196.22C164.627 196.22 164.307 196.187 164.053 196.12C163.8 196.053 163.54 195.967 163.273 195.86C162.98 195.74 162.767 195.68 162.633 195.68C162.5 195.68 162.4 195.707 162.333 195.76C162.28 195.813 162.227 195.913 162.173 196.06H161.793L161.573 192.76H161.913C162.167 193.773 162.54 194.513 163.033 194.98C163.54 195.447 164.167 195.68 164.913 195.68C165.553 195.68 166.08 195.527 166.493 195.22C166.907 194.9 167.113 194.467 167.113 193.92C167.113 193.293 166.887 192.827 166.433 192.52C165.98 192.213 165.38 191.94 164.633 191.7L164.073 191.52C163.327 191.28 162.753 190.987 162.353 190.64C161.953 190.28 161.753 189.773 161.753 189.12C161.753 188.307 162.053 187.653 162.653 187.16C163.253 186.667 164.033 186.42 164.993 186.42C165.3 186.42 165.547 186.44 165.733 186.48C165.933 186.52 166.147 186.58 166.373 186.66C166.613 186.74 166.773 186.78 166.853 186.78C166.987 186.78 167.073 186.753 167.113 186.7C167.167 186.633 167.2 186.573 167.213 186.52C167.24 186.467 167.253 186.433 167.253 186.42H167.573L167.713 189.36H167.373C167.213 188.587 166.96 187.993 166.613 187.58C166.28 187.167 165.753 186.96 165.033 186.96C164.407 186.96 163.893 187.113 163.493 187.42C163.093 187.727 162.893 188.12 162.893 188.6C162.893 189.08 163.087 189.48 163.473 189.8C163.873 190.107 164.333 190.333 164.853 190.48L165.333 190.62C166.373 190.927 167.133 191.287 167.613 191.7C168.093 192.113 168.333 192.673 168.333 193.38C168.333 194.233 168.02 194.92 167.393 195.44C166.78 195.96 165.987 196.22 165.013 196.22Z" fill="#CACACA"/>
<defs>
<linearGradient id="paint0_linear_787_1833" x1="-52.2023" y1="-56.7199" x2="329.276" y2="348.35" gradientUnits="userSpaceOnUse">
<stop stop-color="#FFC10E"/>
<stop offset="1" stop-color="#FFFEFD"/>
</linearGradient>
<linearGradient id="paint1_linear_787_1833" x1="129.318" y1="17.8302" x2="102.864" y2="127.686" gradientUnits="userSpaceOnUse">
<stop stop-color="#FFC10E"/>
<stop offset="1" stop-color="#F8F8F8"/>
</linearGradient>
</defs>
</svg>
