<svg width="258" height="258" viewBox="0 0 258 258" fill="none" xmlns="http://www.w3.org/2000/svg">
<rect x="0.5" y="0.5" width="257" height="257" fill="#020202"/>
<rect x="0.5" y="0.5" width="257" height="257" stroke="url(#paint0_linear_787_1858)"/>
<g clip-path="url(#clip0_787_1858)">
<g clip-path="url(#clip1_787_1858)">
<path d="M86.375 133.875C86.0103 133.875 85.6606 134.02 85.4027 134.278C85.1449 134.536 85 134.885 85 135.25C85 135.615 85.1449 135.964 85.4027 136.222C85.6606 136.48 86.0103 136.625 86.375 136.625H87.0625V144.875C87.0625 145.969 87.4971 147.018 88.2707 147.792C89.0443 148.565 90.0935 149 91.1875 149H100.538C99.3734 148.234 98.3227 147.308 97.4163 146.25H91.1875C90.8228 146.25 90.4731 146.105 90.2152 145.847C89.9574 145.589 89.8125 145.24 89.8125 144.875V136.625H93.9375C93.9167 135.707 93.958 134.788 94.0613 133.875H89.8125V124.25H97.1894C97.65 123.322 98.1381 122.408 98.6331 121.5H89.8125V111.875H103.418C103.776 110.947 104.106 110.033 104.429 109.125H89.8125V95.375C89.8125 90.2806 93.0644 86.4375 97.375 86.4375C101.686 86.4375 104.938 90.2806 104.938 95.375V96.75H99.4375C99.0728 96.75 98.7231 96.8949 98.4652 97.1527C98.2074 97.4106 98.0625 97.7603 98.0625 98.125C98.0625 98.4897 98.2074 98.8394 98.4652 99.0973C98.7231 99.3551 99.0728 99.5 99.4375 99.5H104.938V107.523C105.233 106.574 105.508 105.626 105.756 104.677C105.934 103.989 106.395 102.209 107.688 101.349V99.5H110.438V101.081C112.17 101.769 112.706 103.934 112.906 104.739C113.002 105.124 113.091 105.488 113.188 105.839V99.5H128.313V121.5H120.702C121.231 122.401 121.747 123.315 122.242 124.25H128.313V133.875H125.466C125.561 134.788 125.587 135.708 125.542 136.625H128.292V144.875C128.292 145.24 128.147 145.589 127.889 145.847C127.631 146.105 127.282 146.25 126.917 146.25H122.022C121.152 147.304 120.139 148.229 119.011 149H170.353C170.712 149.008 171.068 148.942 171.4 148.805C171.732 148.669 172.032 148.465 172.28 148.206C172.529 147.948 172.722 147.64 172.846 147.304C172.969 146.967 173.022 146.608 173 146.25L169.102 77.3763C169.388 77.246 169.62 77.0219 169.761 76.7412C169.902 76.4604 169.942 76.1399 169.875 75.8331C169.809 75.5262 169.639 75.2513 169.395 75.0543C169.15 74.8573 168.845 74.7499 168.531 74.75H161.656C161.34 74.7522 161.034 74.8632 160.791 75.0644C160.547 75.2656 160.38 75.5447 160.318 75.8546C160.255 76.1646 160.302 76.4865 160.449 76.7662C160.597 77.0458 160.836 77.2661 161.127 77.39L157.875 146.25H130.822C130.98 145.809 131.061 145.344 131.063 144.875V143.5H142.75C143.844 143.5 144.893 143.065 145.667 142.292C146.44 141.518 146.875 140.469 146.875 139.375V137.313H152.375C153.104 137.313 153.804 137.023 154.32 136.507C154.835 135.991 155.125 135.292 155.125 134.563V128.375C155.49 128.375 155.839 128.23 156.097 127.972C156.355 127.714 156.5 127.365 156.5 127C156.5 126.635 156.355 126.286 156.097 126.028C155.839 125.77 155.49 125.625 155.125 125.625V120.125C155.49 120.125 155.839 119.98 156.097 119.722C156.355 119.464 156.5 119.115 156.5 118.75C156.5 118.385 156.355 118.036 156.097 117.778C155.839 117.52 155.49 117.375 155.125 117.375V113.938C155.141 113.231 155.019 112.529 154.764 111.87C154.508 111.212 154.126 110.61 153.638 110.099C153.151 109.589 152.567 109.179 151.921 108.894C151.275 108.609 150.579 108.454 149.873 108.438H149.625V65.125C149.625 64.031 149.19 62.9818 148.417 62.2082C147.643 61.4346 146.594 61 145.5 61H100.125C99.031 61 97.9818 61.4346 97.2082 62.2082C96.4346 62.9818 96 64.031 96 65.125V78.4281C95.4301 78.6306 94.9117 78.9558 94.4815 79.3809C94.0513 79.806 93.7198 80.3205 93.5106 80.8879C93.3013 81.4553 93.2194 82.0618 93.2706 82.6644C93.3218 83.267 93.5049 83.851 93.8069 84.375C89.8125 85.9494 87.0625 90.15 87.0625 95.375V109.125H86.375C86.0103 109.125 85.6606 109.27 85.4027 109.528C85.1449 109.786 85 110.135 85 110.5C85 110.865 85.1449 111.214 85.4027 111.472C85.6606 111.73 86.0103 111.875 86.375 111.875H87.0625V121.5H86.375C86.0103 121.5 85.6606 121.645 85.4027 121.903C85.1449 122.161 85 122.51 85 122.875C85 123.24 85.1449 123.589 85.4027 123.847C85.6606 124.105 86.0103 124.25 86.375 124.25H87.0625V133.875H86.375ZM163.87 77.5H166.352L167.438 96.75H162.963L163.87 77.5ZM162.832 99.5H167.596L168.971 124.25H161.67L162.832 99.5ZM161.539 127H169.15L170.25 146.25H160.625L161.539 127ZM128.313 96.75H113.188V95.375C113.188 90.2806 116.439 86.4375 120.75 86.4375C125.061 86.4375 128.313 90.2806 128.313 95.375V96.75ZM119.375 82.3125C119.375 82.0406 119.456 81.7747 119.607 81.5486C119.758 81.3225 119.973 81.1462 120.224 81.0422C120.475 80.9381 120.752 80.9109 121.018 80.9639C121.285 81.017 121.53 81.1479 121.722 81.3402C121.915 81.5325 122.046 81.7775 122.099 82.0443C122.152 82.311 122.124 82.5874 122.02 82.8387C121.916 83.0899 121.74 83.3047 121.514 83.4558C121.288 83.6069 121.022 83.6875 120.75 83.6875C120.385 83.6875 120.036 83.5426 119.778 83.2848C119.52 83.0269 119.375 82.6772 119.375 82.3125ZM144.125 139.375C144.125 139.74 143.98 140.089 143.722 140.347C143.464 140.605 143.115 140.75 142.75 140.75H131.063V136.625H131.75C132.115 136.625 132.464 136.48 132.722 136.222C132.98 135.964 133.125 135.615 133.125 135.25C133.125 134.885 132.98 134.536 132.722 134.278C132.464 134.02 132.115 133.875 131.75 133.875H131.063V124.25H131.75C132.115 124.25 132.464 124.105 132.722 123.847C132.98 123.589 133.125 123.24 133.125 122.875C133.125 122.51 132.98 122.161 132.722 121.903C132.464 121.645 132.115 121.5 131.75 121.5H131.063V99.5H131.75C132.115 99.5 132.464 99.3551 132.722 99.0973C132.98 98.8394 133.125 98.4897 133.125 98.125C133.125 97.7603 132.98 97.4106 132.722 97.1527C132.464 96.8949 132.115 96.75 131.75 96.75H131.063V95.375C131.063 90.15 128.313 85.9494 124.318 84.375C124.62 83.851 124.803 83.267 124.854 82.6644C124.906 82.0618 124.824 81.4553 124.614 80.8879C124.405 80.3205 124.074 79.806 123.644 79.3809C123.213 78.9558 122.695 78.6306 122.125 78.4281V70.625C122.125 70.2603 122.27 69.9106 122.528 69.6527C122.786 69.3949 123.135 69.25 123.5 69.25H140C140.365 69.25 140.714 69.3949 140.972 69.6527C141.23 69.9106 141.375 70.2603 141.375 70.625V108.438H141.128C140.421 108.454 139.725 108.609 139.079 108.894C138.433 109.179 137.85 109.589 137.362 110.099C136.874 110.61 136.492 111.212 136.237 111.87C135.981 112.529 135.859 113.231 135.875 113.938V117.375C135.51 117.375 135.161 117.52 134.903 117.778C134.645 118.036 134.5 118.385 134.5 118.75C134.5 119.115 134.645 119.464 134.903 119.722C135.161 119.98 135.51 120.125 135.875 120.125V125.625C135.51 125.625 135.161 125.77 134.903 126.028C134.645 126.286 134.5 126.635 134.5 127C134.5 127.365 134.645 127.714 134.903 127.972C135.161 128.23 135.51 128.375 135.875 128.375V134.563C135.875 135.292 136.165 135.991 136.68 136.507C137.196 137.023 137.896 137.313 138.625 137.313H144.125V139.375ZM152.375 134.563H138.625V128.375H152.375V134.563ZM152.375 125.625H138.625V120.125H152.375V125.625ZM149.873 111.188C150.568 111.223 151.221 111.532 151.69 112.047C152.159 112.562 152.405 113.242 152.375 113.938V117.375H138.625V113.938C138.595 113.242 138.841 112.562 139.31 112.047C139.779 111.532 140.432 111.223 141.128 111.188H149.873ZM98.75 65.125C98.75 64.7603 98.8949 64.4106 99.1527 64.1527C99.4106 63.8949 99.7603 63.75 100.125 63.75H145.5C145.865 63.75 146.214 63.8949 146.472 64.1527C146.73 64.4106 146.875 64.7603 146.875 65.125V108.438H144.125V70.625C144.125 69.531 143.69 68.4818 142.917 67.7082C142.143 66.9346 141.094 66.5 140 66.5H123.5C122.406 66.5 121.357 66.9346 120.583 67.7082C119.81 68.4818 119.375 69.531 119.375 70.625V78.4281C118.805 78.6306 118.287 78.9558 117.857 79.3809C117.426 79.806 117.095 80.3205 116.886 80.8879C116.676 81.4553 116.594 82.0618 116.646 82.6644C116.697 83.267 116.88 83.851 117.182 84.375C113.188 85.9494 110.438 90.15 110.438 95.375V96.75H107.688V95.375C107.688 90.15 104.938 85.9494 100.943 84.375C101.245 83.851 101.428 83.267 101.479 82.6644C101.531 82.0618 101.449 81.4553 101.239 80.8879C101.03 80.3205 100.699 79.806 100.269 79.3809C99.8383 78.9558 99.3199 78.6306 98.75 78.4281V65.125ZM97.375 80.9375C97.647 80.9375 97.9128 81.0181 98.1389 81.1692C98.365 81.3203 98.5413 81.5351 98.6453 81.7863C98.7494 82.0376 98.7766 82.314 98.7236 82.5808C98.6705 82.8475 98.5396 83.0925 98.3473 83.2848C98.155 83.4771 97.91 83.608 97.6433 83.6611C97.3765 83.7141 97.1001 83.6869 96.8488 83.5828C96.5976 83.4788 96.3828 83.3025 96.2317 83.0764C96.0806 82.8503 96 82.5845 96 82.3125C96 81.9478 96.1449 81.5981 96.4027 81.3402C96.6606 81.0824 97.0103 80.9375 97.375 80.9375Z" fill="black"/>
<path d="M86.375 133.875C86.0103 133.875 85.6606 134.02 85.4027 134.278C85.1449 134.536 85 134.885 85 135.25C85 135.615 85.1449 135.964 85.4027 136.222C85.6606 136.48 86.0103 136.625 86.375 136.625H87.0625V144.875C87.0625 145.969 87.4971 147.018 88.2707 147.792C89.0443 148.565 90.0935 149 91.1875 149H100.538C99.3734 148.234 98.3227 147.308 97.4163 146.25H91.1875C90.8228 146.25 90.4731 146.105 90.2152 145.847C89.9574 145.589 89.8125 145.24 89.8125 144.875V136.625H93.9375C93.9167 135.707 93.958 134.788 94.0613 133.875H89.8125V124.25H97.1894C97.65 123.322 98.1381 122.408 98.6331 121.5H89.8125V111.875H103.418C103.776 110.947 104.106 110.033 104.429 109.125H89.8125V95.375C89.8125 90.2806 93.0644 86.4375 97.375 86.4375C101.686 86.4375 104.938 90.2806 104.938 95.375V96.75H99.4375C99.0728 96.75 98.7231 96.8949 98.4652 97.1527C98.2074 97.4106 98.0625 97.7603 98.0625 98.125C98.0625 98.4897 98.2074 98.8394 98.4652 99.0973C98.7231 99.3551 99.0728 99.5 99.4375 99.5H104.938V107.523C105.233 106.574 105.508 105.626 105.756 104.677C105.934 103.989 106.395 102.209 107.688 101.349V99.5H110.438V101.081C112.17 101.769 112.706 103.934 112.906 104.739C113.002 105.124 113.091 105.488 113.188 105.839V99.5H128.313V121.5H120.702C121.231 122.401 121.747 123.315 122.242 124.25H128.313V133.875H125.466C125.561 134.788 125.587 135.708 125.542 136.625H128.292V144.875C128.292 145.24 128.147 145.589 127.889 145.847C127.631 146.105 127.282 146.25 126.917 146.25H122.022C121.152 147.304 120.139 148.229 119.011 149H170.353C170.712 149.008 171.068 148.942 171.4 148.805C171.732 148.669 172.032 148.465 172.28 148.206C172.529 147.948 172.722 147.64 172.846 147.304C172.969 146.967 173.022 146.608 173 146.25L169.102 77.3763C169.388 77.246 169.62 77.0219 169.761 76.7412C169.902 76.4604 169.942 76.1399 169.875 75.8331C169.809 75.5262 169.639 75.2513 169.395 75.0543C169.15 74.8573 168.845 74.7499 168.531 74.75H161.656C161.34 74.7522 161.034 74.8632 160.791 75.0644C160.547 75.2656 160.38 75.5447 160.318 75.8546C160.255 76.1646 160.302 76.4865 160.449 76.7662C160.597 77.0458 160.836 77.2661 161.127 77.39L157.875 146.25H130.822C130.98 145.809 131.061 145.344 131.063 144.875V143.5H142.75C143.844 143.5 144.893 143.065 145.667 142.292C146.44 141.518 146.875 140.469 146.875 139.375V137.313H152.375C153.104 137.313 153.804 137.023 154.32 136.507C154.835 135.991 155.125 135.292 155.125 134.563V128.375C155.49 128.375 155.839 128.23 156.097 127.972C156.355 127.714 156.5 127.365 156.5 127C156.5 126.635 156.355 126.286 156.097 126.028C155.839 125.77 155.49 125.625 155.125 125.625V120.125C155.49 120.125 155.839 119.98 156.097 119.722C156.355 119.464 156.5 119.115 156.5 118.75C156.5 118.385 156.355 118.036 156.097 117.778C155.839 117.52 155.49 117.375 155.125 117.375V113.938C155.141 113.231 155.019 112.529 154.764 111.87C154.508 111.212 154.126 110.61 153.638 110.099C153.151 109.589 152.567 109.179 151.921 108.894C151.275 108.609 150.579 108.454 149.873 108.438H149.625V65.125C149.625 64.031 149.19 62.9818 148.417 62.2082C147.643 61.4346 146.594 61 145.5 61H100.125C99.031 61 97.9818 61.4346 97.2082 62.2082C96.4346 62.9818 96 64.031 96 65.125V78.4281C95.4301 78.6306 94.9117 78.9558 94.4815 79.3809C94.0513 79.806 93.7198 80.3205 93.5106 80.8879C93.3013 81.4553 93.2194 82.0618 93.2706 82.6644C93.3218 83.267 93.5049 83.851 93.8069 84.375C89.8125 85.9494 87.0625 90.15 87.0625 95.375V109.125H86.375C86.0103 109.125 85.6606 109.27 85.4027 109.528C85.1449 109.786 85 110.135 85 110.5C85 110.865 85.1449 111.214 85.4027 111.472C85.6606 111.73 86.0103 111.875 86.375 111.875H87.0625V121.5H86.375C86.0103 121.5 85.6606 121.645 85.4027 121.903C85.1449 122.161 85 122.51 85 122.875C85 123.24 85.1449 123.589 85.4027 123.847C85.6606 124.105 86.0103 124.25 86.375 124.25H87.0625V133.875H86.375ZM163.87 77.5H166.352L167.438 96.75H162.963L163.87 77.5ZM162.832 99.5H167.596L168.971 124.25H161.67L162.832 99.5ZM161.539 127H169.15L170.25 146.25H160.625L161.539 127ZM128.313 96.75H113.188V95.375C113.188 90.2806 116.439 86.4375 120.75 86.4375C125.061 86.4375 128.313 90.2806 128.313 95.375V96.75ZM119.375 82.3125C119.375 82.0406 119.456 81.7747 119.607 81.5486C119.758 81.3225 119.973 81.1462 120.224 81.0422C120.475 80.9381 120.752 80.9109 121.018 80.9639C121.285 81.017 121.53 81.1479 121.722 81.3402C121.915 81.5325 122.046 81.7775 122.099 82.0443C122.152 82.311 122.124 82.5874 122.02 82.8387C121.916 83.0899 121.74 83.3047 121.514 83.4558C121.288 83.6069 121.022 83.6875 120.75 83.6875C120.385 83.6875 120.036 83.5426 119.778 83.2848C119.52 83.0269 119.375 82.6772 119.375 82.3125ZM144.125 139.375C144.125 139.74 143.98 140.089 143.722 140.347C143.464 140.605 143.115 140.75 142.75 140.75H131.063V136.625H131.75C132.115 136.625 132.464 136.48 132.722 136.222C132.98 135.964 133.125 135.615 133.125 135.25C133.125 134.885 132.98 134.536 132.722 134.278C132.464 134.02 132.115 133.875 131.75 133.875H131.063V124.25H131.75C132.115 124.25 132.464 124.105 132.722 123.847C132.98 123.589 133.125 123.24 133.125 122.875C133.125 122.51 132.98 122.161 132.722 121.903C132.464 121.645 132.115 121.5 131.75 121.5H131.063V99.5H131.75C132.115 99.5 132.464 99.3551 132.722 99.0973C132.98 98.8394 133.125 98.4897 133.125 98.125C133.125 97.7603 132.98 97.4106 132.722 97.1527C132.464 96.8949 132.115 96.75 131.75 96.75H131.063V95.375C131.063 90.15 128.313 85.9494 124.318 84.375C124.62 83.851 124.803 83.267 124.854 82.6644C124.906 82.0618 124.824 81.4553 124.614 80.8879C124.405 80.3205 124.074 79.806 123.644 79.3809C123.213 78.9558 122.695 78.6306 122.125 78.4281V70.625C122.125 70.2603 122.27 69.9106 122.528 69.6527C122.786 69.3949 123.135 69.25 123.5 69.25H140C140.365 69.25 140.714 69.3949 140.972 69.6527C141.23 69.9106 141.375 70.2603 141.375 70.625V108.438H141.128C140.421 108.454 139.725 108.609 139.079 108.894C138.433 109.179 137.85 109.589 137.362 110.099C136.874 110.61 136.492 111.212 136.237 111.87C135.981 112.529 135.859 113.231 135.875 113.938V117.375C135.51 117.375 135.161 117.52 134.903 117.778C134.645 118.036 134.5 118.385 134.5 118.75C134.5 119.115 134.645 119.464 134.903 119.722C135.161 119.98 135.51 120.125 135.875 120.125V125.625C135.51 125.625 135.161 125.77 134.903 126.028C134.645 126.286 134.5 126.635 134.5 127C134.5 127.365 134.645 127.714 134.903 127.972C135.161 128.23 135.51 128.375 135.875 128.375V134.563C135.875 135.292 136.165 135.991 136.68 136.507C137.196 137.023 137.896 137.313 138.625 137.313H144.125V139.375ZM152.375 134.563H138.625V128.375H152.375V134.563ZM152.375 125.625H138.625V120.125H152.375V125.625ZM149.873 111.188C150.568 111.223 151.221 111.532 151.69 112.047C152.159 112.562 152.405 113.242 152.375 113.938V117.375H138.625V113.938C138.595 113.242 138.841 112.562 139.31 112.047C139.779 111.532 140.432 111.223 141.128 111.188H149.873ZM98.75 65.125C98.75 64.7603 98.8949 64.4106 99.1527 64.1527C99.4106 63.8949 99.7603 63.75 100.125 63.75H145.5C145.865 63.75 146.214 63.8949 146.472 64.1527C146.73 64.4106 146.875 64.7603 146.875 65.125V108.438H144.125V70.625C144.125 69.531 143.69 68.4818 142.917 67.7082C142.143 66.9346 141.094 66.5 140 66.5H123.5C122.406 66.5 121.357 66.9346 120.583 67.7082C119.81 68.4818 119.375 69.531 119.375 70.625V78.4281C118.805 78.6306 118.287 78.9558 117.857 79.3809C117.426 79.806 117.095 80.3205 116.886 80.8879C116.676 81.4553 116.594 82.0618 116.646 82.6644C116.697 83.267 116.88 83.851 117.182 84.375C113.188 85.9494 110.438 90.15 110.438 95.375V96.75H107.688V95.375C107.688 90.15 104.938 85.9494 100.943 84.375C101.245 83.851 101.428 83.267 101.479 82.6644C101.531 82.0618 101.449 81.4553 101.239 80.8879C101.03 80.3205 100.699 79.806 100.269 79.3809C99.8383 78.9558 99.3199 78.6306 98.75 78.4281V65.125ZM97.375 80.9375C97.647 80.9375 97.9128 81.0181 98.1389 81.1692C98.365 81.3203 98.5413 81.5351 98.6453 81.7863C98.7494 82.0376 98.7766 82.314 98.7236 82.5808C98.6705 82.8475 98.5396 83.0925 98.3473 83.2848C98.155 83.4771 97.91 83.608 97.6433 83.6611C97.3765 83.7141 97.1001 83.6869 96.8488 83.5828C96.5976 83.4788 96.3828 83.3025 96.2317 83.0764C96.0806 82.8503 96 82.5845 96 82.3125C96 81.9478 96.1449 81.5981 96.4027 81.3402C96.6606 81.0824 97.0103 80.9375 97.375 80.9375Z" fill="url(#paint1_linear_787_1858)"/>
<path d="M86.375 133.875C86.0103 133.875 85.6606 134.02 85.4027 134.278C85.1449 134.536 85 134.885 85 135.25C85 135.615 85.1449 135.964 85.4027 136.222C85.6606 136.48 86.0103 136.625 86.375 136.625H87.0625V144.875C87.0625 145.969 87.4971 147.018 88.2707 147.792C89.0443 148.565 90.0935 149 91.1875 149H100.538C99.3734 148.234 98.3227 147.308 97.4163 146.25H91.1875C90.8228 146.25 90.4731 146.105 90.2152 145.847C89.9574 145.589 89.8125 145.24 89.8125 144.875V136.625H93.9375C93.9167 135.707 93.958 134.788 94.0613 133.875H89.8125V124.25H97.1894C97.65 123.322 98.1381 122.408 98.6331 121.5H89.8125V111.875H103.418C103.776 110.947 104.106 110.033 104.429 109.125H89.8125V95.375C89.8125 90.2806 93.0644 86.4375 97.375 86.4375C101.686 86.4375 104.938 90.2806 104.938 95.375V96.75H99.4375C99.0728 96.75 98.7231 96.8949 98.4652 97.1527C98.2074 97.4106 98.0625 97.7603 98.0625 98.125C98.0625 98.4897 98.2074 98.8394 98.4652 99.0973C98.7231 99.3551 99.0728 99.5 99.4375 99.5H104.938V107.523C105.233 106.574 105.508 105.626 105.756 104.677C105.934 103.989 106.395 102.209 107.688 101.349V99.5H110.438V101.081C112.17 101.769 112.706 103.934 112.906 104.739C113.002 105.124 113.091 105.488 113.188 105.839V99.5H128.313V121.5H120.702C121.231 122.401 121.747 123.315 122.242 124.25H128.313V133.875H125.466C125.561 134.788 125.587 135.708 125.542 136.625H128.292V144.875C128.292 145.24 128.147 145.589 127.889 145.847C127.631 146.105 127.282 146.25 126.917 146.25H122.022C121.152 147.304 120.139 148.229 119.011 149H170.353C170.712 149.008 171.068 148.942 171.4 148.805C171.732 148.669 172.032 148.465 172.28 148.206C172.529 147.948 172.722 147.64 172.846 147.304C172.969 146.967 173.022 146.608 173 146.25L169.102 77.3763C169.388 77.246 169.62 77.0219 169.761 76.7412C169.902 76.4604 169.942 76.1399 169.875 75.8331C169.809 75.5262 169.639 75.2513 169.395 75.0543C169.15 74.8573 168.845 74.7499 168.531 74.75H161.656C161.34 74.7522 161.034 74.8632 160.791 75.0644C160.547 75.2656 160.38 75.5447 160.318 75.8546C160.255 76.1646 160.302 76.4865 160.449 76.7662C160.597 77.0458 160.836 77.2661 161.127 77.39L157.875 146.25H130.822C130.98 145.809 131.061 145.344 131.063 144.875V143.5H142.75C143.844 143.5 144.893 143.065 145.667 142.292C146.44 141.518 146.875 140.469 146.875 139.375V137.313H152.375C153.104 137.313 153.804 137.023 154.32 136.507C154.835 135.991 155.125 135.292 155.125 134.563V128.375C155.49 128.375 155.839 128.23 156.097 127.972C156.355 127.714 156.5 127.365 156.5 127C156.5 126.635 156.355 126.286 156.097 126.028C155.839 125.77 155.49 125.625 155.125 125.625V120.125C155.49 120.125 155.839 119.98 156.097 119.722C156.355 119.464 156.5 119.115 156.5 118.75C156.5 118.385 156.355 118.036 156.097 117.778C155.839 117.52 155.49 117.375 155.125 117.375V113.938C155.141 113.231 155.019 112.529 154.764 111.87C154.508 111.212 154.126 110.61 153.638 110.099C153.151 109.589 152.567 109.179 151.921 108.894C151.275 108.609 150.579 108.454 149.873 108.438H149.625V65.125C149.625 64.031 149.19 62.9818 148.417 62.2082C147.643 61.4346 146.594 61 145.5 61H100.125C99.031 61 97.9818 61.4346 97.2082 62.2082C96.4346 62.9818 96 64.031 96 65.125V78.4281C95.4301 78.6306 94.9117 78.9558 94.4815 79.3809C94.0513 79.806 93.7198 80.3205 93.5106 80.8879C93.3013 81.4553 93.2194 82.0618 93.2706 82.6644C93.3218 83.267 93.5049 83.851 93.8069 84.375C89.8125 85.9494 87.0625 90.15 87.0625 95.375V109.125H86.375C86.0103 109.125 85.6606 109.27 85.4027 109.528C85.1449 109.786 85 110.135 85 110.5C85 110.865 85.1449 111.214 85.4027 111.472C85.6606 111.73 86.0103 111.875 86.375 111.875H87.0625V121.5H86.375C86.0103 121.5 85.6606 121.645 85.4027 121.903C85.1449 122.161 85 122.51 85 122.875C85 123.24 85.1449 123.589 85.4027 123.847C85.6606 124.105 86.0103 124.25 86.375 124.25H87.0625V133.875H86.375ZM163.87 77.5H166.352L167.438 96.75H162.963L163.87 77.5ZM162.832 99.5H167.596L168.971 124.25H161.67L162.832 99.5ZM161.539 127H169.15L170.25 146.25H160.625L161.539 127ZM128.313 96.75H113.188V95.375C113.188 90.2806 116.439 86.4375 120.75 86.4375C125.061 86.4375 128.313 90.2806 128.313 95.375V96.75ZM119.375 82.3125C119.375 82.0406 119.456 81.7747 119.607 81.5486C119.758 81.3225 119.973 81.1462 120.224 81.0422C120.475 80.9381 120.752 80.9109 121.018 80.9639C121.285 81.017 121.53 81.1479 121.722 81.3402C121.915 81.5325 122.046 81.7775 122.099 82.0443C122.152 82.311 122.124 82.5874 122.02 82.8387C121.916 83.0899 121.74 83.3047 121.514 83.4558C121.288 83.6069 121.022 83.6875 120.75 83.6875C120.385 83.6875 120.036 83.5426 119.778 83.2848C119.52 83.0269 119.375 82.6772 119.375 82.3125ZM144.125 139.375C144.125 139.74 143.98 140.089 143.722 140.347C143.464 140.605 143.115 140.75 142.75 140.75H131.063V136.625H131.75C132.115 136.625 132.464 136.48 132.722 136.222C132.98 135.964 133.125 135.615 133.125 135.25C133.125 134.885 132.98 134.536 132.722 134.278C132.464 134.02 132.115 133.875 131.75 133.875H131.063V124.25H131.75C132.115 124.25 132.464 124.105 132.722 123.847C132.98 123.589 133.125 123.24 133.125 122.875C133.125 122.51 132.98 122.161 132.722 121.903C132.464 121.645 132.115 121.5 131.75 121.5H131.063V99.5H131.75C132.115 99.5 132.464 99.3551 132.722 99.0973C132.98 98.8394 133.125 98.4897 133.125 98.125C133.125 97.7603 132.98 97.4106 132.722 97.1527C132.464 96.8949 132.115 96.75 131.75 96.75H131.063V95.375C131.063 90.15 128.313 85.9494 124.318 84.375C124.62 83.851 124.803 83.267 124.854 82.6644C124.906 82.0618 124.824 81.4553 124.614 80.8879C124.405 80.3205 124.074 79.806 123.644 79.3809C123.213 78.9558 122.695 78.6306 122.125 78.4281V70.625C122.125 70.2603 122.27 69.9106 122.528 69.6527C122.786 69.3949 123.135 69.25 123.5 69.25H140C140.365 69.25 140.714 69.3949 140.972 69.6527C141.23 69.9106 141.375 70.2603 141.375 70.625V108.438H141.128C140.421 108.454 139.725 108.609 139.079 108.894C138.433 109.179 137.85 109.589 137.362 110.099C136.874 110.61 136.492 111.212 136.237 111.87C135.981 112.529 135.859 113.231 135.875 113.938V117.375C135.51 117.375 135.161 117.52 134.903 117.778C134.645 118.036 134.5 118.385 134.5 118.75C134.5 119.115 134.645 119.464 134.903 119.722C135.161 119.98 135.51 120.125 135.875 120.125V125.625C135.51 125.625 135.161 125.77 134.903 126.028C134.645 126.286 134.5 126.635 134.5 127C134.5 127.365 134.645 127.714 134.903 127.972C135.161 128.23 135.51 128.375 135.875 128.375V134.563C135.875 135.292 136.165 135.991 136.68 136.507C137.196 137.023 137.896 137.313 138.625 137.313H144.125V139.375ZM152.375 134.563H138.625V128.375H152.375V134.563ZM152.375 125.625H138.625V120.125H152.375V125.625ZM149.873 111.188C150.568 111.223 151.221 111.532 151.69 112.047C152.159 112.562 152.405 113.242 152.375 113.938V117.375H138.625V113.938C138.595 113.242 138.841 112.562 139.31 112.047C139.779 111.532 140.432 111.223 141.128 111.188H149.873ZM98.75 65.125C98.75 64.7603 98.8949 64.4106 99.1527 64.1527C99.4106 63.8949 99.7603 63.75 100.125 63.75H145.5C145.865 63.75 146.214 63.8949 146.472 64.1527C146.73 64.4106 146.875 64.7603 146.875 65.125V108.438H144.125V70.625C144.125 69.531 143.69 68.4818 142.917 67.7082C142.143 66.9346 141.094 66.5 140 66.5H123.5C122.406 66.5 121.357 66.9346 120.583 67.7082C119.81 68.4818 119.375 69.531 119.375 70.625V78.4281C118.805 78.6306 118.287 78.9558 117.857 79.3809C117.426 79.806 117.095 80.3205 116.886 80.8879C116.676 81.4553 116.594 82.0618 116.646 82.6644C116.697 83.267 116.88 83.851 117.182 84.375C113.188 85.9494 110.438 90.15 110.438 95.375V96.75H107.688V95.375C107.688 90.15 104.938 85.9494 100.943 84.375C101.245 83.851 101.428 83.267 101.479 82.6644C101.531 82.0618 101.449 81.4553 101.239 80.8879C101.03 80.3205 100.699 79.806 100.269 79.3809C99.8383 78.9558 99.3199 78.6306 98.75 78.4281V65.125ZM97.375 80.9375C97.647 80.9375 97.9128 81.0181 98.1389 81.1692C98.365 81.3203 98.5413 81.5351 98.6453 81.7863C98.7494 82.0376 98.7766 82.314 98.7236 82.5808C98.6705 82.8475 98.5396 83.0925 98.3473 83.2848C98.155 83.4771 97.91 83.608 97.6433 83.6611C97.3765 83.7141 97.1001 83.6869 96.8488 83.5828C96.5976 83.4788 96.3828 83.3025 96.2317 83.0764C96.0806 82.8503 96 82.5845 96 82.3125C96 81.9478 96.1449 81.5981 96.4027 81.3402C96.6606 81.0824 97.0103 80.9375 97.375 80.9375Z" fill="url(#paint2_linear_787_1858)"/>
<path d="M93.9375 99.5C94.6969 99.5 95.3125 98.8844 95.3125 98.125C95.3125 97.3656 94.6969 96.75 93.9375 96.75C93.1781 96.75 92.5625 97.3656 92.5625 98.125C92.5625 98.8844 93.1781 99.5 93.9375 99.5Z" fill="black"/>
<path d="M93.9375 99.5C94.6969 99.5 95.3125 98.8844 95.3125 98.125C95.3125 97.3656 94.6969 96.75 93.9375 96.75C93.1781 96.75 92.5625 97.3656 92.5625 98.125C92.5625 98.8844 93.1781 99.5 93.9375 99.5Z" fill="url(#paint3_linear_787_1858)"/>
<path d="M124.188 111.875C124.947 111.875 125.562 111.259 125.562 110.5C125.562 109.741 124.947 109.125 124.188 109.125C123.428 109.125 122.812 109.741 122.812 110.5C122.812 111.259 123.428 111.875 124.188 111.875Z" fill="black"/>
<path d="M124.188 111.875C124.947 111.875 125.562 111.259 125.562 110.5C125.562 109.741 124.947 109.125 124.188 109.125C123.428 109.125 122.812 109.741 122.812 110.5C122.812 111.259 123.428 111.875 124.188 111.875Z" fill="url(#paint4_linear_787_1858)"/>
<path d="M166.235 67.2563C166.791 68.5625 167.005 69.2363 166.585 69.745C166.464 69.8833 166.373 70.0444 166.315 70.2188C166.258 70.3932 166.236 70.5773 166.25 70.7603C166.265 70.9433 166.316 71.1215 166.401 71.2844C166.486 71.4473 166.603 71.5915 166.744 71.7086C166.885 71.8257 167.049 71.9133 167.225 71.9662C167.401 72.0191 167.585 72.0362 167.768 72.0166C167.95 71.997 168.127 71.941 168.288 71.852C168.448 71.7629 168.589 71.6426 168.703 71.4981C170.236 69.6419 169.349 67.5588 168.765 66.1769C168.648 65.9088 168.538 65.6406 168.441 65.3863C168.125 64.4994 168.015 64.2038 168.634 63.0006C168.717 62.8399 168.767 62.6645 168.782 62.4844C168.796 62.3044 168.776 62.1231 168.72 61.9511C168.665 61.779 168.577 61.6195 168.46 61.4817C168.343 61.3439 168.2 61.2304 168.039 61.1478C167.879 61.0652 167.703 61.0151 167.523 61.0002C167.343 60.9854 167.162 61.0062 166.99 61.0614C166.818 61.1167 166.658 61.2052 166.52 61.3221C166.383 61.4389 166.269 61.5818 166.186 61.7425C165.107 63.8463 165.368 64.9669 165.856 66.3144C165.966 66.6238 166.125 66.94 166.235 67.2563ZM160.735 67.2563C161.291 68.5625 161.505 69.2363 161.085 69.745C160.964 69.8833 160.873 70.0444 160.815 70.2188C160.758 70.3932 160.736 70.5773 160.75 70.7603C160.765 70.9433 160.816 71.1215 160.901 71.2844C160.986 71.4473 161.103 71.5915 161.244 71.7086C161.385 71.8257 161.549 71.9133 161.725 71.9662C161.901 72.0191 162.085 72.0362 162.268 72.0166C162.45 71.997 162.627 71.941 162.788 71.852C162.948 71.7629 163.089 71.6426 163.203 71.4981C164.736 69.6419 163.849 67.5588 163.265 66.1769C163.148 65.9088 163.038 65.6406 162.941 65.3863C162.625 64.4994 162.515 64.2038 163.134 63.0006C163.301 62.6761 163.332 62.2985 163.22 61.9511C163.109 61.6036 162.864 61.3147 162.539 61.1478C162.215 60.981 161.837 60.9499 161.49 61.0614C161.142 61.173 160.853 61.418 160.686 61.7425C159.607 63.8463 159.868 64.9669 160.356 66.3144C160.466 66.6238 160.625 66.94 160.735 67.2563ZM110.231 105.385C109.942 104.216 109.64 103.625 109.33 103.625C109.021 103.625 108.711 104.203 108.416 105.364C107.618 108.429 106.608 111.434 105.391 114.357C102.276 121.919 96.0615 128.753 96.7352 137.526C97.3196 145.088 103.61 149 109.798 149C114.892 149 119.959 146.388 121.863 141.018C125.782 129.984 116.212 121.617 112.548 112.459C111.593 110.165 110.819 107.8 110.231 105.385ZM119.292 140.063C117.683 144.6 113.338 146.216 109.818 146.216C105.171 146.216 99.9527 143.418 99.5059 137.278C99.1002 132.012 101.665 127.378 104.38 122.463C105.709 120.168 106.904 117.799 107.962 115.368C108.471 114.13 108.938 112.913 109.337 111.71C109.557 112.288 109.784 112.858 110.025 113.443C111.303 116.39 112.82 119.227 114.562 121.926C118.178 127.914 121.609 133.573 119.292 140.063Z" fill="url(#paint5_linear_787_1858)"/>
<path d="M105.481 128.485C105.146 128.343 104.769 128.339 104.431 128.474C104.094 128.609 103.824 128.873 103.68 129.207C103.322 130.046 100.277 137.457 104.099 140.461C104.387 140.686 104.753 140.786 105.115 140.741C105.477 140.696 105.807 140.509 106.031 140.221C106.255 139.933 106.356 139.567 106.311 139.205C106.266 138.843 106.079 138.513 105.79 138.289C104.092 136.969 105.344 132.328 106.21 130.286C106.352 129.951 106.355 129.573 106.218 129.235C106.081 128.897 105.816 128.627 105.481 128.485Z" fill="black"/>
<path d="M105.481 128.485C105.146 128.343 104.769 128.339 104.431 128.474C104.094 128.609 103.824 128.873 103.68 129.207C103.322 130.046 100.277 137.457 104.099 140.461C104.387 140.686 104.753 140.786 105.115 140.741C105.477 140.696 105.807 140.509 106.031 140.221C106.255 139.933 106.356 139.567 106.311 139.205C106.266 138.843 106.079 138.513 105.79 138.289C104.092 136.969 105.344 132.328 106.21 130.286C106.352 129.951 106.355 129.573 106.218 129.235C106.081 128.897 105.816 128.627 105.481 128.485Z" fill="url(#paint6_linear_787_1858)"/>
</g>
</g>
<path d="M69.6987 195.46C70.1787 195.46 70.5187 195.433 70.7187 195.38C70.932 195.313 71.0653 195.207 71.1187 195.06C71.1853 194.913 71.2187 194.673 71.2187 194.34V184.48C71.2187 184.133 71.1853 183.887 71.1187 183.74C71.052 183.593 70.912 183.493 70.6987 183.44C70.4987 183.373 70.1653 183.34 69.6987 183.34V182.8H74.1987C75.6653 182.8 76.8187 183.1 77.6587 183.7C78.512 184.3 78.9387 185.247 78.9387 186.54C78.9387 187.86 78.4987 188.86 77.6187 189.54C76.752 190.22 75.612 190.56 74.1987 190.56H72.6987V194.34C72.6987 194.687 72.732 194.933 72.7987 195.08C72.8653 195.227 73.012 195.327 73.2387 195.38C73.4653 195.433 73.8453 195.46 74.3787 195.46V196H69.6987V195.46ZM73.9787 189.88C75.112 189.88 75.9453 189.627 76.4787 189.12C77.0253 188.613 77.2987 187.8 77.2987 186.68C77.2987 185.56 77.0253 184.747 76.4787 184.24C75.932 183.72 75.0853 183.46 73.9387 183.46C73.4187 183.46 73.0787 183.513 72.9187 183.62C72.772 183.727 72.6987 183.907 72.6987 184.16V189.88H73.9787ZM81.4126 191.4C81.4126 194.267 82.4126 195.7 84.4126 195.7C85.2792 195.7 85.9459 195.473 86.4126 195.02C86.8926 194.553 87.2192 194.007 87.3926 193.38L87.8926 193.54C87.6659 194.353 87.2592 195.007 86.6726 195.5C86.0859 195.993 85.2259 196.24 84.0926 196.24C82.6659 196.24 81.6059 195.82 80.9126 194.98C80.2326 194.14 79.8926 192.967 79.8926 191.46C79.8926 189.9 80.2459 188.673 80.9526 187.78C81.6726 186.873 82.7326 186.42 84.1326 186.42C85.6659 186.42 86.6859 186.893 87.1926 187.84C87.7126 188.787 87.9726 189.927 87.9726 191.26V191.4H81.4126ZM84.1126 186.96C82.4326 186.96 81.5392 188.26 81.4326 190.86H86.4526C86.4526 189.54 86.2659 188.56 85.8926 187.92C85.5326 187.28 84.9392 186.96 84.1126 186.96ZM92.5126 196.22C92.0726 196.22 91.6726 196.093 91.3126 195.84C90.9659 195.573 90.7926 195.053 90.7926 194.28V187.2H89.1526V186.66C89.8859 186.66 90.4659 186.387 90.8926 185.84C91.3192 185.28 91.5859 184.56 91.6926 183.68H92.1126V186.66H94.3726V187.2H92.1126V194.22C92.1126 194.727 92.1792 195.08 92.3126 195.28C92.4592 195.48 92.6526 195.58 92.8926 195.58C93.1192 195.58 93.3659 195.507 93.6326 195.36C93.8992 195.213 94.1059 195.067 94.2526 194.92L94.4726 195.38C94.1392 195.66 93.8392 195.867 93.5726 196C93.3059 196.147 92.9526 196.22 92.5126 196.22ZM100.691 186.42C101.118 186.42 101.458 186.547 101.711 186.8C101.964 187.053 102.091 187.427 102.091 187.92C102.091 188.733 101.744 189.14 101.051 189.14C100.731 189.14 100.491 189.06 100.331 188.9C100.171 188.727 100.091 188.52 100.091 188.28C100.091 188.133 100.118 188.007 100.171 187.9C100.224 187.793 100.304 187.68 100.411 187.56C100.518 187.44 100.571 187.347 100.571 187.28C100.571 187.16 100.478 187.1 100.291 187.1C99.9977 187.1 99.691 187.247 99.371 187.54C99.051 187.833 98.7843 188.227 98.571 188.72C98.371 189.2 98.271 189.707 98.271 190.24V194.34C98.271 194.7 98.2977 194.953 98.351 195.1C98.4043 195.247 98.5243 195.347 98.711 195.4C98.8977 195.44 99.2243 195.46 99.691 195.46V196H95.531V195.46C96.011 195.46 96.3377 195.44 96.511 195.4C96.6977 195.347 96.8177 195.253 96.871 195.12C96.9243 194.973 96.951 194.713 96.951 194.34V188.28C96.951 187.947 96.911 187.727 96.831 187.62C96.751 187.5 96.591 187.44 96.351 187.44H95.611V186.9L97.671 186.54H98.211V188.5H98.231C98.471 188.087 98.6777 187.753 98.851 187.5C99.0377 187.233 99.2843 186.987 99.591 186.76C99.911 186.533 100.278 186.42 100.691 186.42ZM107.002 196.24C105.615 196.24 104.575 195.82 103.882 194.98C103.188 194.127 102.842 192.907 102.842 191.32C102.842 189.747 103.188 188.54 103.882 187.7C104.588 186.847 105.628 186.42 107.002 186.42C108.388 186.42 109.428 186.847 110.122 187.7C110.828 188.54 111.182 189.747 111.182 191.32C111.182 192.907 110.828 194.127 110.122 194.98C109.428 195.82 108.388 196.24 107.002 196.24ZM107.002 195.7C107.895 195.7 108.562 195.32 109.002 194.56C109.442 193.8 109.662 192.72 109.662 191.32C109.662 189.933 109.442 188.86 109.002 188.1C108.562 187.34 107.895 186.96 107.002 186.96C106.122 186.96 105.455 187.34 105.002 188.1C104.562 188.86 104.342 189.933 104.342 191.32C104.342 192.72 104.562 193.8 105.002 194.56C105.455 195.32 106.122 195.7 107.002 195.7ZM117.454 196.24C116.534 196.24 115.748 196.033 115.094 195.62C114.454 195.193 113.968 194.613 113.634 193.88C113.314 193.147 113.154 192.32 113.154 191.4C113.154 190.52 113.308 189.707 113.614 188.96C113.921 188.2 114.401 187.587 115.054 187.12C115.721 186.653 116.568 186.42 117.594 186.42C118.448 186.42 119.188 186.587 119.814 186.92C120.441 187.24 120.754 187.733 120.754 188.4C120.754 188.707 120.681 188.96 120.534 189.16C120.388 189.347 120.148 189.44 119.814 189.44C119.508 189.44 119.268 189.36 119.094 189.2C118.934 189.04 118.854 188.82 118.854 188.54C118.854 188.367 118.881 188.233 118.934 188.14C118.988 188.033 119.068 187.927 119.174 187.82C119.281 187.7 119.334 187.6 119.334 187.52C119.334 187.347 119.188 187.213 118.894 187.12C118.601 187.013 118.248 186.96 117.834 186.96C115.728 186.96 114.674 188.42 114.674 191.34C114.674 192.873 114.941 193.987 115.474 194.68C116.021 195.36 116.754 195.7 117.674 195.7C118.448 195.7 119.054 195.513 119.494 195.14C119.934 194.767 120.241 194.373 120.414 193.96L120.894 194.22C119.614 196.14 119.174 196.807 119.574 196.22C119.974 195.647 119.921 195.507 119.414 195.8C118.921 196.093 118.268 196.24 117.454 196.24ZM130.806 194.34C130.806 194.713 130.833 194.973 130.886 195.12C130.939 195.253 131.053 195.347 131.226 195.4C131.413 195.44 131.746 195.46 132.226 195.46V196H128.066V195.46C128.533 195.46 128.859 195.44 129.046 195.4C129.233 195.347 129.353 195.247 129.406 195.1C129.459 194.953 129.486 194.7 129.486 194.34V189.46C129.486 188.807 129.333 188.267 129.026 187.84C128.733 187.4 128.239 187.18 127.546 187.18C126.986 187.18 126.513 187.327 126.126 187.62C125.753 187.913 125.379 188.34 125.006 188.9V194.34C125.006 194.7 125.033 194.953 125.086 195.1C125.139 195.247 125.259 195.347 125.446 195.4C125.633 195.44 125.959 195.46 126.426 195.46V196H122.266V195.46C122.746 195.46 123.073 195.44 123.246 195.4C123.433 195.347 123.553 195.253 123.606 195.12C123.659 194.973 123.686 194.713 123.686 194.34V183.88C123.686 183.547 123.646 183.327 123.566 183.22C123.486 183.1 123.326 183.04 123.086 183.04H122.346V182.5L124.466 182.14H125.006V188H125.046C125.419 187.453 125.839 187.053 126.306 186.8C126.773 186.547 127.366 186.42 128.086 186.42C129.033 186.42 129.719 186.653 130.146 187.12C130.586 187.573 130.806 188.293 130.806 189.28V194.34ZM135.065 191.4C135.065 194.267 136.065 195.7 138.065 195.7C138.932 195.7 139.598 195.473 140.065 195.02C140.545 194.553 140.872 194.007 141.045 193.38L141.545 193.54C141.318 194.353 140.912 195.007 140.325 195.5C139.738 195.993 138.878 196.24 137.745 196.24C136.318 196.24 135.258 195.82 134.565 194.98C133.885 194.14 133.545 192.967 133.545 191.46C133.545 189.9 133.898 188.673 134.605 187.78C135.325 186.873 136.385 186.42 137.785 186.42C139.318 186.42 140.338 186.893 140.845 187.84C141.365 188.787 141.625 189.927 141.625 191.26V191.4H135.065ZM137.765 186.96C136.085 186.96 135.192 188.26 135.085 190.86H140.105C140.105 189.54 139.918 188.56 139.545 187.92C139.185 187.28 138.592 186.96 137.765 186.96ZM156.945 194.34C156.945 194.713 156.972 194.973 157.025 195.12C157.078 195.253 157.192 195.347 157.365 195.4C157.552 195.44 157.885 195.46 158.365 195.46V196H154.205V195.46C154.685 195.46 155.012 195.44 155.185 195.4C155.372 195.347 155.492 195.253 155.545 195.12C155.598 194.973 155.625 194.713 155.625 194.34V189.46C155.625 187.94 155.065 187.18 153.945 187.18C153.412 187.18 152.952 187.333 152.565 187.64C152.192 187.947 151.832 188.367 151.485 188.9V194.34C151.485 194.713 151.512 194.973 151.565 195.12C151.618 195.253 151.732 195.347 151.905 195.4C152.092 195.44 152.425 195.46 152.905 195.46V196H148.745V195.46C149.225 195.46 149.552 195.44 149.725 195.4C149.912 195.347 150.032 195.253 150.085 195.12C150.138 194.973 150.165 194.713 150.165 194.34V189.46C150.165 187.94 149.605 187.18 148.485 187.18C147.952 187.18 147.492 187.333 147.105 187.64C146.732 187.947 146.372 188.367 146.025 188.9V194.34C146.025 194.7 146.052 194.953 146.105 195.1C146.158 195.247 146.278 195.347 146.465 195.4C146.652 195.44 146.978 195.46 147.445 195.46V196H143.285V195.46C143.765 195.46 144.092 195.44 144.265 195.4C144.452 195.347 144.572 195.253 144.625 195.12C144.678 194.973 144.705 194.713 144.705 194.34V188.28C144.705 187.947 144.665 187.727 144.585 187.62C144.505 187.5 144.345 187.44 144.105 187.44H143.365V186.9L145.425 186.54H145.965V188.1H145.985C146.358 187.54 146.785 187.12 147.265 186.84C147.745 186.56 148.338 186.42 149.045 186.42C150.432 186.42 151.225 186.987 151.425 188.12C151.812 187.56 152.245 187.14 152.725 186.86C153.205 186.567 153.798 186.42 154.505 186.42C155.358 186.42 155.978 186.647 156.365 187.1C156.752 187.553 156.945 188.28 156.945 189.28V194.34ZM161.849 184.52C161.569 184.52 161.335 184.427 161.149 184.24C160.962 184.053 160.869 183.827 160.869 183.56C160.869 183.267 160.955 183.027 161.129 182.84C161.315 182.653 161.555 182.56 161.849 182.56C162.142 182.56 162.375 182.653 162.549 182.84C162.735 183.027 162.829 183.267 162.829 183.56C162.815 183.84 162.715 184.073 162.529 184.26C162.355 184.433 162.129 184.52 161.849 184.52ZM159.809 195.46C160.289 195.46 160.615 195.44 160.789 195.4C160.975 195.347 161.095 195.253 161.149 195.12C161.202 194.973 161.229 194.713 161.229 194.34V188.28C161.229 187.947 161.189 187.727 161.109 187.62C161.029 187.5 160.869 187.44 160.629 187.44H159.889V186.9L162.009 186.54H162.549V194.34C162.549 194.7 162.575 194.953 162.629 195.1C162.682 195.247 162.802 195.347 162.989 195.4C163.175 195.44 163.502 195.46 163.969 195.46V196H159.809V195.46ZM170.15 196.24C169.23 196.24 168.443 196.033 167.79 195.62C167.15 195.193 166.663 194.613 166.33 193.88C166.01 193.147 165.85 192.32 165.85 191.4C165.85 190.52 166.003 189.707 166.31 188.96C166.616 188.2 167.096 187.587 167.75 187.12C168.416 186.653 169.263 186.42 170.29 186.42C171.143 186.42 171.883 186.587 172.51 186.92C173.136 187.24 173.45 187.733 173.45 188.4C173.45 188.707 173.376 188.96 173.23 189.16C173.083 189.347 172.843 189.44 172.51 189.44C172.203 189.44 171.963 189.36 171.79 189.2C171.63 189.04 171.55 188.82 171.55 188.54C171.55 188.367 171.576 188.233 171.63 188.14C171.683 188.033 171.763 187.927 171.87 187.82C171.976 187.7 172.03 187.6 172.03 187.52C172.03 187.347 171.883 187.213 171.59 187.12C171.296 187.013 170.943 186.96 170.53 186.96C168.423 186.96 167.37 188.42 167.37 191.34C167.37 192.873 167.636 193.987 168.17 194.68C168.716 195.36 169.45 195.7 170.37 195.7C171.143 195.7 171.75 195.513 172.19 195.14C172.63 194.767 172.936 194.373 173.11 193.96L173.59 194.22C172.31 196.14 171.87 196.807 172.27 196.22C172.67 195.647 172.616 195.507 172.11 195.8C171.616 196.093 170.963 196.24 170.15 196.24ZM183.621 195.74C183.381 195.873 183.148 195.98 182.921 196.06C182.708 196.153 182.408 196.2 182.021 196.2C181.701 196.2 181.448 196.127 181.261 195.98C181.075 195.82 180.961 195.48 180.921 194.96C180.388 195.4 179.888 195.727 179.421 195.94C178.968 196.14 178.461 196.24 177.901 196.24C177.155 196.24 176.555 196.073 176.101 195.74C175.648 195.393 175.421 194.887 175.421 194.22C175.421 193.273 175.888 192.453 176.821 191.76C177.755 191.067 179.115 190.587 180.901 190.32V189.2C180.901 188.453 180.761 187.893 180.481 187.52C180.201 187.147 179.741 186.96 179.101 186.96C178.755 186.96 178.415 187.013 178.081 187.12C177.761 187.213 177.501 187.34 177.301 187.5C177.115 187.647 177.021 187.78 177.021 187.9C177.021 187.98 177.081 188.067 177.201 188.16C177.335 188.253 177.441 188.347 177.521 188.44C177.601 188.533 177.641 188.687 177.641 188.9C177.641 189.153 177.568 189.36 177.421 189.52C177.288 189.667 177.088 189.74 176.821 189.74C176.541 189.74 176.321 189.653 176.161 189.48C176.001 189.293 175.921 189.04 175.921 188.72C175.921 188.333 176.041 187.967 176.281 187.62C176.521 187.26 176.895 186.973 177.401 186.76C177.921 186.533 178.575 186.42 179.361 186.42C180.321 186.42 181.035 186.627 181.501 187.04C181.981 187.44 182.221 188.127 182.221 189.1V194.04C182.221 194.56 182.275 194.92 182.381 195.12C182.501 195.307 182.688 195.4 182.941 195.4C183.075 195.4 183.261 195.36 183.501 195.28L183.621 195.74ZM176.941 193.88C176.941 194.373 177.081 194.747 177.361 195C177.641 195.24 178.035 195.36 178.541 195.36C178.968 195.36 179.368 195.273 179.741 195.1C180.128 194.927 180.515 194.693 180.901 194.4V190.88C178.261 191.4 176.941 192.4 176.941 193.88ZM184.553 195.46C185.033 195.46 185.359 195.44 185.533 195.4C185.719 195.347 185.839 195.253 185.893 195.12C185.946 194.973 185.973 194.713 185.973 194.34V183.88C185.973 183.547 185.933 183.327 185.853 183.22C185.773 183.1 185.613 183.04 185.373 183.04H184.633V182.5L186.753 182.14H187.293V194.34C187.293 194.7 187.319 194.953 187.373 195.1C187.426 195.247 187.546 195.347 187.733 195.4C187.919 195.44 188.246 195.46 188.713 195.46V196H184.553V195.46Z" fill="#CACACA"/>
<defs>
<linearGradient id="paint0_linear_787_1858" x1="-52.2023" y1="-56.7199" x2="329.276" y2="348.35" gradientUnits="userSpaceOnUse">
<stop stop-color="#FFC10E"/>
<stop offset="1" stop-color="#FFFEFD"/>
</linearGradient>
<linearGradient id="paint1_linear_787_1858" x1="129.002" y1="61" x2="129.539" y2="134.056" gradientUnits="userSpaceOnUse">
<stop stop-color="#FFC10E"/>
<stop offset="1" stop-color="#F8F8F8"/>
</linearGradient>
<linearGradient id="paint2_linear_787_1858" x1="129.324" y1="17.8298" x2="103.139" y2="127.824" gradientUnits="userSpaceOnUse">
<stop stop-color="#FFC10E"/>
<stop offset="1" stop-color="#F8F8F8"/>
</linearGradient>
<linearGradient id="paint3_linear_787_1858" x1="93.9375" y1="96.75" x2="93.9543" y2="99.033" gradientUnits="userSpaceOnUse">
<stop stop-color="#FFC10E"/>
<stop offset="1" stop-color="#F8F8F8"/>
</linearGradient>
<linearGradient id="paint4_linear_787_1858" x1="124.188" y1="109.125" x2="124.204" y2="111.408" gradientUnits="userSpaceOnUse">
<stop stop-color="#FFC10E"/>
<stop offset="1" stop-color="#F8F8F8"/>
</linearGradient>
<linearGradient id="paint5_linear_787_1858" x1="133.386" y1="17.8236" x2="102.52" y2="125.181" gradientUnits="userSpaceOnUse">
<stop stop-color="#FFC10E"/>
<stop offset="1" stop-color="#F8F8F8"/>
</linearGradient>
<linearGradient id="paint6_linear_787_1858" x1="111.128" y1="109.125" x2="111.469" y2="135.377" gradientUnits="userSpaceOnUse">
<stop stop-color="#FFC10E"/>
<stop offset="1" stop-color="#F8F8F8"/>
</linearGradient>
<clipPath id="clip0_787_1858">
<rect width="88" height="88" fill="white" transform="translate(85 61)"/>
</clipPath>
<clipPath id="clip1_787_1858">
<rect width="88" height="88" fill="white" transform="translate(85 61)"/>
</clipPath>
</defs>
</svg>
