<svg width="258" height="258" viewBox="0 0 258 258" fill="none" xmlns="http://www.w3.org/2000/svg">
<rect x="0.5" y="0.5" width="257" height="257" fill="#020202"/>
<rect x="0.5" y="0.5" width="257" height="257" stroke="url(#paint0_linear_787_1869)"/>
<g clip-path="url(#clip0_787_1869)">
<path d="M173.782 100.357H168.662L160.439 70.8017C160.357 70.5089 160.165 70.2483 159.892 70.0619C159.62 69.8755 159.283 69.774 158.937 69.7737H98.9672C98.6202 69.7737 98.2832 69.8751 98.0105 70.0615C97.7378 70.2479 97.5452 70.5086 97.4637 70.8017L89.242 100.364H85.7646C85.3544 100.364 84.9609 100.506 84.6708 100.758C84.3807 101.01 84.2178 101.352 84.2178 101.708V110.68C84.2178 111.037 84.3807 111.378 84.6708 111.63C84.9609 111.882 85.3544 112.024 85.7646 112.024H90.56V117.204C90.56 117.56 90.7229 117.902 91.013 118.154C91.3031 118.406 91.6966 118.548 92.1068 118.548H95.7234V140.048C95.7234 140.404 95.8864 140.746 96.1765 140.998C96.4666 141.25 96.8601 141.392 97.2703 141.392H107.597C108.008 141.392 108.401 141.25 108.691 140.998C108.981 140.746 109.144 140.404 109.144 140.048V133.536C109.144 126.393 118.401 120.581 129.778 120.581C141.155 120.581 150.412 126.393 150.412 133.615V140.038C150.412 140.395 150.575 140.737 150.865 140.989C151.155 141.241 151.548 141.382 151.959 141.382H162.285C162.696 141.382 163.089 141.241 163.379 140.989C163.669 140.737 163.832 140.395 163.832 140.038V118.538H167.451C167.861 118.538 168.254 118.397 168.544 118.145C168.834 117.893 168.997 117.551 168.997 117.195V112.017H173.793C174.203 112.017 174.596 111.876 174.887 111.624C175.177 111.372 175.34 111.03 175.34 110.673V101.701C175.34 101.524 175.299 101.348 175.221 101.185C175.142 101.021 175.027 100.873 174.883 100.748C174.738 100.623 174.566 100.524 174.377 100.457C174.188 100.39 173.986 100.356 173.782 100.357ZM165.48 100.357H161.9L154.141 72.4612H157.718L165.48 100.357ZM126.078 100.357H99.1853L106.395 74.4378L126.078 100.357ZM108.598 72.4612H149.301L128.952 99.2609L108.598 72.4612ZM151.508 74.4378L158.718 100.357H131.826L151.508 74.4378ZM100.185 72.4612H103.763L96.0019 100.357H92.4255L100.185 72.4612ZM93.6491 112.017H111.211V115.854H93.6491V112.017ZM106.046 138.691H98.8125V118.534H106.046V138.691ZM129.773 117.9C120.933 117.9 113.222 121.109 109.139 125.847V118.541H112.758C113.168 118.541 113.561 118.399 113.851 118.147C114.142 117.895 114.305 117.554 114.305 117.197V112.017H145.242V117.197C145.242 117.554 145.405 117.895 145.695 118.147C145.985 118.399 146.379 118.541 146.789 118.541H150.405V125.84C146.325 121.102 138.614 117.9 129.773 117.9ZM160.734 138.691H153.501V118.534H160.734V138.691ZM165.899 115.847H148.336V112.017H165.899V115.847ZM172.241 109.323H87.3115V103.045H172.235L172.241 109.323Z" fill="url(#paint1_linear_787_1869)"/>
</g>
<path d="M99.2202 195.46C99.7002 195.46 100.04 195.433 100.24 195.38C100.453 195.313 100.587 195.207 100.64 195.06C100.707 194.913 100.74 194.673 100.74 194.34V184.48C100.74 184.133 100.707 183.887 100.64 183.74C100.573 183.593 100.433 183.493 100.22 183.44C100.02 183.373 99.6868 183.34 99.2202 183.34V182.8H103.72C105.187 182.8 106.34 183.1 107.18 183.7C108.033 184.3 108.46 185.247 108.46 186.54C108.46 187.86 108.02 188.86 107.14 189.54C106.273 190.22 105.133 190.56 103.72 190.56H102.22V194.34C102.22 194.687 102.253 194.933 102.32 195.08C102.387 195.227 102.533 195.327 102.76 195.38C102.987 195.433 103.367 195.46 103.9 195.46V196H99.2202V195.46ZM103.5 189.88C104.633 189.88 105.467 189.627 106 189.12C106.547 188.613 106.82 187.8 106.82 186.68C106.82 185.56 106.547 184.747 106 184.24C105.453 183.72 104.607 183.46 103.46 183.46C102.94 183.46 102.6 183.513 102.44 183.62C102.293 183.727 102.22 183.907 102.22 184.16V189.88H103.5ZM113.574 196.24C112.187 196.24 111.147 195.82 110.454 194.98C109.761 194.127 109.414 192.907 109.414 191.32C109.414 189.747 109.761 188.54 110.454 187.7C111.161 186.847 112.201 186.42 113.574 186.42C114.961 186.42 116.001 186.847 116.694 187.7C117.401 188.54 117.754 189.747 117.754 191.32C117.754 192.907 117.401 194.127 116.694 194.98C116.001 195.82 114.961 196.24 113.574 196.24ZM113.574 195.7C114.467 195.7 115.134 195.32 115.574 194.56C116.014 193.8 116.234 192.72 116.234 191.32C116.234 189.933 116.014 188.86 115.574 188.1C115.134 187.34 114.467 186.96 113.574 186.96C112.694 186.96 112.027 187.34 111.574 188.1C111.134 188.86 110.914 189.933 110.914 191.32C110.914 192.72 111.134 193.8 111.574 194.56C112.027 195.32 112.694 195.7 113.574 195.7ZM124.627 186.42C125.053 186.42 125.393 186.547 125.647 186.8C125.9 187.053 126.027 187.427 126.027 187.92C126.027 188.733 125.68 189.14 124.987 189.14C124.667 189.14 124.427 189.06 124.267 188.9C124.107 188.727 124.027 188.52 124.027 188.28C124.027 188.133 124.053 188.007 124.107 187.9C124.16 187.793 124.24 187.68 124.347 187.56C124.453 187.44 124.507 187.347 124.507 187.28C124.507 187.16 124.413 187.1 124.227 187.1C123.933 187.1 123.627 187.247 123.307 187.54C122.987 187.833 122.72 188.227 122.507 188.72C122.307 189.2 122.207 189.707 122.207 190.24V194.34C122.207 194.7 122.233 194.953 122.287 195.1C122.34 195.247 122.46 195.347 122.647 195.4C122.833 195.44 123.16 195.46 123.627 195.46V196H119.467V195.46C119.947 195.46 120.273 195.44 120.447 195.4C120.633 195.347 120.753 195.253 120.807 195.12C120.86 194.973 120.887 194.713 120.887 194.34V188.28C120.887 187.947 120.847 187.727 120.767 187.62C120.687 187.5 120.527 187.44 120.287 187.44H119.547V186.9L121.607 186.54H122.147V188.5H122.167C122.407 188.087 122.613 187.753 122.787 187.5C122.973 187.233 123.22 186.987 123.527 186.76C123.847 186.533 124.213 186.42 124.627 186.42ZM129.593 196.22C129.153 196.22 128.753 196.093 128.393 195.84C128.046 195.573 127.873 195.053 127.873 194.28V187.2H126.233V186.66C126.966 186.66 127.546 186.387 127.973 185.84C128.399 185.28 128.666 184.56 128.773 183.68H129.193V186.66H131.453V187.2H129.193V194.22C129.193 194.727 129.259 195.08 129.393 195.28C129.539 195.48 129.733 195.58 129.973 195.58C130.199 195.58 130.446 195.507 130.713 195.36C130.979 195.213 131.186 195.067 131.333 194.92L131.553 195.38C131.219 195.66 130.919 195.867 130.653 196C130.386 196.147 130.033 196.22 129.593 196.22ZM136.351 196.22C135.964 196.22 135.644 196.187 135.391 196.12C135.138 196.053 134.878 195.967 134.611 195.86C134.318 195.74 134.104 195.68 133.971 195.68C133.838 195.68 133.738 195.707 133.671 195.76C133.618 195.813 133.564 195.913 133.511 196.06H133.131L132.911 192.76H133.251C133.504 193.773 133.878 194.513 134.371 194.98C134.878 195.447 135.504 195.68 136.251 195.68C136.891 195.68 137.418 195.527 137.831 195.22C138.244 194.9 138.451 194.467 138.451 193.92C138.451 193.293 138.224 192.827 137.771 192.52C137.318 192.213 136.718 191.94 135.971 191.7L135.411 191.52C134.664 191.28 134.091 190.987 133.691 190.64C133.291 190.28 133.091 189.773 133.091 189.12C133.091 188.307 133.391 187.653 133.991 187.16C134.591 186.667 135.371 186.42 136.331 186.42C136.638 186.42 136.884 186.44 137.071 186.48C137.271 186.52 137.484 186.58 137.711 186.66C137.951 186.74 138.111 186.78 138.191 186.78C138.324 186.78 138.411 186.753 138.451 186.7C138.504 186.633 138.538 186.573 138.551 186.52C138.578 186.467 138.591 186.433 138.591 186.42H138.911L139.051 189.36H138.711C138.551 188.587 138.298 187.993 137.951 187.58C137.618 187.167 137.091 186.96 136.371 186.96C135.744 186.96 135.231 187.113 134.831 187.42C134.431 187.727 134.231 188.12 134.231 188.6C134.231 189.08 134.424 189.48 134.811 189.8C135.211 190.107 135.671 190.333 136.191 190.48L136.671 190.62C137.711 190.927 138.471 191.287 138.951 191.7C139.431 192.113 139.671 192.673 139.671 193.38C139.671 194.233 139.358 194.92 138.731 195.44C138.118 195.96 137.324 196.22 136.351 196.22ZM155.904 194.04C156.291 194.387 156.764 194.713 157.324 195.02C157.884 195.313 158.444 195.46 159.004 195.46V196H158.144C157.411 196 156.791 195.927 156.284 195.78C155.791 195.62 155.344 195.367 154.944 195.02C153.904 195.833 152.557 196.24 150.904 196.24C149.451 196.24 148.324 195.94 147.524 195.34C146.737 194.74 146.344 193.94 146.344 192.94C146.344 192.073 146.611 191.34 147.144 190.74C147.677 190.14 148.411 189.56 149.344 189C148.677 188.253 148.237 187.633 148.024 187.14C147.824 186.633 147.724 186.173 147.724 185.76C147.724 184.667 148.037 183.86 148.664 183.34C149.291 182.82 150.084 182.56 151.044 182.56C152.004 182.56 152.784 182.8 153.384 183.28C153.984 183.76 154.284 184.387 154.284 185.16C154.284 185.72 154.124 186.213 153.804 186.64C153.497 187.067 153.137 187.42 152.724 187.7C152.311 187.98 151.751 188.313 151.044 188.7L155.464 193.56C155.837 193.133 156.124 192.653 156.324 192.12C156.524 191.587 156.624 191.067 156.624 190.56C156.624 190.253 156.524 190.007 156.324 189.82C156.124 189.62 155.691 189.52 155.024 189.52V189H158.924V189.52C158.484 189.52 158.151 189.56 157.924 189.64C157.711 189.72 157.564 189.827 157.484 189.96C157.417 190.093 157.364 190.273 157.324 190.5C157.217 191.1 157.057 191.7 156.844 192.3C156.644 192.9 156.331 193.48 155.904 194.04ZM151.144 183.1C150.504 183.1 149.991 183.287 149.604 183.66C149.231 184.02 149.044 184.52 149.044 185.16C149.044 185.667 149.171 186.16 149.424 186.64C149.677 187.107 150.071 187.64 150.604 188.24C151.551 187.667 152.197 187.173 152.544 186.76C152.904 186.333 153.084 185.807 153.084 185.18C153.084 184.487 152.911 183.967 152.564 183.62C152.217 183.273 151.744 183.1 151.144 183.1ZM147.904 192.46C147.904 193.313 148.244 194 148.924 194.52C149.617 195.027 150.497 195.28 151.564 195.28C152.631 195.28 153.577 195.013 154.404 194.48L149.784 189.48C148.531 190.387 147.904 191.38 147.904 192.46ZM71.2319 219.46C71.7385 219.46 72.0919 219.433 72.2919 219.38C72.4919 219.313 72.6185 219.207 72.6719 219.06C72.7252 218.9 72.7519 218.62 72.7519 218.22V208.58C72.7519 208.18 72.7252 207.907 72.6719 207.76C72.6185 207.6 72.4919 207.493 72.2919 207.44C72.0919 207.373 71.7385 207.34 71.2319 207.34V206.8H75.7519V207.34C75.2452 207.34 74.8919 207.373 74.6919 207.44C74.4919 207.493 74.3652 207.6 74.3119 207.76C74.2585 207.907 74.2319 208.18 74.2319 208.58V218.22C74.2319 218.62 74.2585 218.9 74.3119 219.06C74.3652 219.207 74.4919 219.313 74.6919 219.38C74.8919 219.433 75.2452 219.46 75.7519 219.46V220H71.2319V219.46ZM85.8777 218.34C85.8777 218.713 85.9043 218.973 85.9577 219.12C86.011 219.253 86.1243 219.347 86.2977 219.4C86.4843 219.44 86.8177 219.46 87.2977 219.46V220H83.1377V219.46C83.6043 219.46 83.931 219.44 84.1177 219.4C84.3043 219.347 84.4243 219.247 84.4777 219.1C84.531 218.953 84.5577 218.7 84.5577 218.34V213.46C84.5577 212.807 84.4043 212.267 84.0977 211.84C83.8043 211.4 83.311 211.18 82.6177 211.18C82.0577 211.18 81.5843 211.327 81.1977 211.62C80.8243 211.913 80.451 212.34 80.0777 212.9V218.34C80.0777 218.7 80.1043 218.953 80.1577 219.1C80.211 219.247 80.331 219.347 80.5177 219.4C80.7043 219.44 81.031 219.46 81.4977 219.46V220H77.3377V219.46C77.8177 219.46 78.1443 219.44 78.3177 219.4C78.5043 219.347 78.6243 219.253 78.6777 219.12C78.731 218.973 78.7577 218.713 78.7577 218.34V212.28C78.7577 211.947 78.7177 211.727 78.6377 211.62C78.5577 211.5 78.3977 211.44 78.1577 211.44H77.4177V210.9L79.4777 210.54H80.0177V212.1H80.0377C80.4377 211.513 80.871 211.087 81.3377 210.82C81.8177 210.553 82.4243 210.42 83.1577 210.42C84.1043 210.42 84.791 210.653 85.2177 211.12C85.6577 211.573 85.8777 212.293 85.8777 213.28V218.34ZM88.7044 219.46C89.1844 219.46 89.511 219.44 89.6844 219.4C89.871 219.347 89.991 219.253 90.0444 219.12C90.0977 218.973 90.1244 218.713 90.1244 218.34V211.32H88.6644V210.66H90.1244V209.36C90.1244 208.28 90.3444 207.433 90.7844 206.82C91.2244 206.207 91.931 205.9 92.9044 205.9C93.6244 205.9 94.1644 206.06 94.5244 206.38C94.8977 206.687 95.0844 207.087 95.0844 207.58C95.0844 207.86 95.0044 208.093 94.8444 208.28C94.6844 208.467 94.4777 208.56 94.2244 208.56C93.971 208.56 93.7644 208.487 93.6044 208.34C93.4577 208.193 93.3844 207.993 93.3844 207.74C93.3844 207.593 93.4044 207.48 93.4444 207.4C93.4977 207.32 93.571 207.227 93.6644 207.12C93.7577 207.013 93.8044 206.913 93.8044 206.82C93.8044 206.727 93.7244 206.64 93.5644 206.56C93.4044 206.48 93.2177 206.44 93.0044 206.44C92.5377 206.44 92.1577 206.633 91.8644 207.02C91.5844 207.393 91.4444 207.94 91.4444 208.66V210.66H93.6644V211.32H91.4444V218.36C91.4444 218.72 91.4777 218.973 91.5444 219.12C91.611 219.253 91.7577 219.347 91.9844 219.4C92.2244 219.44 92.6444 219.46 93.2444 219.46V220H88.7044V219.46ZM99.9 210.42C100.327 210.42 100.667 210.547 100.92 210.8C101.173 211.053 101.3 211.427 101.3 211.92C101.3 212.733 100.953 213.14 100.26 213.14C99.94 213.14 99.7 213.06 99.54 212.9C99.38 212.727 99.3 212.52 99.3 212.28C99.3 212.133 99.3267 212.007 99.38 211.9C99.4333 211.793 99.5133 211.68 99.62 211.56C99.7267 211.44 99.78 211.347 99.78 211.28C99.78 211.16 99.6867 211.1 99.5 211.1C99.2067 211.1 98.9 211.247 98.58 211.54C98.26 211.833 97.9933 212.227 97.78 212.72C97.58 213.2 97.48 213.707 97.48 214.24V218.34C97.48 218.7 97.5067 218.953 97.56 219.1C97.6133 219.247 97.7333 219.347 97.92 219.4C98.1067 219.44 98.4333 219.46 98.9 219.46V220H94.74V219.46C95.22 219.46 95.5467 219.44 95.72 219.4C95.9067 219.347 96.0267 219.253 96.08 219.12C96.1333 218.973 96.16 218.713 96.16 218.34V212.28C96.16 211.947 96.12 211.727 96.04 211.62C95.96 211.5 95.8 211.44 95.56 211.44H94.82V210.9L96.88 210.54H97.42V212.5H97.44C97.68 212.087 97.8867 211.753 98.06 211.5C98.2467 211.233 98.4933 210.987 98.8 210.76C99.12 210.533 99.4867 210.42 99.9 210.42ZM110.701 219.74C110.461 219.873 110.228 219.98 110.001 220.06C109.788 220.153 109.488 220.2 109.101 220.2C108.781 220.2 108.528 220.127 108.341 219.98C108.155 219.82 108.041 219.48 108.001 218.96C107.468 219.4 106.968 219.727 106.501 219.94C106.048 220.14 105.541 220.24 104.981 220.24C104.235 220.24 103.635 220.073 103.181 219.74C102.728 219.393 102.501 218.887 102.501 218.22C102.501 217.273 102.968 216.453 103.901 215.76C104.835 215.067 106.195 214.587 107.981 214.32V213.2C107.981 212.453 107.841 211.893 107.561 211.52C107.281 211.147 106.821 210.96 106.181 210.96C105.835 210.96 105.495 211.013 105.161 211.12C104.841 211.213 104.581 211.34 104.381 211.5C104.195 211.647 104.101 211.78 104.101 211.9C104.101 211.98 104.161 212.067 104.281 212.16C104.415 212.253 104.521 212.347 104.601 212.44C104.681 212.533 104.721 212.687 104.721 212.9C104.721 213.153 104.648 213.36 104.501 213.52C104.368 213.667 104.168 213.74 103.901 213.74C103.621 213.74 103.401 213.653 103.241 213.48C103.081 213.293 103.001 213.04 103.001 212.72C103.001 212.333 103.121 211.967 103.361 211.62C103.601 211.26 103.975 210.973 104.481 210.76C105.001 210.533 105.655 210.42 106.441 210.42C107.401 210.42 108.115 210.627 108.581 211.04C109.061 211.44 109.301 212.127 109.301 213.1V218.04C109.301 218.56 109.355 218.92 109.461 219.12C109.581 219.307 109.768 219.4 110.021 219.4C110.155 219.4 110.341 219.36 110.581 219.28L110.701 219.74ZM104.021 217.88C104.021 218.373 104.161 218.747 104.441 219C104.721 219.24 105.115 219.36 105.621 219.36C106.048 219.36 106.448 219.273 106.821 219.1C107.208 218.927 107.595 218.693 107.981 218.4V214.88C105.341 215.4 104.021 216.4 104.021 217.88ZM115.453 220.22C115.066 220.22 114.746 220.187 114.493 220.12C114.239 220.053 113.979 219.967 113.713 219.86C113.419 219.74 113.206 219.68 113.073 219.68C112.939 219.68 112.839 219.707 112.773 219.76C112.719 219.813 112.666 219.913 112.613 220.06H112.233L112.013 216.76H112.353C112.606 217.773 112.979 218.513 113.473 218.98C113.979 219.447 114.606 219.68 115.353 219.68C115.993 219.68 116.519 219.527 116.933 219.22C117.346 218.9 117.553 218.467 117.553 217.92C117.553 217.293 117.326 216.827 116.873 216.52C116.419 216.213 115.819 215.94 115.073 215.7L114.513 215.52C113.766 215.28 113.193 214.987 112.793 214.64C112.393 214.28 112.193 213.773 112.193 213.12C112.193 212.307 112.493 211.653 113.093 211.16C113.693 210.667 114.473 210.42 115.433 210.42C115.739 210.42 115.986 210.44 116.173 210.48C116.373 210.52 116.586 210.58 116.813 210.66C117.053 210.74 117.213 210.78 117.293 210.78C117.426 210.78 117.513 210.753 117.553 210.7C117.606 210.633 117.639 210.573 117.653 210.52C117.679 210.467 117.693 210.433 117.693 210.42H118.013L118.153 213.36H117.813C117.653 212.587 117.399 211.993 117.053 211.58C116.719 211.167 116.193 210.96 115.473 210.96C114.846 210.96 114.333 211.113 113.933 211.42C113.533 211.727 113.333 212.12 113.333 212.6C113.333 213.08 113.526 213.48 113.913 213.8C114.313 214.107 114.773 214.333 115.293 214.48L115.773 214.62C116.813 214.927 117.573 215.287 118.053 215.7C118.533 216.113 118.773 216.673 118.773 217.38C118.773 218.233 118.459 218.92 117.833 219.44C117.219 219.96 116.426 220.22 115.453 220.22ZM123.382 220.22C122.942 220.22 122.542 220.093 122.182 219.84C121.835 219.573 121.662 219.053 121.662 218.28V211.2H120.022V210.66C120.755 210.66 121.335 210.387 121.762 209.84C122.188 209.28 122.455 208.56 122.562 207.68H122.982V210.66H125.242V211.2H122.982V218.22C122.982 218.727 123.048 219.08 123.182 219.28C123.328 219.48 123.522 219.58 123.762 219.58C123.988 219.58 124.235 219.507 124.502 219.36C124.768 219.213 124.975 219.067 125.122 218.92L125.342 219.38C125.008 219.66 124.708 219.867 124.442 220C124.175 220.147 123.822 220.22 123.382 220.22ZM131.56 210.42C131.987 210.42 132.327 210.547 132.58 210.8C132.833 211.053 132.96 211.427 132.96 211.92C132.96 212.733 132.613 213.14 131.92 213.14C131.6 213.14 131.36 213.06 131.2 212.9C131.04 212.727 130.96 212.52 130.96 212.28C130.96 212.133 130.987 212.007 131.04 211.9C131.093 211.793 131.173 211.68 131.28 211.56C131.387 211.44 131.44 211.347 131.44 211.28C131.44 211.16 131.347 211.1 131.16 211.1C130.867 211.1 130.56 211.247 130.24 211.54C129.92 211.833 129.653 212.227 129.44 212.72C129.24 213.2 129.14 213.707 129.14 214.24V218.34C129.14 218.7 129.167 218.953 129.22 219.1C129.273 219.247 129.393 219.347 129.58 219.4C129.767 219.44 130.093 219.46 130.56 219.46V220H126.4V219.46C126.88 219.46 127.207 219.44 127.38 219.4C127.567 219.347 127.687 219.253 127.74 219.12C127.793 218.973 127.82 218.713 127.82 218.34V212.28C127.82 211.947 127.78 211.727 127.7 211.62C127.62 211.5 127.46 211.44 127.22 211.44H126.48V210.9L128.54 210.54H129.08V212.5H129.1C129.34 212.087 129.547 211.753 129.72 211.5C129.907 211.233 130.153 210.987 130.46 210.76C130.78 210.533 131.147 210.42 131.56 210.42ZM142.026 218.34C142.026 218.713 142.053 218.973 142.106 219.12C142.16 219.253 142.273 219.347 142.446 219.4C142.633 219.44 142.966 219.46 143.446 219.46V220H140.726V218.58H140.686C140.313 219.127 139.88 219.54 139.386 219.82C138.906 220.1 138.3 220.24 137.566 220.24C136.66 220.24 135.986 220.007 135.546 219.54C135.12 219.073 134.906 218.353 134.906 217.38V212.28C134.906 211.947 134.866 211.727 134.786 211.62C134.706 211.5 134.546 211.44 134.306 211.44H133.566V210.9L135.686 210.54H136.226V217.2C136.226 217.867 136.373 218.413 136.666 218.84C136.96 219.267 137.446 219.48 138.126 219.48C138.686 219.48 139.166 219.333 139.566 219.04C139.966 218.733 140.34 218.307 140.686 217.76L140.706 212.28C140.706 211.947 140.666 211.727 140.586 211.62C140.506 211.5 140.346 211.44 140.106 211.44H139.366V210.9L141.486 210.54H142.026V218.34ZM149.632 220.24C148.712 220.24 147.925 220.033 147.272 219.62C146.632 219.193 146.145 218.613 145.812 217.88C145.492 217.147 145.332 216.32 145.332 215.4C145.332 214.52 145.485 213.707 145.792 212.96C146.099 212.2 146.579 211.587 147.232 211.12C147.899 210.653 148.745 210.42 149.772 210.42C150.625 210.42 151.365 210.587 151.992 210.92C152.619 211.24 152.932 211.733 152.932 212.4C152.932 212.707 152.859 212.96 152.712 213.16C152.565 213.347 152.325 213.44 151.992 213.44C151.685 213.44 151.445 213.36 151.272 213.2C151.112 213.04 151.032 212.82 151.032 212.54C151.032 212.367 151.059 212.233 151.112 212.14C151.165 212.033 151.245 211.927 151.352 211.82C151.459 211.7 151.512 211.6 151.512 211.52C151.512 211.347 151.365 211.213 151.072 211.12C150.779 211.013 150.425 210.96 150.012 210.96C147.905 210.96 146.852 212.42 146.852 215.34C146.852 216.873 147.119 217.987 147.652 218.68C148.199 219.36 148.932 219.7 149.852 219.7C150.625 219.7 151.232 219.513 151.672 219.14C152.112 218.767 152.419 218.373 152.592 217.96L153.072 218.22C151.792 220.14 151.352 220.807 151.752 220.22C152.152 219.647 152.099 219.507 151.592 219.8C151.099 220.093 150.445 220.24 149.632 220.24ZM157.464 220.22C157.024 220.22 156.624 220.093 156.264 219.84C155.917 219.573 155.744 219.053 155.744 218.28V211.2H154.104V210.66C154.837 210.66 155.417 210.387 155.844 209.84C156.27 209.28 156.537 208.56 156.644 207.68H157.064V210.66H159.324V211.2H157.064V218.22C157.064 218.727 157.13 219.08 157.264 219.28C157.41 219.48 157.604 219.58 157.844 219.58C158.07 219.58 158.317 219.507 158.584 219.36C158.85 219.213 159.057 219.067 159.204 218.92L159.424 219.38C159.09 219.66 158.79 219.867 158.524 220C158.257 220.147 157.904 220.22 157.464 220.22ZM168.862 218.34C168.862 218.713 168.889 218.973 168.942 219.12C168.996 219.253 169.109 219.347 169.282 219.4C169.469 219.44 169.802 219.46 170.282 219.46V220H167.562V218.58H167.522C167.149 219.127 166.716 219.54 166.222 219.82C165.742 220.1 165.136 220.24 164.402 220.24C163.496 220.24 162.822 220.007 162.382 219.54C161.956 219.073 161.742 218.353 161.742 217.38V212.28C161.742 211.947 161.702 211.727 161.622 211.62C161.542 211.5 161.382 211.44 161.142 211.44H160.402V210.9L162.522 210.54H163.062V217.2C163.062 217.867 163.209 218.413 163.502 218.84C163.796 219.267 164.282 219.48 164.962 219.48C165.522 219.48 166.002 219.333 166.402 219.04C166.802 218.733 167.176 218.307 167.522 217.76L167.542 212.28C167.542 211.947 167.502 211.727 167.422 211.62C167.342 211.5 167.182 211.44 166.942 211.44H166.202V210.9L168.322 210.54H168.862V218.34ZM176.677 210.42C177.104 210.42 177.444 210.547 177.697 210.8C177.951 211.053 178.077 211.427 178.077 211.92C178.077 212.733 177.731 213.14 177.037 213.14C176.717 213.14 176.477 213.06 176.317 212.9C176.157 212.727 176.077 212.52 176.077 212.28C176.077 212.133 176.104 212.007 176.157 211.9C176.211 211.793 176.291 211.68 176.397 211.56C176.504 211.44 176.557 211.347 176.557 211.28C176.557 211.16 176.464 211.1 176.277 211.1C175.984 211.1 175.677 211.247 175.357 211.54C175.037 211.833 174.771 212.227 174.557 212.72C174.357 213.2 174.257 213.707 174.257 214.24V218.34C174.257 218.7 174.284 218.953 174.337 219.1C174.391 219.247 174.511 219.347 174.697 219.4C174.884 219.44 175.211 219.46 175.677 219.46V220H171.517V219.46C171.997 219.46 172.324 219.44 172.497 219.4C172.684 219.347 172.804 219.253 172.857 219.12C172.911 218.973 172.937 218.713 172.937 218.34V212.28C172.937 211.947 172.897 211.727 172.817 211.62C172.737 211.5 172.577 211.44 172.337 211.44H171.597V210.9L173.657 210.54H174.197V212.5H174.217C174.457 212.087 174.664 211.753 174.837 211.5C175.024 211.233 175.271 210.987 175.577 210.76C175.897 210.533 176.264 210.42 176.677 210.42ZM180.348 215.4C180.348 218.267 181.348 219.7 183.348 219.7C184.215 219.7 184.881 219.473 185.348 219.02C185.828 218.553 186.155 218.007 186.328 217.38L186.828 217.54C186.601 218.353 186.195 219.007 185.608 219.5C185.021 219.993 184.161 220.24 183.028 220.24C181.601 220.24 180.541 219.82 179.848 218.98C179.168 218.14 178.828 216.967 178.828 215.46C178.828 213.9 179.181 212.673 179.888 211.78C180.608 210.873 181.668 210.42 183.068 210.42C184.601 210.42 185.621 210.893 186.128 211.84C186.648 212.787 186.908 213.927 186.908 215.26V215.4H180.348ZM183.048 210.96C181.368 210.96 180.475 212.26 180.368 214.86H185.388C185.388 213.54 185.201 212.56 184.828 211.92C184.468 211.28 183.875 210.96 183.048 210.96Z" fill="#CACACA"/>
<defs>
<linearGradient id="paint0_linear_787_1869" x1="-52.2023" y1="-56.7199" x2="329.276" y2="348.35" gradientUnits="userSpaceOnUse">
<stop stop-color="#FFC10E"/>
<stop offset="1" stop-color="#FFFEFD"/>
</linearGradient>
<linearGradient id="paint1_linear_787_1869" x1="130.111" y1="34.6404" x2="113.011" y2="126.03" gradientUnits="userSpaceOnUse">
<stop stop-color="#FFC10E"/>
<stop offset="1" stop-color="#F8F8F8"/>
</linearGradient>
<clipPath id="clip0_787_1869">
<rect width="99" height="86" fill="white" transform="translate(79.5 62)"/>
</clipPath>
</defs>
</svg>
