<svg width="258" height="258" viewBox="0 0 258 258" fill="none" xmlns="http://www.w3.org/2000/svg">
<rect x="0.5" y="0.5" width="257" height="257" fill="#020202"/>
<rect x="0.5" y="0.5" width="257" height="257" stroke="url(#paint0_linear_787_1843)"/>
<g clip-path="url(#clip0_787_1843)">
<path fill-rule="evenodd" clip-rule="evenodd" d="M94.4833 64.2C94.459 64.2 94.4391 64.2128 94.4148 64.2128C92.9643 64.2329 91.5801 64.8029 90.5607 65.7998C89.5414 66.7967 88.9686 68.1407 88.9658 69.5418C88.9658 69.8247 89.0822 70.096 89.2893 70.2961C89.4964 70.4961 89.7773 70.6085 90.0702 70.6085H97.7964V120.733C97.7964 123.675 100.275 126.067 103.318 126.067H145.289C146.62 126.063 147.905 125.595 148.907 124.748C149.908 123.901 149.803 122.941 149.983 121.667C149.365 121.667 147.802 121.821 149.707 121.459L148.602 116.475C148.602 116.192 149.5 117.067 149.292 116.867C149.085 116.667 149.999 115.408 149.707 115.408H144.18V71.6666C144.18 67.5493 140.713 64.2 136.45 64.2H94.4833ZM98.8699 66.3333H136.45C139.493 66.3333 141.972 68.7248 141.972 71.6666V115.408H107.74C107.447 115.408 107.166 115.521 106.959 115.721C106.752 115.921 106.636 116.192 106.636 116.475V120.733C106.636 122.498 105.149 123.933 103.323 123.933C101.496 123.933 100.01 122.498 100.01 120.733L100.005 120.708V69.5674L100.01 69.5418C100.01 68.3344 99.5745 67.2293 98.8699 66.3333ZM94.4877 66.3418C95.9278 66.3418 97.1537 67.2336 97.6109 68.4752H91.3645C91.8217 67.2336 93.0476 66.3418 94.4877 66.3418ZM108.845 117.542H148.602V120.733C148.602 122.498 147.116 123.933 145.289 123.933H107.709C108.412 123.039 108.845 121.939 108.845 120.733V117.542Z" fill="url(#paint1_linear_787_1843)"/>
<path d="M164.385 97.8157C164.385 97.8157 140.966 94.0326 122.774 98.5363C104.582 103.04 115.208 145.911 100.438 159.782H146.012C156.64 156.36 155.919 121.594 164.385 97.8157Z" fill="#020202" stroke="black" stroke-width="0.360269"/>
<path d="M158.119 95.1348L122.757 95.2628C120.802 95.2628 118.913 95.9348 117.423 97.1614C115.17 99.0281 109.968 104.575 110.178 115.625C110.222 118.623 110.112 121.044 109.824 123.241C108.146 135.583 104.689 142.793 100.338 143.039C99.7635 143.071 99.3107 143.54 99.3328 144.105C99.3549 144.66 99.8298 145.108 100.404 145.108H137.909C139.002 145.108 140.051 144.735 140.868 144.052C142.205 142.953 144.115 140.959 145.882 137.641L158.925 137.663C165.143 137.663 170.013 128.329 170.013 116.404C170.002 104.863 164.557 95.1348 158.119 95.1348ZM139.455 142.473C139.024 142.836 138.483 143.028 137.898 143.028H104.954C108.963 139.209 110.951 130.804 111.945 123.508C112.254 121.204 112.364 118.687 112.32 115.593C112.133 105.417 116.804 100.404 118.814 98.7294C119.907 97.8228 121.31 97.3321 122.757 97.3321L153.392 97.2148C149.98 100.511 147.826 107.465 147.815 116.351V116.372C147.705 123.935 146.203 132.255 144.248 136.148C142.47 139.689 140.482 141.631 139.455 142.473ZM146.821 135.572C147.749 133.193 148.544 129.993 149.096 126.452C150.189 130.452 151.934 133.641 154.077 135.583L146.821 135.572ZM158.914 135.583C154.066 135.583 149.968 126.793 149.968 116.393C149.968 105.631 153.558 97.2041 158.13 97.2041C162.724 97.2041 167.87 105.417 167.87 116.393C167.859 126.793 163.762 135.583 158.914 135.583Z" fill="url(#paint2_linear_787_1843)"/>
<path d="M158.592 107.283C155.754 107.283 154.263 111.859 154.263 116.381C154.263 120.904 155.754 125.48 158.592 125.48C161.43 125.48 162.921 120.904 162.921 116.381C162.921 111.869 161.43 107.283 158.592 107.283ZM158.592 123.421C157.94 123.421 156.405 121.032 156.405 116.392C156.405 111.752 157.94 109.352 158.592 109.352C159.243 109.352 160.779 111.741 160.779 116.392C160.779 121.032 159.243 123.421 158.592 123.421Z" fill="url(#paint3_linear_787_1843)"/>
</g>
<path d="M74.103 195.46C74.583 195.46 74.923 195.433 75.123 195.38C75.3363 195.313 75.4696 195.207 75.523 195.06C75.5896 194.913 75.623 194.673 75.623 194.34V184.48C75.623 184.133 75.5896 183.887 75.523 183.74C75.4563 183.593 75.3163 183.493 75.103 183.44C74.903 183.373 74.5696 183.34 74.103 183.34V182.8H78.603C80.0696 182.8 81.223 183.1 82.063 183.7C82.9163 184.3 83.343 185.247 83.343 186.54C83.343 187.86 82.903 188.86 82.023 189.54C81.1563 190.22 80.0163 190.56 78.603 190.56H77.103V194.34C77.103 194.687 77.1363 194.933 77.203 195.08C77.2696 195.227 77.4163 195.327 77.643 195.38C77.8696 195.433 78.2496 195.46 78.783 195.46V196H74.103V195.46ZM78.383 189.88C79.5163 189.88 80.3496 189.627 80.883 189.12C81.4296 188.613 81.703 187.8 81.703 186.68C81.703 185.56 81.4296 184.747 80.883 184.24C80.3363 183.72 79.4896 183.46 78.343 183.46C77.823 183.46 77.483 183.513 77.323 183.62C77.1763 183.727 77.103 183.907 77.103 184.16V189.88H78.383ZM93.2177 194.34C93.2177 194.713 93.2443 194.973 93.2977 195.12C93.351 195.253 93.4643 195.347 93.6377 195.4C93.8243 195.44 94.1577 195.46 94.6377 195.46V196H91.9177V194.58H91.8777C91.5043 195.127 91.071 195.54 90.5777 195.82C90.0977 196.1 89.491 196.24 88.7577 196.24C87.851 196.24 87.1777 196.007 86.7377 195.54C86.311 195.073 86.0977 194.353 86.0977 193.38V188.28C86.0977 187.947 86.0577 187.727 85.9777 187.62C85.8977 187.5 85.7377 187.44 85.4977 187.44H84.7577V186.9L86.8777 186.54H87.4177V193.2C87.4177 193.867 87.5643 194.413 87.8577 194.84C88.151 195.267 88.6377 195.48 89.3177 195.48C89.8777 195.48 90.3577 195.333 90.7577 195.04C91.1577 194.733 91.531 194.307 91.8777 193.76L91.8977 188.28C91.8977 187.947 91.8577 187.727 91.7777 187.62C91.6977 187.5 91.5377 187.44 91.2977 187.44H90.5577V186.9L92.6777 186.54H93.2177V194.34ZM96.1834 195.46C96.6634 195.46 96.9901 195.44 97.1634 195.4C97.3501 195.347 97.4701 195.253 97.5234 195.12C97.5768 194.973 97.6034 194.713 97.6034 194.34V183.88C97.6034 183.547 97.5634 183.327 97.4834 183.22C97.4034 183.1 97.2434 183.04 97.0034 183.04H96.2634V182.5L98.3834 182.14H98.9234V194.34C98.9234 194.7 98.9501 194.953 99.0034 195.1C99.0568 195.247 99.1768 195.347 99.3634 195.4C99.5501 195.44 99.8768 195.46 100.343 195.46V196H96.1834V195.46ZM107.312 186.42C108.526 186.42 109.439 186.82 110.052 187.62C110.666 188.42 110.972 189.6 110.972 191.16C110.972 192.907 110.619 194.193 109.912 195.02C109.206 195.833 108.252 196.24 107.052 196.24C106.012 196.24 105.126 195.913 104.392 195.26V198.34C104.392 198.7 104.419 198.953 104.472 199.1C104.526 199.247 104.646 199.34 104.832 199.38C105.019 199.433 105.346 199.46 105.812 199.46V200H101.652V199.46C102.132 199.46 102.459 199.433 102.632 199.38C102.819 199.34 102.939 199.247 102.992 199.1C103.046 198.967 103.072 198.713 103.072 198.34V188.28C103.072 187.947 103.032 187.727 102.952 187.62C102.872 187.5 102.712 187.44 102.472 187.44H101.732V186.9L103.812 186.54H104.352V187.42H104.392C104.712 187.14 105.112 186.907 105.592 186.72C106.086 186.52 106.659 186.42 107.312 186.42ZM106.852 195.72C107.692 195.72 108.332 195.367 108.772 194.66C109.226 193.953 109.452 192.827 109.452 191.28C109.452 189.893 109.252 188.827 108.852 188.08C108.466 187.333 107.839 186.96 106.972 186.96C106.106 186.96 105.246 187.34 104.392 188.1V194.54C105.099 195.327 105.919 195.72 106.852 195.72ZM127.193 194.04C127.58 194.387 128.053 194.713 128.613 195.02C129.173 195.313 129.733 195.46 130.293 195.46V196H129.433C128.7 196 128.08 195.927 127.573 195.78C127.08 195.62 126.633 195.367 126.233 195.02C125.193 195.833 123.846 196.24 122.193 196.24C120.74 196.24 119.613 195.94 118.813 195.34C118.026 194.74 117.633 193.94 117.633 192.94C117.633 192.073 117.9 191.34 118.433 190.74C118.966 190.14 119.7 189.56 120.633 189C119.966 188.253 119.526 187.633 119.313 187.14C119.113 186.633 119.013 186.173 119.013 185.76C119.013 184.667 119.326 183.86 119.953 183.34C120.58 182.82 121.373 182.56 122.333 182.56C123.293 182.56 124.073 182.8 124.673 183.28C125.273 183.76 125.573 184.387 125.573 185.16C125.573 185.72 125.413 186.213 125.093 186.64C124.786 187.067 124.426 187.42 124.013 187.7C123.6 187.98 123.04 188.313 122.333 188.7L126.753 193.56C127.126 193.133 127.413 192.653 127.613 192.12C127.813 191.587 127.913 191.067 127.913 190.56C127.913 190.253 127.813 190.007 127.613 189.82C127.413 189.62 126.98 189.52 126.313 189.52V189H130.213V189.52C129.773 189.52 129.44 189.56 129.213 189.64C129 189.72 128.853 189.827 128.773 189.96C128.706 190.093 128.653 190.273 128.613 190.5C128.506 191.1 128.346 191.7 128.133 192.3C127.933 192.9 127.62 193.48 127.193 194.04ZM122.433 183.1C121.793 183.1 121.28 183.287 120.893 183.66C120.52 184.02 120.333 184.52 120.333 185.16C120.333 185.667 120.46 186.16 120.713 186.64C120.966 187.107 121.36 187.64 121.893 188.24C122.84 187.667 123.486 187.173 123.833 186.76C124.193 186.333 124.373 185.807 124.373 185.18C124.373 184.487 124.2 183.967 123.853 183.62C123.506 183.273 123.033 183.1 122.433 183.1ZM119.193 192.46C119.193 193.313 119.533 194 120.213 194.52C120.906 195.027 121.786 195.28 122.853 195.28C123.92 195.28 124.866 195.013 125.693 194.48L121.073 189.48C119.82 190.387 119.193 191.38 119.193 192.46ZM137.033 195.46C137.513 195.46 137.853 195.433 138.053 195.38C138.266 195.313 138.399 195.207 138.453 195.06C138.519 194.913 138.553 194.673 138.553 194.34V184.48C138.553 184.133 138.519 183.887 138.453 183.74C138.386 183.593 138.246 183.493 138.033 183.44C137.833 183.373 137.499 183.34 137.033 183.34V182.8H141.533C142.999 182.8 144.153 183.1 144.993 183.7C145.846 184.3 146.273 185.247 146.273 186.54C146.273 187.86 145.833 188.86 144.953 189.54C144.086 190.22 142.946 190.56 141.533 190.56H140.033V194.34C140.033 194.687 140.066 194.933 140.133 195.08C140.199 195.227 140.346 195.327 140.573 195.38C140.799 195.433 141.179 195.46 141.713 195.46V196H137.033V195.46ZM141.313 189.88C142.446 189.88 143.279 189.627 143.813 189.12C144.359 188.613 144.633 187.8 144.633 186.68C144.633 185.56 144.359 184.747 143.813 184.24C143.266 183.72 142.419 183.46 141.273 183.46C140.753 183.46 140.413 183.513 140.253 183.62C140.106 183.727 140.033 183.907 140.033 184.16V189.88H141.313ZM156.287 195.74C156.047 195.873 155.814 195.98 155.587 196.06C155.374 196.153 155.074 196.2 154.687 196.2C154.367 196.2 154.114 196.127 153.927 195.98C153.741 195.82 153.627 195.48 153.587 194.96C153.054 195.4 152.554 195.727 152.087 195.94C151.634 196.14 151.127 196.24 150.567 196.24C149.821 196.24 149.221 196.073 148.767 195.74C148.314 195.393 148.087 194.887 148.087 194.22C148.087 193.273 148.554 192.453 149.487 191.76C150.421 191.067 151.781 190.587 153.567 190.32V189.2C153.567 188.453 153.427 187.893 153.147 187.52C152.867 187.147 152.407 186.96 151.767 186.96C151.421 186.96 151.081 187.013 150.747 187.12C150.427 187.213 150.167 187.34 149.967 187.5C149.781 187.647 149.687 187.78 149.687 187.9C149.687 187.98 149.747 188.067 149.867 188.16C150.001 188.253 150.107 188.347 150.187 188.44C150.267 188.533 150.307 188.687 150.307 188.9C150.307 189.153 150.234 189.36 150.087 189.52C149.954 189.667 149.754 189.74 149.487 189.74C149.207 189.74 148.987 189.653 148.827 189.48C148.667 189.293 148.587 189.04 148.587 188.72C148.587 188.333 148.707 187.967 148.947 187.62C149.187 187.26 149.561 186.973 150.067 186.76C150.587 186.533 151.241 186.42 152.027 186.42C152.987 186.42 153.701 186.627 154.167 187.04C154.647 187.44 154.887 188.127 154.887 189.1V194.04C154.887 194.56 154.941 194.92 155.047 195.12C155.167 195.307 155.354 195.4 155.607 195.4C155.741 195.4 155.927 195.36 156.167 195.28L156.287 195.74ZM149.607 193.88C149.607 194.373 149.747 194.747 150.027 195C150.307 195.24 150.701 195.36 151.207 195.36C151.634 195.36 152.034 195.273 152.407 195.1C152.794 194.927 153.181 194.693 153.567 194.4V190.88C150.927 191.4 149.607 192.4 149.607 193.88ZM162.879 186.42C164.092 186.42 165.005 186.82 165.619 187.62C166.232 188.42 166.539 189.6 166.539 191.16C166.539 192.907 166.185 194.193 165.479 195.02C164.772 195.833 163.819 196.24 162.619 196.24C161.579 196.24 160.692 195.913 159.959 195.26V198.34C159.959 198.7 159.985 198.953 160.039 199.1C160.092 199.247 160.212 199.34 160.399 199.38C160.585 199.433 160.912 199.46 161.379 199.46V200H157.219V199.46C157.699 199.46 158.025 199.433 158.199 199.38C158.385 199.34 158.505 199.247 158.559 199.1C158.612 198.967 158.639 198.713 158.639 198.34V188.28C158.639 187.947 158.599 187.727 158.519 187.62C158.439 187.5 158.279 187.44 158.039 187.44H157.299V186.9L159.379 186.54H159.919V187.42H159.959C160.279 187.14 160.679 186.907 161.159 186.72C161.652 186.52 162.225 186.42 162.879 186.42ZM162.419 195.72C163.259 195.72 163.899 195.367 164.339 194.66C164.792 193.953 165.019 192.827 165.019 191.28C165.019 189.893 164.819 188.827 164.419 188.08C164.032 187.333 163.405 186.96 162.539 186.96C161.672 186.96 160.812 187.34 159.959 188.1V194.54C160.665 195.327 161.485 195.72 162.419 195.72ZM170.036 191.4C170.036 194.267 171.036 195.7 173.036 195.7C173.902 195.7 174.569 195.473 175.036 195.02C175.516 194.553 175.842 194.007 176.016 193.38L176.516 193.54C176.289 194.353 175.882 195.007 175.296 195.5C174.709 195.993 173.849 196.24 172.716 196.24C171.289 196.24 170.229 195.82 169.536 194.98C168.856 194.14 168.516 192.967 168.516 191.46C168.516 189.9 168.869 188.673 169.576 187.78C170.296 186.873 171.356 186.42 172.756 186.42C174.289 186.42 175.309 186.893 175.816 187.84C176.336 188.787 176.596 189.927 176.596 191.26V191.4H170.036ZM172.736 186.96C171.056 186.96 170.162 188.26 170.056 190.86H175.076C175.076 189.54 174.889 188.56 174.516 187.92C174.156 187.28 173.562 186.96 172.736 186.96ZM183.416 186.42C183.842 186.42 184.182 186.547 184.436 186.8C184.689 187.053 184.816 187.427 184.816 187.92C184.816 188.733 184.469 189.14 183.776 189.14C183.456 189.14 183.216 189.06 183.056 188.9C182.896 188.727 182.816 188.52 182.816 188.28C182.816 188.133 182.842 188.007 182.896 187.9C182.949 187.793 183.029 187.68 183.136 187.56C183.242 187.44 183.296 187.347 183.296 187.28C183.296 187.16 183.202 187.1 183.016 187.1C182.722 187.1 182.416 187.247 182.096 187.54C181.776 187.833 181.509 188.227 181.296 188.72C181.096 189.2 180.996 189.707 180.996 190.24V194.34C180.996 194.7 181.022 194.953 181.076 195.1C181.129 195.247 181.249 195.347 181.436 195.4C181.622 195.44 181.949 195.46 182.416 195.46V196H178.256V195.46C178.736 195.46 179.062 195.44 179.236 195.4C179.422 195.347 179.542 195.253 179.596 195.12C179.649 194.973 179.676 194.713 179.676 194.34V188.28C179.676 187.947 179.636 187.727 179.556 187.62C179.476 187.5 179.316 187.44 179.076 187.44H178.336V186.9L180.396 186.54H180.936V188.5H180.956C181.196 188.087 181.402 187.753 181.576 187.5C181.762 187.233 182.009 186.987 182.316 186.76C182.636 186.533 183.002 186.42 183.416 186.42Z" fill="#CACACA"/>
<defs>
<linearGradient id="paint0_linear_787_1843" x1="-52.2023" y1="-56.7199" x2="329.276" y2="348.35" gradientUnits="userSpaceOnUse">
<stop stop-color="#FFC10E"/>
<stop offset="1" stop-color="#FFFEFD"/>
</linearGradient>
<linearGradient id="paint1_linear_787_1843" x1="119.697" y1="33.8503" x2="101.059" y2="111.062" gradientUnits="userSpaceOnUse">
<stop stop-color="#FFC10E"/>
<stop offset="1" stop-color="#F8F8F8"/>
</linearGradient>
<linearGradient id="paint2_linear_787_1843" x1="134.672" y1="95.1348" x2="134.888" y2="136.622" gradientUnits="userSpaceOnUse">
<stop stop-color="#FFC10E"/>
<stop offset="1" stop-color="#F8F8F8"/>
</linearGradient>
<linearGradient id="paint3_linear_787_1843" x1="158.623" y1="98.3557" x2="149.006" y2="117.578" gradientUnits="userSpaceOnUse">
<stop stop-color="#FFC10E"/>
<stop offset="1" stop-color="#F8F8F8"/>
</linearGradient>
<clipPath id="clip0_787_1843">
<rect width="82" height="88" fill="white" transform="translate(88 61)"/>
</clipPath>
</defs>
</svg>
