<svg width="126" height="126" viewBox="0 0 126 126" fill="none" xmlns="http://www.w3.org/2000/svg">
<path d="M99.7501 88.7251C106.13 87.4297 111.8 83.8101 115.661 78.5688C119.522 73.3276 121.298 66.8388 120.644 60.362C119.989 53.8852 116.952 47.8826 112.121 43.5193C107.29 39.1561 101.01 36.7436 94.5001 36.7501H87.8851C86.1458 30.016 82.7613 23.8193 78.0356 18.7163C73.3099 13.6133 67.3909 9.76369 60.81 7.51319C54.229 5.26268 47.1923 4.6817 40.3313 5.8224C33.4704 6.9631 27.0002 9.78977 21.5015 14.0486C16.0029 18.3075 11.6479 23.8652 8.82767 30.2228C6.00741 36.5805 4.81014 43.5389 5.34334 50.4736C5.87655 57.4082 8.12354 64.1018 11.8826 69.9536C15.6416 75.8053 20.795 80.6319 26.8801 84.0001" stroke="#E1B40F" stroke-opacity="0.6" stroke-width="1.5" stroke-linecap="round" stroke-linejoin="round"/>
<path d="M68.25 57.75L47.25 89.25H78.75L57.75 120.75" stroke="#E1B40F" stroke-opacity="0.6" stroke-width="1.5" stroke-linecap="round" stroke-linejoin="round"/>
</svg>
