<svg width="18" height="23" viewBox="0 0 18 23" fill="none" xmlns="http://www.w3.org/2000/svg">
<g opacity="0.6">
<path d="M17 9.71502C17 16.0787 9 21.5332 9 21.5332C9 21.5332 1 16.0787 1 9.71502C1 7.54507 1.84285 5.46399 3.34315 3.9296C4.84344 2.39521 6.87827 1.5332 9 1.5332C11.1217 1.5332 13.1566 2.39521 14.6569 3.9296C16.1571 5.46399 17 7.54507 17 9.71502Z" stroke="#8D8D8D" stroke-width="1.5" stroke-linecap="round" stroke-linejoin="round"/>
<path d="M9 12.6554C10.6569 12.6554 12 11.2971 12 9.62164C12 7.94615 10.6569 6.58789 9 6.58789C7.34315 6.58789 6 7.94615 6 9.62164C6 11.2971 7.34315 12.6554 9 12.6554Z" stroke="#8D8D8D" stroke-width="1.5" stroke-linecap="round" stroke-linejoin="round"/>
</g>
</svg>
