<svg width="23" height="24" viewBox="0 0 23 24" fill="none" xmlns="http://www.w3.org/2000/svg">
<path fill-rule="evenodd" clip-rule="evenodd" d="M11.5 0.75C8.4445 0.75 8.062 0.76275 6.862 0.8175C5.66425 0.87225 4.846 1.06275 4.1305 1.341C3.3805 1.623 2.70025 2.0655 2.13775 2.6385C1.56567 3.20035 1.12289 3.88012 0.84025 4.6305C0.5635 5.346 0.37225 6.165 0.3175 7.36275C0.2635 8.562 0.25 8.94375 0.25 12C0.25 15.0562 0.26275 15.438 0.3175 16.638C0.37225 17.8358 0.56275 18.654 0.841 19.3695C1.123 20.1195 1.5655 20.7997 2.1385 21.3622C2.70037 21.9343 3.38013 22.3771 4.1305 22.6597C4.846 22.9373 5.66425 23.1278 6.862 23.1825C8.062 23.2372 8.4445 23.25 11.5 23.25C14.5555 23.25 14.938 23.2372 16.138 23.1825C17.3358 23.1278 18.154 22.9373 18.8695 22.659C19.6195 22.377 20.2997 21.9345 20.8622 21.3615C21.4343 20.7997 21.8771 20.1199 22.1597 19.3695C22.4373 18.654 22.6278 17.8358 22.6825 16.638C22.7372 15.438 22.75 15.0555 22.75 12C22.75 8.9445 22.7372 8.562 22.6825 7.362C22.6278 6.16425 22.4373 5.346 22.159 4.6305C21.8766 3.8798 21.4338 3.19974 20.8615 2.63775C20.2997 2.06567 19.6199 1.62289 18.8695 1.34025C18.154 1.0635 17.335 0.87225 16.1373 0.8175C14.938 0.7635 14.5562 0.75 11.5 0.75ZM11.5 2.77725C14.5037 2.77725 14.86 2.7885 16.0465 2.8425C17.143 2.89275 17.7385 3.075 18.1353 3.23025C18.6602 3.4335 19.0352 3.678 19.429 4.071C19.8228 4.46475 20.0665 4.83975 20.2698 5.36475C20.4242 5.7615 20.6073 6.357 20.6575 7.4535C20.7115 8.64 20.7228 8.99625 20.7228 12C20.7228 15.0037 20.7115 15.36 20.6575 16.5465C20.6073 17.643 20.425 18.2385 20.2698 18.6353C20.0897 19.1239 19.8024 19.566 19.429 19.929C19.0661 20.3025 18.624 20.5898 18.1353 20.7698C17.7385 20.9242 17.143 21.1073 16.0465 21.1575C14.86 21.2115 14.5045 21.2228 11.5 21.2228C8.4955 21.2228 8.14 21.2115 6.9535 21.1575C5.857 21.1073 5.2615 20.925 4.86475 20.7698C4.37609 20.5897 3.934 20.3024 3.571 19.929C3.19763 19.566 2.91035 19.1239 2.73025 18.6353C2.57575 18.2385 2.39275 17.643 2.3425 16.5465C2.2885 15.36 2.27725 15.0037 2.27725 12C2.27725 8.99625 2.2885 8.64 2.3425 7.4535C2.39275 6.357 2.575 5.7615 2.73025 5.36475C2.9335 4.83975 3.178 4.46475 3.571 4.071C3.93396 3.69753 4.37606 3.41023 4.86475 3.23025C5.2615 3.07575 5.857 2.89275 6.9535 2.8425C8.14 2.7885 8.49625 2.77725 11.5 2.77725Z" fill="white"/>
</svg>
