<svg width="126" height="126" viewBox="0 0 126 126" fill="none" xmlns="http://www.w3.org/2000/svg">
<rect x="0.75" y="113.75" width="124.5" height="10.5" stroke="#E1B40F" stroke-opacity="0.6" stroke-width="1.5"/>
<path fill-rule="evenodd" clip-rule="evenodd" d="M50.0334 13.0976C48.9251 13.9757 47.5238 14.5 46 14.5C42.4101 14.5 39.5 11.5899 39.5 8C39.5 4.41015 42.4101 1.5 46 1.5C49.5899 1.5 52.5 4.41015 52.5 8C52.5 9.96167 51.631 11.7204 50.257 12.9122L50 13L50.0334 13.0976ZM50.5422 14.5864C49.2519 15.4779 47.6869 16 46 16C44.1167 16 42.3854 15.3492 41.0187 14.2603L19.5002 53.3848C21.6129 54.8248 23 57.2504 23 60C23 64.4183 19.4183 68 15 68C10.5817 68 7 64.4183 7 60C7 55.5817 10.5817 52 15 52C16.1327 52 17.2105 52.2354 18.187 52.66L39.9019 13.1784C38.7157 11.7829 38 9.97502 38 8C38 3.58172 41.5817 0 46 0C50.4183 0 54 3.58172 54 8C54 10.1509 53.1511 12.1036 51.7702 13.5412L78.0884 90.5464C78.9907 90.1936 79.9727 90 81 90C83.1618 90 85.1233 90.8574 86.563 92.2508L105.815 71.074C104.681 69.6933 104 67.9261 104 66C104 61.5817 107.582 58 112 58C116.418 58 120 61.5817 120 66C120 70.4183 116.418 74 112 74C110.049 74 108.261 73.3014 106.872 72.1407L87.5458 93.3996C88.462 94.7009 89 96.2876 89 98C89 102.418 85.4183 106 81 106C76.5817 106 73 102.418 73 98C73 95.1489 74.4914 92.6462 76.7366 91.2294L50.5422 14.5864ZM15 66.5C18.5899 66.5 21.5 63.5899 21.5 60C21.5 56.4101 18.5899 53.5 15 53.5C11.4101 53.5 8.5 56.4101 8.5 60C8.5 63.5899 11.4101 66.5 15 66.5ZM81 104.5C84.5899 104.5 87.5 101.59 87.5 98C87.5 94.4101 84.5899 91.5 81 91.5C77.4101 91.5 74.5 94.4101 74.5 98C74.5 101.59 77.4101 104.5 81 104.5ZM118.5 66C118.5 69.5899 115.59 72.5 112 72.5C108.41 72.5 105.5 69.5899 105.5 66C105.5 62.4101 108.41 59.5 112 59.5C115.59 59.5 118.5 62.4101 118.5 66Z" fill="#E1B40F" fill-opacity="0.6"/>
</svg>
