<svg width="114" height="114" viewBox="0 0 114 114" fill="none" xmlns="http://www.w3.org/2000/svg">
<path d="M96.4444 87.7898H86.5657C86.3753 87.8055 86.1861 87.7473 86.0373 87.6274C85.8885 87.5074 85.7915 87.3348 85.7664 87.1453C85.7181 86.5457 85.7875 85.9994 86.5658 85.9684H89.786C90.2949 85.9723 90.7994 85.8754 91.2707 85.6832C91.7419 85.4911 92.1704 85.2077 92.5316 84.8491C92.8928 84.4906 93.1794 84.0642 93.3751 83.5943C93.5707 83.1245 93.6714 82.6206 93.6714 82.1116C93.6714 81.6027 93.5706 81.0988 93.375 80.629C93.1794 80.1592 92.8927 79.7327 92.5315 79.3742C92.1703 79.0157 91.7418 78.7322 91.2706 78.5401C90.7993 78.348 90.2947 78.2511 89.7859 78.255H67.1936V64.7686C81.3218 67.9775 97.012 54.6687 89.0878 40.8076L73.3273 13.7901C73.1892 13.5528 72.9913 13.356 72.7533 13.2192C72.5153 13.0824 72.2456 13.0105 71.9711 13.0107C71.0945 13.0078 69.9306 12.8566 69.4474 13.7902L64.7366 21.8656H51.5356V15.9075C51.5357 15.7012 51.4951 15.4968 51.4161 15.3062C51.3372 15.1155 51.2215 14.9423 51.0756 14.7964C50.9297 14.6505 50.7565 14.5347 50.5659 14.4558C50.3752 14.3769 50.1709 14.3363 49.9646 14.3363H34.0673C33.861 14.3363 33.6567 14.3769 33.4661 14.4558C33.2755 14.5347 33.1022 14.6505 32.9564 14.7964C32.8105 14.9423 32.6947 15.1155 32.6158 15.3062C32.5369 15.4968 32.4963 15.7012 32.4963 15.9075V21.8656H17.4827C16.4269 21.8669 15.4146 22.287 14.668 23.0338C13.9213 23.7805 13.5013 24.7929 13.5 25.8489V27.1931C13.5024 28.1359 13.8394 29.0473 14.4509 29.7648C15.0624 30.4824 15.9088 30.9595 16.8392 31.1113V45.7471C16.8428 55.6253 16.8366 82.211 16.8392 91.723C15.9071 91.8844 15.0617 92.3692 14.4516 93.0923C13.8416 93.8155 13.506 94.7305 13.5038 95.6766V96.944C13.5051 98.011 13.9293 99.0338 14.6836 99.7884C15.4378 100.543 16.4605 100.967 17.5273 100.969H64.8047C64.8548 100.982 64.9056 100.992 64.9568 100.999H77.3791C78.4056 101.017 79.397 100.626 80.1361 99.9132C80.8751 99.2005 81.3016 98.2239 81.3219 97.1973C81.3452 97.0068 81.442 96.8331 81.5916 96.713C81.7412 96.5929 81.9318 96.5359 82.1227 96.5544H96.4444C97.4728 96.5739 98.467 96.1847 99.209 95.4723C99.951 94.7598 100.38 93.7821 100.403 92.7536C100.535 92.1592 100.532 91.5428 100.395 90.9495C100.258 90.3561 99.99 89.8011 99.6104 89.325C99.2308 88.8489 98.7493 88.4639 98.2015 88.1983C97.6536 87.9326 97.0532 87.793 96.4444 87.7898ZM53.6873 40.8078C53.0711 41.8693 52.5823 42.9998 52.231 44.1759H19.9812V31.1764H59.3055L53.6873 40.8078ZM19.9812 91.6534V78.6417H64.0516C64.1062 78.9055 64.0122 90.9326 64.0517 91.6535L19.9812 91.6534ZM64.0515 75.4992H19.9812V47.3183H51.6626C51.0372 54.9229 56.8052 61.6316 64.0516 63.964L64.0515 75.4992ZM71.388 16.6993L86.3755 42.3913C92.0819 52.3169 82.1189 62.4147 71.388 62.0437C60.6598 62.4159 50.6896 52.3154 56.4014 42.3911L71.388 16.6993ZM35.6384 17.4787H48.3936V21.8656H35.6384V17.4787ZM16.642 25.8489C16.6408 25.7382 16.6618 25.6283 16.7036 25.5258C16.7454 25.4232 16.8073 25.33 16.8856 25.2517C16.9639 25.1734 17.0571 25.1115 17.1596 25.0697C17.2622 25.0278 17.372 25.0069 17.4827 25.0081H62.9036L61.1386 28.0339H17.4827C16.363 28.0275 16.6812 26.561 16.642 25.8489ZM16.6459 96.944C16.6819 96.2017 16.3808 94.815 17.5273 94.7959H18.3949C18.3877 94.804 65.6217 94.7965 65.6225 94.799C65.6353 94.7904 66.4896 94.7988 66.5047 94.7959C67.6342 94.8119 67.3619 96.1995 67.3853 96.944C67.3853 97.1778 67.2926 97.402 67.1275 97.5674C66.9624 97.7328 66.7384 97.8259 66.5047 97.8263H17.5273C17.2935 97.826 17.0694 97.7329 16.9041 97.5675C16.7389 97.4021 16.646 97.1779 16.6459 96.944ZM97.2606 92.7536C97.2373 92.9481 97.1389 93.1258 96.9864 93.2488C96.8339 93.3718 96.6394 93.4303 96.4444 93.4118H82.1227C81.0985 93.3926 80.1083 93.7802 79.3692 94.4897C78.6302 95.1993 78.2025 96.1729 78.1799 97.1973C78.1592 97.3902 78.0638 97.5673 77.9141 97.6906C77.7644 97.814 77.5723 97.8737 77.379 97.8571H70.4134C70.5254 97.136 70.5635 96.4055 70.5273 95.6767C70.5253 94.7308 70.1899 93.8159 69.5802 93.0928C68.9705 92.3697 68.1254 91.8847 67.1936 91.7231V81.3974H89.786C89.8843 81.3901 89.983 81.4032 90.0759 81.4358C90.1689 81.4683 90.2542 81.5198 90.3264 81.5868C90.3986 81.6538 90.4562 81.7351 90.4956 81.8254C90.5349 81.9157 90.5553 82.0132 90.5553 82.1117C90.5553 82.2102 90.5349 82.3077 90.4956 82.398C90.4562 82.4883 90.3986 82.5696 90.3264 82.6366C90.2542 82.7036 90.1689 82.7551 90.0759 82.7877C89.983 82.8202 89.8843 82.8333 89.786 82.826H86.5657C85.5416 82.8068 84.5517 83.1945 83.8129 83.904C83.0741 84.6136 82.6467 85.5872 82.6244 86.6114C82.5673 87.1608 82.627 87.7161 82.7997 88.2408C82.9723 88.7655 83.254 89.2477 83.6263 89.6558C83.9985 90.0638 84.4529 90.3885 84.9595 90.6085C85.4661 90.8285 86.0135 90.9388 86.5658 90.9322H96.4444C97.5351 90.9359 97.2207 92.0744 97.2606 92.7536Z" fill="url(#paint0_linear_787_1834)"/>
<defs>
<linearGradient id="paint0_linear_787_1834" x1="57.3175" y1="-30.1698" x2="30.8635" y2="79.6863" gradientUnits="userSpaceOnUse">
<stop stop-color="#FFC10E"/>
<stop offset="1" stop-color="#F8F8F8"/>
</linearGradient>
</defs>
</svg>
