<svg width="180" height="193" viewBox="0 0 180 193" fill="none" xmlns="http://www.w3.org/2000/svg">
<mask id="path-1-inside-1_1077_6609" fill="white">
<path d="M0 0H179.209V192.052H0V0Z"/>
</mask>
<path d="M0 0H179.209V192.052H0V0Z" fill="#111111"/>
<path d="M178.587 0V192.052H179.831V0H178.587Z" fill="#FFD16B" fill-opacity="0.1" mask="url(#path-1-inside-1_1077_6609)"/>
<path fill-rule="evenodd" clip-rule="evenodd" d="M123.647 33.1353H127.847C128.105 33.1353 128.314 33.3442 128.314 33.6019V37.8022C128.314 38.0599 128.105 38.2688 127.847 38.2688C127.59 38.2688 127.381 38.0599 127.381 37.8022V34.7286L97.2585 64.8507L127.128 94.7198L126.468 95.3798L65.7971 34.7093L66.4571 34.0493L96.5985 64.1907L126.721 34.0686L123.647 34.0686C123.389 34.0686 123.18 33.8597 123.18 33.6019C123.18 33.3442 123.389 33.1353 123.647 33.1353ZM55.8417 109.865H51.6415C51.3837 109.865 51.1748 109.657 51.1748 109.399V105.199C51.1748 104.941 51.3837 104.732 51.6415 104.732C51.8992 104.732 52.1082 104.941 52.1082 105.199L52.1082 108.272L82.2301 78.1501L52.3612 48.2812L53.0212 47.6212L113.692 108.292L113.032 108.952L82.8901 78.8101L52.7682 108.932H55.8417C56.0994 108.932 56.3084 109.141 56.3084 109.399C56.3084 109.657 56.0994 109.865 55.8417 109.865Z" fill="#E1B40F" fill-opacity="0.6"/>
<path d="M47.9149 137.067C49.3165 136.016 50.3981 135.075 51.1599 134.245C51.9292 133.407 52.3139 132.588 52.3139 131.788C52.3139 131.262 52.1806 130.844 51.914 130.531C51.655 130.211 51.2284 130.051 50.6343 130.051C50.0553 130.051 49.6059 130.234 49.286 130.6C48.9737 130.958 48.7985 131.438 48.7604 132.039H47.9834C48.0291 131.194 48.2881 130.539 48.7604 130.074C49.2403 129.602 49.8649 129.366 50.6343 129.366C51.3731 129.366 51.9711 129.575 52.4281 129.994C52.8852 130.406 53.1137 130.992 53.1137 131.754C53.1137 132.675 52.729 133.571 51.9597 134.439C51.1979 135.3 50.2572 136.141 49.1375 136.964H53.3651V137.638H47.9149V137.067ZM54.6135 133.525C54.6135 132.215 54.8154 131.198 55.2191 130.474C55.6228 129.75 56.3465 129.389 57.3901 129.389C58.4336 129.389 59.1573 129.75 59.561 130.474C59.9647 131.198 60.1666 132.215 60.1666 133.525C60.1666 134.858 59.9647 135.89 59.561 136.621C59.1573 137.353 58.4336 137.718 57.3901 137.718C56.3389 137.718 55.6114 137.353 55.2077 136.621C54.8116 135.89 54.6135 134.858 54.6135 133.525ZM59.3782 133.525C59.3782 132.816 59.3287 132.218 59.2296 131.731C59.1306 131.243 58.9364 130.851 58.6469 130.554C58.3575 130.257 57.9385 130.108 57.3901 130.108C56.8416 130.108 56.4227 130.257 56.1332 130.554C55.8437 130.851 55.6495 131.243 55.5505 131.731C55.4514 132.218 55.4019 132.816 55.4019 133.525C55.4019 134.256 55.4514 134.869 55.5505 135.364C55.6495 135.852 55.8437 136.244 56.1332 136.541C56.4227 136.838 56.8416 136.987 57.3901 136.987C57.9385 136.987 58.3575 136.838 58.6469 136.541C58.9364 136.244 59.1306 135.852 59.2296 135.364C59.3287 134.869 59.3782 134.256 59.3782 133.525ZM67.573 133.81H65.025V136.381H64.2823V133.81H61.7458V133.125H64.2823V130.554H65.025V133.125H67.573V133.81ZM77.0759 135.799H73.4424L72.7454 137.695H71.8999L74.8135 129.811H75.7162L78.6184 137.695H77.7729L77.0759 135.799ZM76.8359 135.136L75.2592 130.817L73.6824 135.136H76.8359ZM80.7019 129.24V137.695H79.902V129.24H80.7019ZM87.9176 131.457V137.695H87.1177V136.598C86.9349 136.987 86.6531 137.284 86.2722 137.49C85.8913 137.695 85.4648 137.798 84.9925 137.798C84.246 137.798 83.6366 137.57 83.1643 137.113C82.6921 136.648 82.4559 135.978 82.4559 135.102V131.457H83.2443V135.01C83.2443 135.688 83.4119 136.206 83.7471 136.564C84.0898 136.922 84.5545 137.101 85.141 137.101C85.7428 137.101 86.2227 136.911 86.5807 136.53C86.9387 136.149 87.1177 135.589 87.1177 134.85V131.457H87.9176ZM97.1705 131.342C97.9017 131.342 98.4959 131.575 98.9529 132.039C99.4176 132.496 99.6499 133.163 99.6499 134.039V137.695H98.8615V134.13C98.8615 133.452 98.6977 132.934 98.3702 132.576C98.0427 132.218 97.597 132.039 97.0334 132.039C96.4468 132.039 95.9784 132.234 95.628 132.622C95.2776 133.011 95.1024 133.574 95.1024 134.313V137.695H94.314V134.13C94.314 133.452 94.1502 132.934 93.8227 132.576C93.4951 132.218 93.0457 132.039 92.4744 132.039C91.8879 132.039 91.4194 132.234 91.069 132.622C90.7186 133.011 90.5434 133.574 90.5434 134.313V137.695H89.7436V131.457H90.5434V132.531C90.7414 132.142 91.0233 131.849 91.3889 131.651C91.7546 131.445 92.1621 131.342 92.6115 131.342C93.1523 131.342 93.6246 131.472 94.0283 131.731C94.4397 131.99 94.7367 132.371 94.9196 132.874C95.0871 132.378 95.3728 132.001 95.7765 131.742C96.1878 131.476 96.6525 131.342 97.1705 131.342ZM101.826 130.28C101.666 130.28 101.529 130.223 101.415 130.108C101.301 129.994 101.243 129.853 101.243 129.686C101.243 129.518 101.301 129.381 101.415 129.274C101.529 129.16 101.666 129.103 101.826 129.103C101.986 129.103 102.123 129.16 102.237 129.274C102.352 129.381 102.409 129.518 102.409 129.686C102.409 129.853 102.352 129.994 102.237 130.108C102.123 130.223 101.986 130.28 101.826 130.28ZM102.226 131.457V137.695H101.426V131.457H102.226ZM106.962 131.342C107.709 131.342 108.318 131.575 108.79 132.039C109.263 132.496 109.499 133.163 109.499 134.039V137.695H108.71V134.13C108.71 133.452 108.539 132.934 108.196 132.576C107.861 132.218 107.4 132.039 106.814 132.039C106.212 132.039 105.732 132.23 105.374 132.611C105.016 132.992 104.837 133.551 104.837 134.29V137.695H104.037V131.457H104.837V132.519C105.035 132.138 105.321 131.849 105.694 131.651C106.067 131.445 106.49 131.342 106.962 131.342ZM111.668 130.28C111.508 130.28 111.371 130.223 111.256 130.108C111.142 129.994 111.085 129.853 111.085 129.686C111.085 129.518 111.142 129.381 111.256 129.274C111.371 129.16 111.508 129.103 111.668 129.103C111.828 129.103 111.965 129.16 112.079 129.274C112.193 129.381 112.25 129.518 112.25 129.686C112.25 129.853 112.193 129.994 112.079 130.108C111.965 130.223 111.828 130.28 111.668 130.28ZM112.068 131.457V137.695H111.268V131.457H112.068ZM119.283 131.457V137.695H118.483V136.598C118.301 136.987 118.019 137.284 117.638 137.49C117.257 137.695 116.83 137.798 116.358 137.798C115.612 137.798 115.002 137.57 114.53 137.113C114.058 136.648 113.822 135.978 113.822 135.102V131.457H114.61V135.01C114.61 135.688 114.778 136.206 115.113 136.564C115.456 136.922 115.92 137.101 116.507 137.101C117.109 137.101 117.588 136.911 117.946 136.53C118.304 136.149 118.483 135.589 118.483 134.85V131.457H119.283ZM128.536 131.342C129.267 131.342 129.862 131.575 130.319 132.039C130.783 132.496 131.016 133.163 131.016 134.039V137.695H130.227V134.13C130.227 133.452 130.063 132.934 129.736 132.576C129.408 132.218 128.963 132.039 128.399 132.039C127.813 132.039 127.344 132.234 126.994 132.622C126.643 133.011 126.468 133.574 126.468 134.313V137.695H125.68V134.13C125.68 133.452 125.516 132.934 125.188 132.576C124.861 132.218 124.411 132.039 123.84 132.039C123.254 132.039 122.785 132.234 122.435 132.622C122.084 133.011 121.909 133.574 121.909 134.313V137.695H121.109V131.457H121.909V132.531C122.107 132.142 122.389 131.849 122.755 131.651C123.12 131.445 123.528 131.342 123.977 131.342C124.518 131.342 124.99 131.472 125.394 131.731C125.805 131.99 126.102 132.371 126.285 132.874C126.453 132.378 126.738 132.001 127.142 131.742C127.554 131.476 128.018 131.342 128.536 131.342ZM69.7978 146.709V154.695H68.998V150.959H64.6675V154.695H63.8677V146.709H64.6675V150.296H68.998V146.709H69.7978ZM71.257 151.565C71.257 150.925 71.3827 150.365 71.6341 149.885C71.8931 149.397 72.2473 149.024 72.6967 148.765C73.1537 148.499 73.6679 148.365 74.2392 148.365C74.8334 148.365 75.3437 148.502 75.7703 148.777C76.2045 149.051 76.5168 149.401 76.7072 149.828V148.457H77.507V154.695H76.7072V153.313C76.5092 153.739 76.1931 154.094 75.7589 154.375C75.3323 154.65 74.8219 154.787 74.2278 154.787C73.6641 154.787 73.1537 154.653 72.6967 154.387C72.2473 154.12 71.8931 153.743 71.6341 153.256C71.3827 152.768 71.257 152.204 71.257 151.565ZM76.7072 151.576C76.7072 151.073 76.6044 150.631 76.3987 150.251C76.1931 149.87 75.9112 149.576 75.5532 149.371C75.2028 149.165 74.8143 149.062 74.3878 149.062C73.9459 149.062 73.5498 149.161 73.1994 149.359C72.8491 149.557 72.571 149.847 72.3653 150.228C72.1673 150.601 72.0683 151.047 72.0683 151.565C72.0683 152.075 72.1673 152.524 72.3653 152.913C72.571 153.294 72.8491 153.587 73.1994 153.793C73.5498 153.991 73.9459 154.09 74.3878 154.09C74.8143 154.09 75.2028 153.987 75.5532 153.781C75.9112 153.576 76.1931 153.282 76.3987 152.901C76.6044 152.521 76.7072 152.079 76.7072 151.576ZM82.258 148.342C83.0045 148.342 83.6139 148.575 84.0862 149.039C84.5585 149.496 84.7946 150.163 84.7946 151.039V154.695H84.0062V151.13C84.0062 150.452 83.8348 149.934 83.492 149.576C83.1569 149.218 82.696 149.039 82.1095 149.039C81.5077 149.039 81.0278 149.23 80.6698 149.611C80.3118 149.992 80.1328 150.551 80.1328 151.29V154.695H79.333V148.457H80.1328V149.519C80.3308 149.138 80.6165 148.849 80.9897 148.651C81.363 148.445 81.7858 148.342 82.258 148.342ZM86.1979 151.565C86.1979 150.925 86.3273 150.365 86.5863 149.885C86.8453 149.397 87.1995 149.024 87.649 148.765C88.106 148.499 88.6202 148.365 89.1915 148.365C89.7399 148.365 90.235 148.499 90.6768 148.765C91.1187 149.032 91.4424 149.378 91.6481 149.805V146.24H92.4479V154.695H91.6481V153.301C91.4576 153.736 91.1453 154.094 90.7111 154.375C90.2769 154.65 89.7666 154.787 89.18 154.787C88.6087 154.787 88.0946 154.653 87.6375 154.387C87.1881 154.12 86.8339 153.743 86.5749 153.256C86.3235 152.768 86.1979 152.204 86.1979 151.565ZM91.6481 151.576C91.6481 151.073 91.5452 150.631 91.3396 150.251C91.1339 149.87 90.852 149.576 90.494 149.371C90.1436 149.165 89.7551 149.062 89.3286 149.062C88.8868 149.062 88.4907 149.161 88.1403 149.359C87.7899 149.557 87.5118 149.847 87.3062 150.228C87.1081 150.601 87.0091 151.047 87.0091 151.565C87.0091 152.075 87.1081 152.524 87.3062 152.913C87.5118 153.294 87.7899 153.587 88.1403 153.793C88.4907 153.991 88.8868 154.09 89.3286 154.09C89.7551 154.09 90.1436 153.987 90.494 153.781C90.852 153.576 91.1339 153.282 91.3396 152.901C91.5452 152.521 91.6481 152.079 91.6481 151.576ZM95.0736 149.565C95.2488 149.177 95.5154 148.876 95.8734 148.662C96.2391 148.449 96.6847 148.342 97.2103 148.342V149.177H96.9932C96.4143 149.177 95.9496 149.333 95.5992 149.645C95.2488 149.957 95.0736 150.479 95.0736 151.21V154.695H94.2738V148.457H95.0736V149.565ZM98.0479 151.565C98.0479 150.925 98.1736 150.365 98.4249 149.885C98.6839 149.397 99.0381 149.024 99.4875 148.765C99.9446 148.499 100.459 148.365 101.03 148.365C101.624 148.365 102.135 148.502 102.561 148.777C102.995 149.051 103.308 149.401 103.498 149.828V148.457H104.298V154.695H103.498V153.313C103.3 153.739 102.984 154.094 102.55 154.375C102.123 154.65 101.613 154.787 101.019 154.787C100.455 154.787 99.9446 154.653 99.4875 154.387C99.0381 154.12 98.6839 153.743 98.4249 153.256C98.1736 152.768 98.0479 152.204 98.0479 151.565ZM103.498 151.576C103.498 151.073 103.395 150.631 103.19 150.251C102.984 149.87 102.702 149.576 102.344 149.371C101.994 149.165 101.605 149.062 101.179 149.062C100.737 149.062 100.341 149.161 99.9903 149.359C99.6399 149.557 99.3619 149.847 99.1562 150.228C98.9581 150.601 98.8591 151.047 98.8591 151.565C98.8591 152.075 98.9581 152.524 99.1562 152.913C99.3619 153.294 99.6399 153.587 99.9903 153.793C100.341 153.991 100.737 154.09 101.179 154.09C101.605 154.09 101.994 153.987 102.344 153.781C102.702 153.576 102.984 153.282 103.19 152.901C103.395 152.521 103.498 152.079 103.498 151.576ZM106.524 147.28C106.364 147.28 106.227 147.223 106.112 147.108C105.998 146.994 105.941 146.853 105.941 146.686C105.941 146.518 105.998 146.381 106.112 146.274C106.227 146.16 106.364 146.103 106.524 146.103C106.684 146.103 106.821 146.16 106.935 146.274C107.049 146.381 107.106 146.518 107.106 146.686C107.106 146.853 107.049 146.994 106.935 147.108C106.821 147.223 106.684 147.28 106.524 147.28ZM106.924 148.457V154.695H106.124V148.457H106.924ZM109.535 146.24V154.695H108.735V146.24H109.535ZM113.494 154.787C112.778 154.787 112.191 154.623 111.734 154.295C111.285 153.96 111.034 153.507 110.98 152.936H111.803C111.841 153.286 112.005 153.572 112.294 153.793C112.591 154.006 112.987 154.113 113.483 154.113C113.917 154.113 114.256 154.01 114.499 153.804C114.751 153.598 114.876 153.343 114.876 153.039C114.876 152.825 114.808 152.65 114.671 152.513C114.534 152.376 114.359 152.269 114.145 152.193C113.94 152.109 113.658 152.022 113.3 151.93C112.835 151.808 112.458 151.686 112.169 151.565C111.879 151.443 111.632 151.264 111.426 151.028C111.228 150.784 111.129 150.46 111.129 150.056C111.129 149.752 111.22 149.47 111.403 149.211C111.586 148.952 111.845 148.746 112.18 148.594C112.515 148.441 112.896 148.365 113.323 148.365C113.993 148.365 114.534 148.537 114.945 148.879C115.356 149.215 115.577 149.679 115.608 150.273H114.808C114.785 149.908 114.64 149.615 114.374 149.394C114.115 149.165 113.757 149.051 113.3 149.051C112.896 149.051 112.568 149.146 112.317 149.337C112.066 149.527 111.94 149.763 111.94 150.045C111.94 150.289 112.012 150.491 112.157 150.651C112.309 150.803 112.496 150.925 112.717 151.016C112.938 151.1 113.235 151.195 113.608 151.302C114.058 151.424 114.416 151.542 114.682 151.656C114.949 151.77 115.177 151.938 115.368 152.159C115.558 152.38 115.657 152.673 115.665 153.039C115.665 153.374 115.573 153.675 115.391 153.941C115.208 154.2 114.953 154.406 114.625 154.558C114.298 154.711 113.921 154.787 113.494 154.787Z" fill="#E1B40F"/>
</svg>
