<svg width="180" height="193" viewBox="0 0 180 193" fill="none" xmlns="http://www.w3.org/2000/svg">
<mask id="path-1-inside-1_1077_6619" fill="white">
<path d="M0.208984 0H179.418V192.052H0.208984V0Z"/>
</mask>
<path d="M0.208984 0H179.418V192.052H0.208984V0Z" fill="#111111"/>
<path d="M178.796 0V192.052H180.04V0H178.796Z" fill="#FFD16B" fill-opacity="0.1" mask="url(#path-1-inside-1_1077_6619)"/>
<rect x="51.078" y="103.139" width="77.4706" height="6.53366" stroke="#E1B40F" stroke-opacity="0.6" stroke-width="0.93338"/>
<path fill-rule="evenodd" clip-rule="evenodd" d="M81.7488 40.5063C81.0589 41.0534 80.1864 41.3801 79.2375 41.3801C77.0037 41.3801 75.1929 39.5692 75.1929 37.3354C75.1929 35.1017 77.0037 33.2908 79.2375 33.2908C81.4713 33.2908 83.2822 35.1017 83.2822 37.3354C83.2822 38.5566 82.741 39.6514 81.8854 40.393L81.7284 40.4466L81.7488 40.5063ZM82.0654 41.4328C81.2623 41.9882 80.2879 42.3135 79.2375 42.3135C78.0661 42.3135 76.9892 41.9089 76.1389 41.2318L62.7493 65.5765C64.0638 66.4726 64.9268 67.9818 64.9268 69.6926C64.9268 72.4419 62.698 74.6706 59.9487 74.6706C57.1994 74.6706 54.9707 72.4419 54.9707 69.6926C54.9707 66.9433 57.1994 64.7146 59.9487 64.7146C60.6537 64.7146 61.3245 64.8611 61.9322 65.1254L75.4439 40.5588C74.7052 39.6903 74.2595 38.5649 74.2595 37.3354C74.2595 34.5862 76.4883 32.3574 79.2375 32.3574C81.9868 32.3574 84.2156 34.5862 84.2156 37.3354C84.2156 38.6732 83.6879 39.8876 82.8294 40.7821L99.2061 88.6991C99.7668 88.4803 100.377 88.3602 101.015 88.3602C102.361 88.3602 103.582 88.8945 104.478 89.7625L116.459 76.5834C115.754 75.7242 115.33 74.6245 115.33 73.4259C115.33 70.6766 117.559 68.4479 120.308 68.4479C123.057 68.4479 125.286 70.6766 125.286 73.4259C125.286 76.1752 123.057 78.4039 120.308 78.4039C119.094 78.4039 117.981 77.9693 117.117 77.2471L105.09 90.4777C105.659 91.287 105.993 92.2736 105.993 93.3382C105.993 96.0875 103.764 98.3163 101.015 98.3163C98.2657 98.3163 96.037 96.0875 96.037 93.3382C96.037 91.563 96.9662 90.0048 98.3648 89.1236L82.0654 41.4328ZM59.9487 73.7373C62.1825 73.7373 63.9934 71.9264 63.9934 69.6926C63.9934 67.4588 62.1825 65.648 59.9487 65.648C57.7149 65.648 55.9041 67.4588 55.9041 69.6926C55.9041 71.9264 57.7149 73.7373 59.9487 73.7373ZM101.015 97.3829C103.249 97.3829 105.06 95.572 105.06 93.3382C105.06 91.1045 103.249 89.2936 101.015 89.2936C98.7812 89.2936 96.9704 91.1045 96.9704 93.3382C96.9704 95.572 98.7812 97.3829 101.015 97.3829ZM124.353 73.4259C124.353 75.6597 122.542 77.4705 120.308 77.4705C118.074 77.4705 116.263 75.6597 116.263 73.4259C116.263 71.1921 118.074 69.3812 120.308 69.3812C122.542 69.3812 124.353 71.1921 124.353 73.4259Z" fill="#E1B40F" fill-opacity="0.6"/>
<path d="M27.1438 131.594C27.1971 130.901 27.4637 130.356 27.9436 129.96C28.4311 129.556 29.0596 129.354 29.8289 129.354C30.3393 129.354 30.7773 129.446 31.1429 129.629C31.5085 129.811 31.7828 130.063 31.9656 130.383C32.156 130.695 32.2512 131.049 32.2512 131.445C32.2512 131.925 32.1103 132.34 31.8285 132.691C31.5466 133.041 31.1467 133.258 30.6287 133.342V133.399C31.1696 133.506 31.5999 133.742 31.9199 134.108C32.2398 134.466 32.3998 134.938 32.3998 135.524C32.3998 136.179 32.1789 136.716 31.7371 137.135C31.3029 137.547 30.6706 137.752 29.8403 137.752C29.0481 137.752 28.3969 137.547 27.8865 137.135C27.3761 136.716 27.0829 136.126 27.0067 135.364H27.7837C27.8522 135.875 28.0655 136.29 28.4235 136.61C28.7815 136.922 29.2538 137.078 29.8403 137.078C30.4193 137.078 30.8611 136.926 31.1658 136.621C31.4781 136.317 31.6342 135.928 31.6342 135.456C31.6342 134.298 30.8001 133.719 29.1319 133.719H28.8806V133.045H29.1434C30.6973 133.045 31.4743 132.538 31.4743 131.525C31.4743 131.083 31.3295 130.729 31.0401 130.463C30.7506 130.188 30.3393 130.051 29.8061 130.051C29.2881 130.051 28.8577 130.188 28.5149 130.463C28.1798 130.729 27.9817 131.106 27.9208 131.594H27.1438ZM33.8618 133.525C33.8618 132.215 34.0637 131.198 34.4674 130.474C34.8711 129.75 35.5948 129.389 36.6384 129.389C37.6819 129.389 38.4056 129.75 38.8093 130.474C39.213 131.198 39.4149 132.215 39.4149 133.525C39.4149 134.858 39.213 135.89 38.8093 136.621C38.4056 137.353 37.6819 137.718 36.6384 137.718C35.5872 137.718 34.8597 137.353 34.456 136.621C34.0599 135.89 33.8618 134.858 33.8618 133.525ZM38.6265 133.525C38.6265 132.816 38.577 132.218 38.4779 131.731C38.3789 131.243 38.1847 130.851 37.8952 130.554C37.6058 130.257 37.1868 130.108 36.6384 130.108C36.0899 130.108 35.671 130.257 35.3815 130.554C35.092 130.851 34.8978 131.243 34.7988 131.731C34.6997 132.218 34.6502 132.816 34.6502 133.525C34.6502 134.256 34.6997 134.869 34.7988 135.364C34.8978 135.852 35.092 136.244 35.3815 136.541C35.671 136.838 36.0899 136.987 36.6384 136.987C37.1868 136.987 37.6058 136.838 37.8952 136.541C38.1847 136.244 38.3789 135.852 38.4779 135.364C38.577 134.869 38.6265 134.256 38.6265 133.525ZM40.5485 135.753V135.147L44.7075 129.549H45.6559V135.056H46.8785V135.753H45.6559V137.695H44.8675V135.753H40.5485ZM44.9018 130.428L41.474 135.056H44.9018V130.428ZM53.6392 137.775C53.1136 137.775 52.6489 137.684 52.2452 137.501C51.8491 137.318 51.5368 137.063 51.3083 136.736C51.0797 136.408 50.9579 136.042 50.9426 135.639H51.7882C51.8262 136.027 51.9976 136.37 52.3023 136.667C52.607 136.956 53.0526 137.101 53.6392 137.101C54.18 137.101 54.6066 136.964 54.9189 136.69C55.2388 136.408 55.3988 136.054 55.3988 135.627C55.3988 135.284 55.3112 135.01 55.136 134.805C54.9608 134.591 54.7437 134.435 54.4847 134.336C54.2257 134.229 53.8677 134.115 53.4107 133.993C52.8774 133.849 52.4547 133.708 52.1424 133.571C51.8301 133.433 51.5635 133.22 51.3425 132.931C51.1216 132.641 51.0112 132.249 51.0112 131.754C51.0112 131.342 51.1178 130.977 51.3311 130.657C51.5444 130.329 51.8453 130.074 52.2338 129.891C52.6223 129.709 53.0679 129.617 53.5706 129.617C54.3095 129.617 54.9037 129.8 55.3531 130.166C55.8101 130.524 56.0729 130.988 56.1415 131.56H55.2731C55.2198 131.232 55.0408 130.943 54.7361 130.691C54.4314 130.432 54.02 130.303 53.5021 130.303C53.0222 130.303 52.6223 130.432 52.3023 130.691C51.9824 130.943 51.8224 131.289 51.8224 131.731C51.8224 132.066 51.91 132.337 52.0852 132.542C52.2604 132.748 52.4775 132.904 52.7365 133.011C53.0031 133.117 53.3611 133.232 53.8106 133.353C54.3285 133.498 54.7475 133.643 55.0674 133.788C55.3874 133.925 55.6578 134.138 55.8787 134.427C56.0996 134.717 56.21 135.105 56.21 135.593C56.21 135.966 56.111 136.32 55.9129 136.656C55.7149 136.991 55.4216 137.261 55.0331 137.467C54.6447 137.672 54.18 137.775 53.6392 137.775ZM60.1779 137.775C59.6523 137.775 59.1876 137.684 58.7839 137.501C58.3878 137.318 58.0755 137.063 57.847 136.736C57.6185 136.408 57.4966 136.042 57.4813 135.639H58.3269C58.365 136.027 58.5363 136.37 58.841 136.667C59.1457 136.956 59.5913 137.101 60.1779 137.101C60.7187 137.101 61.1453 136.964 61.4576 136.69C61.7775 136.408 61.9375 136.054 61.9375 135.627C61.9375 135.284 61.8499 135.01 61.6747 134.805C61.4995 134.591 61.2824 134.435 61.0234 134.336C60.7644 134.229 60.4064 134.115 59.9494 133.993C59.4161 133.849 58.9934 133.708 58.6811 133.571C58.3688 133.433 58.1022 133.22 57.8813 132.931C57.6604 132.641 57.5499 132.249 57.5499 131.754C57.5499 131.342 57.6565 130.977 57.8698 130.657C58.0831 130.329 58.384 130.074 58.7725 129.891C59.161 129.709 59.6066 129.617 60.1093 129.617C60.8482 129.617 61.4424 129.8 61.8918 130.166C62.3488 130.524 62.6116 130.988 62.6802 131.56H61.8118C61.7585 131.232 61.5795 130.943 61.2748 130.691C60.9701 130.432 60.5587 130.303 60.0408 130.303C59.5609 130.303 59.161 130.432 58.841 130.691C58.5211 130.943 58.3611 131.289 58.3611 131.731C58.3611 132.066 58.4487 132.337 58.6239 132.542C58.7991 132.748 59.0162 132.904 59.2752 133.011C59.5418 133.117 59.8998 133.232 60.3493 133.353C60.8672 133.498 61.2862 133.643 61.6061 133.788C61.9261 133.925 62.1965 134.138 62.4174 134.427C62.6383 134.717 62.7487 135.105 62.7487 135.593C62.7487 135.966 62.6497 136.32 62.4517 136.656C62.2536 136.991 61.9603 137.261 61.5719 137.467C61.1834 137.672 60.7187 137.775 60.1779 137.775ZM75.2337 129.811V137.695H74.4339V131.4L71.6231 137.695H71.0403L68.2295 131.422V137.695H67.4297V129.811H68.2753L71.326 136.644L74.3767 129.811H75.2337ZM79.7789 137.787C79.1924 137.787 78.663 137.657 78.1907 137.398C77.726 137.132 77.3566 136.758 77.0824 136.278C76.8158 135.791 76.6825 135.223 76.6825 134.576C76.6825 133.929 76.8196 133.365 77.0938 132.885C77.368 132.397 77.7413 132.024 78.2135 131.765C78.6858 131.499 79.2152 131.365 79.8018 131.365C80.3883 131.365 80.9177 131.499 81.39 131.765C81.8699 132.024 82.2431 132.397 82.5097 132.885C82.7839 133.365 82.9211 133.929 82.9211 134.576C82.9211 135.216 82.7839 135.78 82.5097 136.267C82.2355 136.755 81.8584 137.132 81.3786 137.398C80.8987 137.657 80.3654 137.787 79.7789 137.787ZM79.7789 137.09C80.1902 137.09 80.5711 136.998 80.9215 136.816C81.2719 136.625 81.5537 136.343 81.767 135.97C81.9879 135.589 82.0984 135.124 82.0984 134.576C82.0984 134.028 81.9917 133.567 81.7785 133.193C81.5652 132.813 81.2833 132.531 80.9329 132.348C80.5825 132.158 80.2017 132.062 79.7903 132.062C79.379 132.062 78.9981 132.158 78.6477 132.348C78.2973 132.531 78.0155 132.813 77.8022 133.193C77.5965 133.567 77.4937 134.028 77.4937 134.576C77.4937 135.124 77.5965 135.589 77.8022 135.97C78.0155 136.343 78.2935 136.625 78.6363 136.816C78.9867 136.998 79.3676 137.09 79.7789 137.09ZM84.0134 134.565C84.0134 133.925 84.1429 133.365 84.4019 132.885C84.6609 132.397 85.0151 132.024 85.4645 131.765C85.9215 131.499 86.4357 131.365 87.007 131.365C87.5555 131.365 88.0506 131.499 88.4924 131.765C88.9342 132.032 89.2579 132.378 89.4636 132.805V129.24H90.2634V137.695H89.4636V136.301C89.2732 136.736 88.9609 137.094 88.5267 137.375C88.0925 137.65 87.5821 137.787 86.9956 137.787C86.4243 137.787 85.9101 137.653 85.4531 137.387C85.0037 137.12 84.6494 136.743 84.3905 136.256C84.1391 135.768 84.0134 135.204 84.0134 134.565ZM89.4636 134.576C89.4636 134.073 89.3608 133.631 89.1551 133.251C88.9494 132.87 88.6676 132.576 88.3096 132.371C87.9592 132.165 87.5707 132.062 87.1441 132.062C86.7023 132.062 86.3062 132.161 85.9558 132.359C85.6054 132.557 85.3274 132.847 85.1217 133.228C84.9237 133.601 84.8246 134.047 84.8246 134.565C84.8246 135.075 84.9237 135.524 85.1217 135.913C85.3274 136.294 85.6054 136.587 85.9558 136.793C86.3062 136.991 86.7023 137.09 87.1441 137.09C87.5707 137.09 87.9592 136.987 88.3096 136.781C88.6676 136.576 88.9494 136.282 89.1551 135.901C89.3608 135.521 89.4636 135.079 89.4636 134.576ZM97.4939 131.457V137.695H96.694V136.598C96.5112 136.987 96.2294 137.284 95.8485 137.49C95.4676 137.695 95.0411 137.798 94.5688 137.798C93.8223 137.798 93.2129 137.57 92.7406 137.113C92.2684 136.648 92.0322 135.978 92.0322 135.102V131.457H92.8206V135.01C92.8206 135.688 92.9882 136.206 93.3234 136.564C93.6661 136.922 94.1308 137.101 94.7173 137.101C95.3191 137.101 95.799 136.911 96.157 136.53C96.515 136.149 96.694 135.589 96.694 134.85V131.457H97.4939ZM100.12 129.24V137.695H99.3199V129.24H100.12ZM101.565 134.565C101.565 133.925 101.691 133.365 101.942 132.885C102.201 132.397 102.556 132.024 103.005 131.765C103.462 131.499 103.976 131.365 104.547 131.365C105.142 131.365 105.652 131.502 106.079 131.777C106.513 132.051 106.825 132.401 107.015 132.828V131.457H107.815V137.695H107.015V136.313C106.817 136.739 106.501 137.094 106.067 137.375C105.641 137.65 105.13 137.787 104.536 137.787C103.972 137.787 103.462 137.653 103.005 137.387C102.556 137.12 102.201 136.743 101.942 136.256C101.691 135.768 101.565 135.204 101.565 134.565ZM107.015 134.576C107.015 134.073 106.913 133.631 106.707 133.251C106.501 132.87 106.219 132.576 105.861 132.371C105.511 132.165 105.123 132.062 104.696 132.062C104.254 132.062 103.858 132.161 103.508 132.359C103.157 132.557 102.879 132.847 102.674 133.228C102.476 133.601 102.376 134.047 102.376 134.565C102.376 135.075 102.476 135.524 102.674 135.913C102.879 136.294 103.157 136.587 103.508 136.793C103.858 136.991 104.254 137.09 104.696 137.09C105.123 137.09 105.511 136.987 105.861 136.781C106.219 136.576 106.501 136.282 106.707 135.901C106.913 135.521 107.015 135.079 107.015 134.576ZM110.441 132.565C110.616 132.177 110.883 131.876 111.241 131.662C111.606 131.449 112.052 131.342 112.578 131.342V132.177H112.361C111.782 132.177 111.317 132.333 110.967 132.645C110.616 132.957 110.441 133.479 110.441 134.21V137.695H109.641V131.457H110.441V132.565ZM121.167 137.695L119.19 134.359H117.716V137.695H116.916V129.709H119.316C120.207 129.709 120.881 129.922 121.338 130.348C121.803 130.775 122.035 131.335 122.035 132.028C122.035 132.607 121.868 133.102 121.532 133.513C121.205 133.917 120.717 134.18 120.07 134.302L122.127 137.695H121.167ZM117.716 133.708H119.327C119.952 133.708 120.42 133.555 120.733 133.251C121.053 132.946 121.213 132.538 121.213 132.028C121.213 131.502 121.06 131.099 120.755 130.817C120.451 130.527 119.971 130.383 119.316 130.383H117.716V133.708ZM123.257 134.565C123.257 133.925 123.382 133.365 123.634 132.885C123.893 132.397 124.247 132.024 124.696 131.765C125.154 131.499 125.668 131.365 126.239 131.365C126.833 131.365 127.343 131.502 127.77 131.777C128.204 132.051 128.517 132.401 128.707 132.828V131.457H129.507V137.695H128.707V136.313C128.509 136.739 128.193 137.094 127.759 137.375C127.332 137.65 126.822 137.787 126.228 137.787C125.664 137.787 125.154 137.653 124.696 137.387C124.247 137.12 123.893 136.743 123.634 136.256C123.382 135.768 123.257 135.204 123.257 134.565ZM128.707 134.576C128.707 134.073 128.604 133.631 128.398 133.251C128.193 132.87 127.911 132.576 127.553 132.371C127.203 132.165 126.814 132.062 126.388 132.062C125.946 132.062 125.55 132.161 125.199 132.359C124.849 132.557 124.571 132.847 124.365 133.228C124.167 133.601 124.068 134.047 124.068 134.565C124.068 135.075 124.167 135.524 124.365 135.913C124.571 136.294 124.849 136.587 125.199 136.793C125.55 136.991 125.946 137.09 126.388 137.09C126.814 137.09 127.203 136.987 127.553 136.781C127.911 136.576 128.193 136.282 128.398 135.901C128.604 135.521 128.707 135.079 128.707 134.576ZM131.733 130.28C131.573 130.28 131.436 130.223 131.321 130.108C131.207 129.994 131.15 129.853 131.15 129.686C131.15 129.518 131.207 129.381 131.321 129.274C131.436 129.16 131.573 129.103 131.733 129.103C131.893 129.103 132.03 129.16 132.144 129.274C132.258 129.381 132.315 129.518 132.315 129.686C132.315 129.853 132.258 129.994 132.144 130.108C132.03 130.223 131.893 130.28 131.733 130.28ZM132.133 131.457V137.695H131.333V131.457H132.133ZM134.744 129.24V137.695H133.944V129.24H134.744ZM136.955 130.28C136.795 130.28 136.658 130.223 136.543 130.108C136.429 129.994 136.372 129.853 136.372 129.686C136.372 129.518 136.429 129.381 136.543 129.274C136.658 129.16 136.795 129.103 136.955 129.103C137.115 129.103 137.252 129.16 137.366 129.274C137.48 129.381 137.537 129.518 137.537 129.686C137.537 129.853 137.48 129.994 137.366 130.108C137.252 130.223 137.115 130.28 136.955 130.28ZM137.355 131.457V137.695H136.555V131.457H137.355ZM142.091 131.342C142.837 131.342 143.447 131.575 143.919 132.039C144.391 132.496 144.627 133.163 144.627 134.039V137.695H143.839V134.13C143.839 133.452 143.668 132.934 143.325 132.576C142.99 132.218 142.529 132.039 141.942 132.039C141.341 132.039 140.861 132.23 140.503 132.611C140.145 132.992 139.966 133.551 139.966 134.29V137.695H139.166V131.457H139.966V132.519C140.164 132.138 140.449 131.849 140.823 131.651C141.196 131.445 141.619 131.342 142.091 131.342ZM149.013 131.365C149.599 131.365 150.11 131.502 150.544 131.777C150.978 132.051 151.29 132.397 151.481 132.816V131.457H152.281V137.855C152.281 138.427 152.155 138.933 151.904 139.375C151.66 139.817 151.317 140.156 150.875 140.392C150.434 140.636 149.931 140.757 149.367 140.757C148.567 140.757 147.901 140.567 147.368 140.186C146.842 139.805 146.514 139.287 146.385 138.632H147.173C147.31 139.066 147.569 139.413 147.95 139.672C148.339 139.931 148.811 140.06 149.367 140.06C149.771 140.06 150.133 139.973 150.453 139.798C150.772 139.63 151.024 139.379 151.207 139.044C151.389 138.708 151.481 138.312 151.481 137.855V136.313C151.283 136.739 150.967 137.094 150.533 137.375C150.106 137.65 149.599 137.787 149.013 137.787C148.442 137.787 147.927 137.653 147.47 137.387C147.021 137.12 146.667 136.743 146.408 136.256C146.156 135.768 146.031 135.204 146.031 134.565C146.031 133.925 146.156 133.365 146.408 132.885C146.667 132.397 147.021 132.024 147.47 131.765C147.927 131.499 148.442 131.365 149.013 131.365ZM151.481 134.576C151.481 134.073 151.378 133.631 151.172 133.251C150.967 132.87 150.685 132.576 150.327 132.371C149.976 132.165 149.588 132.062 149.161 132.062C148.72 132.062 148.324 132.161 147.973 132.359C147.623 132.557 147.345 132.847 147.139 133.228C146.941 133.601 146.842 134.047 146.842 134.565C146.842 135.075 146.941 135.524 147.139 135.913C147.345 136.294 147.623 136.587 147.973 136.793C148.324 136.991 148.72 137.09 149.161 137.09C149.588 137.09 149.976 136.987 150.327 136.781C150.685 136.576 150.967 136.282 151.172 135.901C151.378 135.521 151.481 135.079 151.481 134.576ZM72.424 154.775C71.8984 154.775 71.4338 154.684 71.03 154.501C70.6339 154.318 70.3216 154.063 70.0931 153.736C69.8646 153.408 69.7427 153.042 69.7275 152.639H70.573C70.6111 153.027 70.7825 153.37 71.0872 153.667C71.3919 153.956 71.8375 154.101 72.424 154.101C72.9648 154.101 73.3914 153.964 73.7037 153.69C74.0236 153.408 74.1836 153.054 74.1836 152.627C74.1836 152.284 74.096 152.01 73.9208 151.805C73.7456 151.591 73.5285 151.435 73.2695 151.336C73.0105 151.229 72.6525 151.115 72.1955 150.993C71.6623 150.849 71.2395 150.708 70.9272 150.571C70.6149 150.433 70.3483 150.22 70.1274 149.931C69.9065 149.641 69.796 149.249 69.796 148.754C69.796 148.342 69.9027 147.977 70.116 147.657C70.3292 147.329 70.6301 147.074 71.0186 146.891C71.4071 146.709 71.8527 146.617 72.3555 146.617C73.0943 146.617 73.6885 146.8 74.1379 147.166C74.5949 147.524 74.8577 147.988 74.9263 148.56H74.0579C74.0046 148.232 73.8256 147.943 73.5209 147.691C73.2162 147.432 72.8049 147.303 72.2869 147.303C71.807 147.303 71.4071 147.432 71.0872 147.691C70.7672 147.943 70.6073 148.289 70.6073 148.731C70.6073 149.066 70.6949 149.337 70.8701 149.542C71.0453 149.748 71.2624 149.904 71.5214 150.011C71.788 150.117 72.146 150.232 72.5954 150.353C73.1134 150.498 73.5323 150.643 73.8523 150.788C74.1722 150.925 74.4426 151.138 74.6635 151.427C74.8844 151.717 74.9949 152.105 74.9949 152.593C74.9949 152.966 74.8958 153.32 74.6978 153.656C74.4997 153.991 74.2065 154.261 73.818 154.467C73.4295 154.672 72.9648 154.775 72.424 154.775ZM81.6821 148.457L77.9801 157.632H77.146L78.3571 154.661L75.7977 148.457H76.6775L78.8027 153.781L80.8594 148.457H81.6821ZM84.9148 154.787C84.1987 154.787 83.6122 154.623 83.1552 154.295C82.7057 153.96 82.4544 153.507 82.401 152.936H83.2237C83.2618 153.286 83.4256 153.572 83.715 153.793C84.0121 154.006 84.4082 154.113 84.9033 154.113C85.3375 154.113 85.6765 154.01 85.9203 153.804C86.1716 153.598 86.2973 153.343 86.2973 153.039C86.2973 152.825 86.2288 152.65 86.0916 152.513C85.9545 152.376 85.7793 152.269 85.566 152.193C85.3604 152.109 85.0785 152.022 84.7205 151.93C84.2559 151.808 83.8788 151.686 83.5894 151.565C83.2999 151.443 83.0523 151.264 82.8467 151.028C82.6486 150.784 82.5496 150.46 82.5496 150.056C82.5496 149.752 82.641 149.47 82.8238 149.211C83.0066 148.952 83.2656 148.746 83.6008 148.594C83.9359 148.441 84.3168 148.365 84.7434 148.365C85.4137 148.365 85.9545 148.537 86.3659 148.879C86.7772 149.215 86.9981 149.679 87.0286 150.273H86.2288C86.2059 149.908 86.0612 149.615 85.7946 149.394C85.5356 149.165 85.1776 149.051 84.7205 149.051C84.3168 149.051 83.9893 149.146 83.7379 149.337C83.4865 149.527 83.3608 149.763 83.3608 150.045C83.3608 150.289 83.4332 150.491 83.5779 150.651C83.7303 150.803 83.9169 150.925 84.1378 151.016C84.3587 151.1 84.6558 151.195 85.029 151.302C85.4785 151.424 85.8365 151.542 86.1031 151.656C86.3697 151.77 86.5982 151.938 86.7886 152.159C86.9791 152.38 87.0781 152.673 87.0857 153.039C87.0857 153.374 86.9943 153.675 86.8115 153.941C86.6287 154.2 86.3735 154.406 86.0459 154.558C85.7184 154.711 85.3413 154.787 84.9148 154.787ZM89.631 149.131V153.004C89.631 153.385 89.7034 153.648 89.8481 153.793C89.9928 153.937 90.248 154.01 90.6137 154.01H91.3449V154.695H90.488C89.9243 154.695 89.5053 154.566 89.2311 154.307C88.9569 154.04 88.8198 153.606 88.8198 153.004V149.131H87.9514V148.457H88.8198V146.891H89.631V148.457H91.3449V149.131H89.631ZM98.3084 151.256C98.3084 151.53 98.3008 151.74 98.2856 151.885H93.1096C93.1325 152.357 93.2467 152.761 93.4524 153.096C93.6581 153.431 93.9285 153.686 94.2636 153.861C94.5988 154.029 94.9644 154.113 95.3605 154.113C95.8785 154.113 96.3127 153.987 96.6631 153.736C97.0211 153.484 97.2573 153.145 97.3715 152.719H98.217C98.0647 153.328 97.7371 153.827 97.2344 154.215C96.7393 154.596 96.1147 154.787 95.3605 154.787C94.774 154.787 94.2484 154.657 93.7838 154.398C93.3191 154.132 92.9535 153.758 92.6869 153.278C92.4279 152.791 92.2984 152.223 92.2984 151.576C92.2984 150.929 92.4279 150.361 92.6869 149.874C92.9458 149.386 93.3077 149.013 93.7723 148.754C94.237 148.495 94.7664 148.365 95.3605 148.365C95.9547 148.365 96.4727 148.495 96.9145 148.754C97.3639 149.013 97.7067 149.363 97.9428 149.805C98.1866 150.239 98.3084 150.723 98.3084 151.256ZM97.4972 151.233C97.5048 150.769 97.4096 150.372 97.2116 150.045C97.0211 149.717 96.7583 149.47 96.4232 149.302C96.088 149.135 95.7224 149.051 95.3263 149.051C94.7321 149.051 94.2256 149.241 93.8066 149.622C93.3877 150.003 93.1553 150.54 93.1096 151.233H97.4972ZM107.199 148.342C107.93 148.342 108.524 148.575 108.981 149.039C109.446 149.496 109.678 150.163 109.678 151.039V154.695H108.89V151.13C108.89 150.452 108.726 149.934 108.398 149.576C108.071 149.218 107.625 149.039 107.062 149.039C106.475 149.039 106.007 149.234 105.656 149.622C105.306 150.011 105.131 150.574 105.131 151.313V154.695H104.342V151.13C104.342 150.452 104.178 149.934 103.851 149.576C103.523 149.218 103.074 149.039 102.503 149.039C101.916 149.039 101.448 149.234 101.097 149.622C100.747 150.011 100.572 150.574 100.572 151.313V154.695H99.7718V148.457H100.572V149.531C100.77 149.142 101.051 148.849 101.417 148.651C101.783 148.445 102.19 148.342 102.64 148.342C103.181 148.342 103.653 148.472 104.057 148.731C104.468 148.99 104.765 149.371 104.948 149.874C105.115 149.378 105.401 149.001 105.805 148.742C106.216 148.476 106.681 148.342 107.199 148.342Z" fill="#E1B40F"/>
</svg>
