<svg width="180" height="193" viewBox="0 0 180 193" fill="none" xmlns="http://www.w3.org/2000/svg">
<mask id="path-1-inside-1_1077_6600" fill="white">
<path d="M0 0H179.209V192.052H0V0Z"/>
</mask>
<path d="M0 0H179.209V192.052H0V0Z" fill="#111111"/>
<path d="M178.587 0V192.052H179.831V0H178.587Z" fill="#FFD16B" fill-opacity="0.1" mask="url(#path-1-inside-1_1077_6600)"/>
<path fill-rule="evenodd" clip-rule="evenodd" d="M51.3338 33.2903H100.492V59.7361H78.716H77.7826V60.6695V82.4483H51.3338V33.2903ZM77.7826 83.3817H51.3338H50.4004V82.4483V33.2903V32.3569H51.3338H100.492H101.425V33.2903V59.7361H127.874H128.807V60.6695V109.828V110.761H127.874H78.716H77.7826V109.828V83.3817ZM101.425 60.6695H127.874V109.828H78.716V83.3817H100.492H101.425V82.4483V60.6695ZM100.492 60.6695V82.4483H78.716V60.6695H100.492Z" fill="#E1B40F" fill-opacity="0.6"/>
<path d="M27.3234 135.753V135.147L31.4825 129.549H32.4309V135.056H33.6534V135.753H32.4309V137.695H31.6425V135.753H27.3234ZM31.6767 130.428L28.2489 135.056H31.6767V130.428ZM34.685 133.525C34.685 132.215 34.8869 131.198 35.2906 130.474C35.6943 129.75 36.4179 129.389 37.4615 129.389C38.5051 129.389 39.2287 129.75 39.6325 130.474C40.0362 131.198 40.238 132.215 40.238 133.525C40.238 134.858 40.0362 135.89 39.6325 136.621C39.2287 137.353 38.5051 137.718 37.4615 137.718C36.4103 137.718 35.6829 137.353 35.2791 136.621C34.883 135.89 34.685 134.858 34.685 133.525ZM39.4496 133.525C39.4496 132.816 39.4001 132.218 39.3011 131.731C39.2021 131.243 39.0078 130.851 38.7184 130.554C38.4289 130.257 38.01 130.108 37.4615 130.108C36.9131 130.108 36.4941 130.257 36.2047 130.554C35.9152 130.851 35.721 131.243 35.6219 131.731C35.5229 132.218 35.4734 132.816 35.4734 133.525C35.4734 134.256 35.5229 134.869 35.6219 135.364C35.721 135.852 35.9152 136.244 36.2047 136.541C36.4941 136.838 36.9131 136.987 37.4615 136.987C38.01 136.987 38.4289 136.838 38.7184 136.541C39.0078 136.244 39.2021 135.852 39.3011 135.364C39.4001 134.869 39.4496 134.256 39.4496 133.525ZM47.6445 133.81H45.0965V136.381H44.3538V133.81H41.8172V133.125H44.3538V130.554H45.0965V133.125H47.6445V133.81ZM57.1473 135.799H53.5139L52.8169 137.695H51.9714L54.885 129.811H55.7877L58.6899 137.695H57.8443L57.1473 135.799ZM56.9074 135.136L55.3306 130.817L53.7538 135.136H56.9074ZM60.7733 129.24V137.695H59.9735V129.24H60.7733ZM67.989 131.457V137.695H67.1892V136.598C67.0064 136.987 66.7245 137.284 66.3437 137.49C65.9628 137.695 65.5362 137.798 65.064 137.798C64.3175 137.798 63.7081 137.57 63.2358 137.113C62.7635 136.648 62.5274 135.978 62.5274 135.102V131.457H63.3158V135.01C63.3158 135.688 63.4834 136.206 63.8185 136.564C64.1613 136.922 64.626 137.101 65.2125 137.101C65.8143 137.101 66.2942 136.911 66.6522 136.53C67.0102 136.149 67.1892 135.589 67.1892 134.85V131.457H67.989ZM77.2419 131.342C77.9732 131.342 78.5673 131.575 79.0244 132.039C79.489 132.496 79.7214 133.163 79.7214 134.039V137.695H78.933V134.13C78.933 133.452 78.7692 132.934 78.4417 132.576C78.1141 132.218 77.6685 132.039 77.1048 132.039C76.5183 132.039 76.0498 132.234 75.6994 132.622C75.349 133.011 75.1738 133.574 75.1738 134.313V137.695H74.3854V134.13C74.3854 133.452 74.2217 132.934 73.8941 132.576C73.5666 132.218 73.1171 132.039 72.5458 132.039C71.9593 132.039 71.4908 132.234 71.1404 132.622C70.79 133.011 70.6148 133.574 70.6148 134.313V137.695H69.815V131.457H70.6148V132.531C70.8129 132.142 71.0947 131.849 71.4604 131.651C71.826 131.445 72.2335 131.342 72.683 131.342C73.2238 131.342 73.6961 131.472 74.0998 131.731C74.5111 131.99 74.8082 132.371 74.991 132.874C75.1586 132.378 75.4442 132.001 75.848 131.742C76.2593 131.476 76.7239 131.342 77.2419 131.342ZM81.8976 130.28C81.7376 130.28 81.6005 130.223 81.4862 130.108C81.372 129.994 81.3148 129.853 81.3148 129.686C81.3148 129.518 81.372 129.381 81.4862 129.274C81.6005 129.16 81.7376 129.103 81.8976 129.103C82.0575 129.103 82.1946 129.16 82.3089 129.274C82.4232 129.381 82.4803 129.518 82.4803 129.686C82.4803 129.853 82.4232 129.994 82.3089 130.108C82.1946 130.223 82.0575 130.28 81.8976 130.28ZM82.2975 131.457V137.695H81.4977V131.457H82.2975ZM87.0337 131.342C87.7802 131.342 88.3896 131.575 88.8619 132.039C89.3342 132.496 89.5703 133.163 89.5703 134.039V137.695H88.7819V134.13C88.7819 133.452 88.6105 132.934 88.2677 132.576C87.9326 132.218 87.4717 132.039 86.8852 132.039C86.2834 132.039 85.8035 132.23 85.4455 132.611C85.0875 132.992 84.9085 133.551 84.9085 134.29V137.695H84.1087V131.457H84.9085V132.519C85.1066 132.138 85.3922 131.849 85.7655 131.651C86.1387 131.445 86.5615 131.342 87.0337 131.342ZM91.7391 130.28C91.5791 130.28 91.442 130.223 91.3278 130.108C91.2135 129.994 91.1564 129.853 91.1564 129.686C91.1564 129.518 91.2135 129.381 91.3278 129.274C91.442 129.16 91.5791 129.103 91.7391 129.103C91.8991 129.103 92.0362 129.16 92.1504 129.274C92.2647 129.381 92.3218 129.518 92.3218 129.686C92.3218 129.853 92.2647 129.994 92.1504 130.108C92.0362 130.223 91.8991 130.28 91.7391 130.28ZM92.139 131.457V137.695H91.3392V131.457H92.139ZM99.3547 131.457V137.695H98.5549V136.598C98.3721 136.987 98.0902 137.284 97.7094 137.49C97.3285 137.695 96.9019 137.798 96.4297 137.798C95.6832 137.798 95.0738 137.57 94.6015 137.113C94.1292 136.648 93.8931 135.978 93.8931 135.102V131.457H94.6815V135.01C94.6815 135.688 94.8491 136.206 95.1842 136.564C95.527 136.922 95.9917 137.101 96.5782 137.101C97.18 137.101 97.6599 136.911 98.0179 136.53C98.3759 136.149 98.5549 135.589 98.5549 134.85V131.457H99.3547ZM108.608 131.342C109.339 131.342 109.933 131.575 110.39 132.039C110.855 132.496 111.087 133.163 111.087 134.039V137.695H110.299V134.13C110.299 133.452 110.135 132.934 109.807 132.576C109.48 132.218 109.034 132.039 108.471 132.039C107.884 132.039 107.416 132.234 107.065 132.622C106.715 133.011 106.54 133.574 106.54 134.313V137.695H105.751V134.13C105.751 133.452 105.587 132.934 105.26 132.576C104.932 132.218 104.483 132.039 103.912 132.039C103.325 132.039 102.857 132.234 102.506 132.622C102.156 133.011 101.981 133.574 101.981 134.313V137.695H101.181V131.457H101.981V132.531C102.179 132.142 102.46 131.849 102.826 131.651C103.192 131.445 103.599 131.342 104.049 131.342C104.589 131.342 105.062 131.472 105.465 131.731C105.877 131.99 106.174 132.371 106.357 132.874C106.524 132.378 106.81 132.001 107.214 131.742C107.625 131.476 108.09 131.342 108.608 131.342ZM120.249 137.695L118.273 134.359H116.799V137.695H115.999V129.709H118.398C119.29 129.709 119.964 129.922 120.421 130.348C120.885 130.775 121.118 131.335 121.118 132.028C121.118 132.607 120.95 133.102 120.615 133.513C120.287 133.917 119.8 134.18 119.152 134.302L121.209 137.695H120.249ZM116.799 133.708H118.41C119.034 133.708 119.503 133.555 119.815 133.251C120.135 132.946 120.295 132.538 120.295 132.028C120.295 131.502 120.143 131.099 119.838 130.817C119.533 130.527 119.053 130.383 118.398 130.383H116.799V133.708ZM122.339 134.565C122.339 133.925 122.465 133.365 122.716 132.885C122.975 132.397 123.33 132.024 123.779 131.765C124.236 131.499 124.75 131.365 125.321 131.365C125.916 131.365 126.426 131.502 126.853 131.777C127.287 132.051 127.599 132.401 127.789 132.828V131.457H128.589V137.695H127.789V136.313C127.591 136.739 127.275 137.094 126.841 137.375C126.415 137.65 125.904 137.787 125.31 137.787C124.746 137.787 124.236 137.653 123.779 137.387C123.33 137.12 122.975 136.743 122.716 136.256C122.465 135.768 122.339 135.204 122.339 134.565ZM127.789 134.576C127.789 134.073 127.687 133.631 127.481 133.251C127.275 132.87 126.993 132.576 126.635 132.371C126.285 132.165 125.897 132.062 125.47 132.062C125.028 132.062 124.632 132.161 124.282 132.359C123.931 132.557 123.653 132.847 123.448 133.228C123.25 133.601 123.151 134.047 123.151 134.565C123.151 135.075 123.25 135.524 123.448 135.913C123.653 136.294 123.931 136.587 124.282 136.793C124.632 136.991 125.028 137.09 125.47 137.09C125.897 137.09 126.285 136.987 126.635 136.781C126.993 136.576 127.275 136.282 127.481 135.901C127.687 135.521 127.789 135.079 127.789 134.576ZM130.815 130.28C130.655 130.28 130.518 130.223 130.404 130.108C130.29 129.994 130.232 129.853 130.232 129.686C130.232 129.518 130.29 129.381 130.404 129.274C130.518 129.16 130.655 129.103 130.815 129.103C130.975 129.103 131.112 129.16 131.226 129.274C131.341 129.381 131.398 129.518 131.398 129.686C131.398 129.853 131.341 129.994 131.226 130.108C131.112 130.223 130.975 130.28 130.815 130.28ZM131.215 131.457V137.695H130.415V131.457H131.215ZM133.826 129.24V137.695H133.026V129.24H133.826ZM136.037 130.28C135.877 130.28 135.74 130.223 135.626 130.108C135.512 129.994 135.454 129.853 135.454 129.686C135.454 129.518 135.512 129.381 135.626 129.274C135.74 129.16 135.877 129.103 136.037 129.103C136.197 129.103 136.334 129.16 136.449 129.274C136.563 129.381 136.62 129.518 136.62 129.686C136.62 129.853 136.563 129.994 136.449 130.108C136.334 130.223 136.197 130.28 136.037 130.28ZM136.437 131.457V137.695H135.637V131.457H136.437ZM141.173 131.342C141.92 131.342 142.529 131.575 143.001 132.039C143.474 132.496 143.71 133.163 143.71 134.039V137.695H142.922V134.13C142.922 133.452 142.75 132.934 142.407 132.576C142.072 132.218 141.611 132.039 141.025 132.039C140.423 132.039 139.943 132.23 139.585 132.611C139.227 132.992 139.048 133.551 139.048 134.29V137.695H138.248V131.457H139.048V132.519C139.246 132.138 139.532 131.849 139.905 131.651C140.278 131.445 140.701 131.342 141.173 131.342ZM148.095 131.365C148.682 131.365 149.192 131.502 149.626 131.777C150.061 132.051 150.373 132.397 150.563 132.816V131.457H151.363V137.855C151.363 138.427 151.237 138.933 150.986 139.375C150.742 139.817 150.4 140.156 149.958 140.392C149.516 140.636 149.013 140.757 148.45 140.757C147.65 140.757 146.983 140.567 146.45 140.186C145.924 139.805 145.597 139.287 145.467 138.632H146.256C146.393 139.066 146.652 139.413 147.033 139.672C147.421 139.931 147.893 140.06 148.45 140.06C148.853 140.06 149.215 139.973 149.535 139.798C149.855 139.63 150.106 139.379 150.289 139.044C150.472 138.708 150.563 138.312 150.563 137.855V136.313C150.365 136.739 150.049 137.094 149.615 137.375C149.188 137.65 148.682 137.787 148.095 137.787C147.524 137.787 147.01 137.653 146.553 137.387C146.103 137.12 145.749 136.743 145.49 136.256C145.239 135.768 145.113 135.204 145.113 134.565C145.113 133.925 145.239 133.365 145.49 132.885C145.749 132.397 146.103 132.024 146.553 131.765C147.01 131.499 147.524 131.365 148.095 131.365ZM150.563 134.576C150.563 134.073 150.461 133.631 150.255 133.251C150.049 132.87 149.767 132.576 149.409 132.371C149.059 132.165 148.67 132.062 148.244 132.062C147.802 132.062 147.406 132.161 147.056 132.359C146.705 132.557 146.427 132.847 146.221 133.228C146.023 133.601 145.924 134.047 145.924 134.565C145.924 135.075 146.023 135.524 146.221 135.913C146.427 136.294 146.705 136.587 147.056 136.793C147.406 136.991 147.802 137.09 148.244 137.09C148.67 137.09 149.059 136.987 149.409 136.781C149.767 136.576 150.049 136.282 150.255 135.901C150.461 135.521 150.563 135.079 150.563 134.576ZM72.215 154.775C71.6894 154.775 71.2248 154.684 70.8211 154.501C70.425 154.318 70.1126 154.063 69.8841 153.736C69.6556 153.408 69.5337 153.042 69.5185 152.639H70.364C70.4021 153.027 70.5735 153.37 70.8782 153.667C71.1829 153.956 71.6285 154.101 72.215 154.101C72.7559 154.101 73.1824 153.964 73.4947 153.69C73.8147 153.408 73.9746 153.054 73.9746 152.627C73.9746 152.284 73.887 152.01 73.7118 151.805C73.5366 151.591 73.3195 151.435 73.0605 151.336C72.8016 151.229 72.4435 151.115 71.9865 150.993C71.4533 150.849 71.0305 150.708 70.7182 150.571C70.4059 150.433 70.1393 150.22 69.9184 149.931C69.6975 149.641 69.587 149.249 69.587 148.754C69.587 148.342 69.6937 147.977 69.907 147.657C70.1203 147.329 70.4211 147.074 70.8096 146.891C71.1981 146.709 71.6437 146.617 72.1465 146.617C72.8853 146.617 73.4795 146.8 73.9289 147.166C74.386 147.524 74.6488 147.988 74.7173 148.56H73.8489C73.7956 148.232 73.6166 147.943 73.3119 147.691C73.0072 147.432 72.5959 147.303 72.0779 147.303C71.598 147.303 71.1981 147.432 70.8782 147.691C70.5583 147.943 70.3983 148.289 70.3983 148.731C70.3983 149.066 70.4859 149.337 70.6611 149.542C70.8363 149.748 71.0534 149.904 71.3124 150.011C71.579 150.117 71.937 150.232 72.3864 150.353C72.9044 150.498 73.3233 150.643 73.6433 150.788C73.9632 150.925 74.2336 151.138 74.4545 151.427C74.6754 151.717 74.7859 152.105 74.7859 152.593C74.7859 152.966 74.6868 153.32 74.4888 153.656C74.2907 153.991 73.9975 154.261 73.609 154.467C73.2205 154.672 72.7559 154.775 72.215 154.775ZM81.4731 148.457L77.7711 157.632H76.937L78.1481 154.661L75.5887 148.457H76.4685L78.5938 153.781L80.6504 148.457H81.4731ZM84.7058 154.787C83.9898 154.787 83.4032 154.623 82.9462 154.295C82.4968 153.96 82.2454 153.507 82.1921 152.936H83.0147C83.0528 153.286 83.2166 153.572 83.5061 153.793C83.8031 154.006 84.1992 154.113 84.6944 154.113C85.1285 154.113 85.4675 154.01 85.7113 153.804C85.9626 153.598 86.0883 153.343 86.0883 153.039C86.0883 152.825 86.0198 152.65 85.8827 152.513C85.7455 152.376 85.5704 152.269 85.3571 152.193C85.1514 152.109 84.8696 152.022 84.5115 151.93C84.0469 151.808 83.6698 151.686 83.3804 151.565C83.0909 151.443 82.8433 151.264 82.6377 151.028C82.4396 150.784 82.3406 150.46 82.3406 150.056C82.3406 149.752 82.432 149.47 82.6148 149.211C82.7976 148.952 83.0566 148.746 83.3918 148.594C83.727 148.441 84.1078 148.365 84.5344 148.365C85.2047 148.365 85.7455 148.537 86.1569 148.879C86.5682 149.215 86.7891 149.679 86.8196 150.273H86.0198C85.9969 149.908 85.8522 149.615 85.5856 149.394C85.3266 149.165 84.9686 149.051 84.5115 149.051C84.1078 149.051 83.7803 149.146 83.5289 149.337C83.2775 149.527 83.1518 149.763 83.1518 150.045C83.1518 150.289 83.2242 150.491 83.3689 150.651C83.5213 150.803 83.7079 150.925 83.9288 151.016C84.1497 151.1 84.4468 151.195 84.82 151.302C85.2695 151.424 85.6275 151.542 85.8941 151.656C86.1607 151.77 86.3892 151.938 86.5796 152.159C86.7701 152.38 86.8691 152.673 86.8767 153.039C86.8767 153.374 86.7853 153.675 86.6025 153.941C86.4197 154.2 86.1645 154.406 85.837 154.558C85.5094 154.711 85.1324 154.787 84.7058 154.787ZM89.422 149.131V153.004C89.422 153.385 89.4944 153.648 89.6391 153.793C89.7839 153.937 90.039 154.01 90.4047 154.01H91.1359V154.695H90.279C89.7153 154.695 89.2964 154.566 89.0221 154.307C88.7479 154.04 88.6108 153.606 88.6108 153.004V149.131H87.7424V148.457H88.6108V146.891H89.422V148.457H91.1359V149.131H89.422ZM98.0995 151.256C98.0995 151.53 98.0918 151.74 98.0766 151.885H92.9006C92.9235 152.357 93.0377 152.761 93.2434 153.096C93.4491 153.431 93.7195 153.686 94.0547 153.861C94.3898 154.029 94.7555 154.113 95.1516 154.113C95.6695 154.113 96.1037 153.987 96.4541 153.736C96.8121 153.484 97.0483 153.145 97.1625 152.719H98.0081C97.8557 153.328 97.5282 153.827 97.0254 154.215C96.5303 154.596 95.9057 154.787 95.1516 154.787C94.565 154.787 94.0394 154.657 93.5748 154.398C93.1101 154.132 92.7445 153.758 92.4779 153.278C92.2189 152.791 92.0894 152.223 92.0894 151.576C92.0894 150.929 92.2189 150.361 92.4779 149.874C92.7369 149.386 93.0987 149.013 93.5633 148.754C94.028 148.495 94.5574 148.365 95.1516 148.365C95.7457 148.365 96.2637 148.495 96.7055 148.754C97.1549 149.013 97.4977 149.363 97.7338 149.805C97.9776 150.239 98.0995 150.723 98.0995 151.256ZM97.2882 151.233C97.2958 150.769 97.2006 150.372 97.0026 150.045C96.8121 149.717 96.5493 149.47 96.2142 149.302C95.879 149.135 95.5134 149.051 95.1173 149.051C94.5231 149.051 94.0166 149.241 93.5976 149.622C93.1787 150.003 92.9463 150.54 92.9006 151.233H97.2882ZM106.99 148.342C107.721 148.342 108.315 148.575 108.772 149.039C109.237 149.496 109.469 150.163 109.469 151.039V154.695H108.681V151.13C108.681 150.452 108.517 149.934 108.189 149.576C107.862 149.218 107.416 149.039 106.853 149.039C106.266 149.039 105.798 149.234 105.447 149.622C105.097 150.011 104.922 150.574 104.922 151.313V154.695H104.133V151.13C104.133 150.452 103.969 149.934 103.642 149.576C103.314 149.218 102.865 149.039 102.294 149.039C101.707 149.039 101.239 149.234 100.888 149.622C100.538 150.011 100.363 150.574 100.363 151.313V154.695H99.5628V148.457H100.363V149.531C100.561 149.142 100.843 148.849 101.208 148.651C101.574 148.445 101.981 148.342 102.431 148.342C102.972 148.342 103.444 148.472 103.848 148.731C104.259 148.99 104.556 149.371 104.739 149.874C104.906 149.378 105.192 149.001 105.596 148.742C106.007 148.476 106.472 148.342 106.99 148.342Z" fill="#E1B40F"/>
</svg>
