<svg width="180" height="193" viewBox="0 0 180 193" fill="none" xmlns="http://www.w3.org/2000/svg">
<mask id="path-1-inside-1_1077_6605" fill="white">
<path d="M0.208984 0H179.418V192.061H0.208984V0Z"/>
</mask>
<path d="M0.208984 0H179.418V192.061H0.208984V0Z" fill="#111111"/>
<path d="M178.796 0V192.061H180.04V0H178.796Z" fill="#FFD16B" fill-opacity="0.1" mask="url(#path-1-inside-1_1077_6605)"/>
<path d="M112.684 87.5732C116.654 86.7671 120.183 84.5145 122.586 81.2527C124.989 77.991 126.094 73.9528 125.687 69.9222C125.279 65.8915 123.389 62.1559 120.383 59.4406C117.376 56.7252 113.468 55.2239 109.417 55.2279H105.3C104.218 51.0372 102.111 47.1808 99.1705 44.0051C96.2296 40.8293 92.546 38.4337 88.4506 37.0331C84.3551 35.6326 79.976 35.271 75.7063 35.9809C71.4366 36.6908 67.41 38.4499 63.988 41.1003C60.5661 43.7507 57.8559 47.2094 56.1008 51.1659C54.3457 55.1224 53.6006 59.4528 53.9324 63.7684C54.2642 68.0839 55.6626 72.2496 58.0019 75.8912C60.3413 79.5329 63.5484 82.5366 67.3353 84.6327" stroke="#E1B40F" stroke-opacity="0.6" stroke-width="0.933486" stroke-linecap="round" stroke-linejoin="round"/>
<path d="M93.0815 68.2964L80.0127 87.8996H99.6159L86.5471 107.503" stroke="#E1B40F" stroke-opacity="0.6" stroke-width="0.933486" stroke-linecap="round" stroke-linejoin="round"/>
<path d="M35.5544 130.231V129.512H37.4968V137.704H36.6855V130.231H35.5544ZM39.2791 133.534C39.2791 132.223 39.481 131.207 39.8847 130.483C40.2884 129.759 41.0121 129.397 42.0557 129.397C43.0992 129.397 43.8229 129.759 44.2266 130.483C44.6303 131.207 44.8322 132.223 44.8322 133.534C44.8322 134.867 44.6303 135.899 44.2266 136.63C43.8229 137.361 43.0992 137.727 42.0557 137.727C41.0045 137.727 40.277 137.361 39.8733 136.63C39.4772 135.899 39.2791 134.867 39.2791 133.534ZM44.0438 133.534C44.0438 132.825 43.9943 132.227 43.8953 131.74C43.7962 131.252 43.602 130.86 43.3125 130.563C43.0231 130.266 42.6041 130.117 42.0557 130.117C41.5072 130.117 41.0883 130.266 40.7988 130.563C40.5093 130.86 40.3151 131.252 40.2161 131.74C40.1171 132.227 40.0675 132.825 40.0675 133.534C40.0675 134.265 40.1171 134.878 40.2161 135.373C40.3151 135.861 40.5093 136.253 40.7988 136.55C41.0883 136.847 41.5072 136.996 42.0557 136.996C42.6041 136.996 43.0231 136.847 43.3125 136.55C43.602 136.253 43.7962 135.861 43.8953 135.373C43.9943 134.878 44.0438 134.265 44.0438 133.534ZM46.32 133.534C46.32 132.223 46.5218 131.207 46.9256 130.483C47.3293 129.759 48.0529 129.397 49.0965 129.397C50.1401 129.397 50.8637 129.759 51.2674 130.483C51.6711 131.207 51.873 132.223 51.873 133.534C51.873 134.867 51.6711 135.899 51.2674 136.63C50.8637 137.361 50.1401 137.727 49.0965 137.727C48.0453 137.727 47.3178 137.361 46.9141 136.63C46.518 135.899 46.32 134.867 46.32 133.534ZM51.0846 133.534C51.0846 132.825 51.0351 132.227 50.9361 131.74C50.8371 131.252 50.6428 130.86 50.3534 130.563C50.0639 130.266 49.6449 130.117 49.0965 130.117C48.548 130.117 48.1291 130.266 47.8396 130.563C47.5502 130.86 47.3559 131.252 47.2569 131.74C47.1579 132.227 47.1084 132.825 47.1084 133.534C47.1084 134.265 47.1579 134.878 47.2569 135.373C47.3559 135.861 47.5502 136.253 47.8396 136.55C48.1291 136.847 48.548 136.996 49.0965 136.996C49.6449 136.996 50.0639 136.847 50.3534 136.55C50.6428 136.253 50.8371 135.861 50.9361 135.373C51.0351 134.878 51.0846 134.265 51.0846 133.534ZM53.1094 131.226C53.1094 130.738 53.258 130.346 53.555 130.049C53.8597 129.744 54.2444 129.592 54.7091 129.592C55.1813 129.592 55.566 129.744 55.8631 130.049C56.1678 130.346 56.3201 130.738 56.3201 131.226C56.3201 131.721 56.1678 132.121 55.8631 132.425C55.566 132.722 55.1813 132.871 54.7091 132.871C54.2444 132.871 53.8597 132.722 53.555 132.425C53.258 132.121 53.1094 131.721 53.1094 131.226ZM59.508 129.706L54.8233 137.704H54.0121L58.7082 129.706H59.508ZM54.7091 130.106C54.4196 130.106 54.1873 130.205 54.0121 130.403C53.8445 130.593 53.7607 130.868 53.7607 131.226C53.7607 131.584 53.8445 131.862 54.0121 132.06C54.1873 132.258 54.4196 132.357 54.7091 132.357C54.9985 132.357 55.2309 132.258 55.4061 132.06C55.5813 131.862 55.6689 131.584 55.6689 131.226C55.6689 130.875 55.5813 130.601 55.4061 130.403C55.2309 130.205 54.9985 130.106 54.7091 130.106ZM57.2228 136.184C57.2228 135.689 57.3713 135.293 57.6684 134.996C57.9731 134.691 58.3578 134.539 58.8224 134.539C59.2871 134.539 59.6679 134.691 59.965 134.996C60.2697 135.293 60.4221 135.689 60.4221 136.184C60.4221 136.68 60.2697 137.079 59.965 137.384C59.6679 137.681 59.2871 137.83 58.8224 137.83C58.3578 137.83 57.9731 137.681 57.6684 137.384C57.3713 137.079 57.2228 136.68 57.2228 136.184ZM58.8224 135.065C58.533 135.065 58.3006 135.164 58.1254 135.362C57.9502 135.56 57.8626 135.834 57.8626 136.184C57.8626 136.535 57.9502 136.809 58.1254 137.007C58.3006 137.205 58.533 137.304 58.8224 137.304C59.1119 137.304 59.3404 137.209 59.508 137.019C59.6832 136.82 59.7708 136.542 59.7708 136.184C59.7708 135.826 59.6832 135.552 59.508 135.362C59.3404 135.164 59.1119 135.065 58.8224 135.065ZM74.6474 129.717L72.3851 137.704H71.4939L69.4829 130.894L67.4262 137.704L66.5578 137.716L64.3412 129.717H65.1981L67.0263 136.721L69.0715 129.717H69.9628L71.9509 136.721L73.7905 129.717H74.6474ZM81.5154 134.265C81.5154 134.539 81.5077 134.749 81.4925 134.893H76.3165C76.3394 135.366 76.4536 135.769 76.6593 136.104C76.865 136.44 77.1354 136.695 77.4705 136.87C77.8057 137.038 78.1713 137.121 78.5674 137.121C79.0854 137.121 79.5196 136.996 79.87 136.744C80.228 136.493 80.4642 136.154 80.5784 135.727H81.4239C81.2716 136.337 80.9441 136.836 80.4413 137.224C79.9462 137.605 79.3216 137.796 78.5674 137.796C77.9809 137.796 77.4553 137.666 76.9907 137.407C76.526 137.14 76.1604 136.767 75.8938 136.287C75.6348 135.8 75.5053 135.232 75.5053 134.585C75.5053 133.937 75.6348 133.37 75.8938 132.882C76.1528 132.395 76.5146 132.022 76.9792 131.763C77.4439 131.504 77.9733 131.374 78.5674 131.374C79.1616 131.374 79.6796 131.504 80.1214 131.763C80.5708 132.022 80.9136 132.372 81.1497 132.814C81.3935 133.248 81.5154 133.732 81.5154 134.265ZM80.7041 134.242C80.7117 133.777 80.6165 133.381 80.4185 133.054C80.228 132.726 79.9652 132.479 79.6301 132.311C79.2949 132.143 78.9293 132.06 78.5332 132.06C77.939 132.06 77.4325 132.25 77.0135 132.631C76.5946 133.012 76.3622 133.549 76.3165 134.242H80.7041ZM82.613 134.573C82.613 133.934 82.7387 133.374 82.9901 132.894C83.2491 132.406 83.6033 132.033 84.0527 131.774C84.5098 131.507 85.0239 131.374 85.5952 131.374C86.1894 131.374 86.6997 131.511 87.1263 131.785C87.5605 132.06 87.8728 132.41 88.0633 132.837V131.466H88.8631V137.704H88.0633V136.322C87.8652 136.748 87.5491 137.102 87.1149 137.384C86.6883 137.658 86.178 137.796 85.5838 137.796C85.0201 137.796 84.5098 137.662 84.0527 137.396C83.6033 137.129 83.2491 136.752 82.9901 136.264C82.7387 135.777 82.613 135.213 82.613 134.573ZM88.0633 134.585C88.0633 134.082 87.9604 133.64 87.7547 133.259C87.5491 132.879 87.2672 132.585 86.9092 132.38C86.5588 132.174 86.1703 132.071 85.7438 132.071C85.302 132.071 84.9059 132.17 84.5555 132.368C84.2051 132.566 83.927 132.856 83.7214 133.237C83.5233 133.61 83.4243 134.055 83.4243 134.573C83.4243 135.084 83.5233 135.533 83.7214 135.922C83.927 136.303 84.2051 136.596 84.5555 136.801C84.9059 136.999 85.302 137.099 85.7438 137.099C86.1703 137.099 86.5588 136.996 86.9092 136.79C87.2672 136.584 87.5491 136.291 87.7547 135.91C87.9604 135.529 88.0633 135.088 88.0633 134.585ZM91.7288 132.14V136.013C91.7288 136.394 91.8011 136.657 91.9459 136.801C92.0906 136.946 92.3458 137.019 92.7114 137.019H93.4427V137.704H92.5857C92.022 137.704 91.6031 137.575 91.3289 137.316C91.0546 137.049 90.9175 136.615 90.9175 136.013V132.14H90.0491V131.466H90.9175V129.9H91.7288V131.466H93.4427V132.14H91.7288ZM97.7325 131.351C98.2048 131.351 98.6275 131.45 99.0008 131.648C99.3816 131.846 99.6787 132.151 99.892 132.562C100.113 132.966 100.223 133.461 100.223 134.048V137.704H99.435V134.139C99.435 133.461 99.2636 132.943 98.9208 132.585C98.5856 132.227 98.1248 132.048 97.5383 132.048C96.9365 132.048 96.4566 132.239 96.0986 132.62C95.7406 133 95.5616 133.56 95.5616 134.299V137.704H94.7617V129.249H95.5616V132.528C95.7596 132.155 96.0491 131.865 96.4299 131.66C96.8184 131.454 97.2526 131.351 97.7325 131.351ZM107.637 134.265C107.637 134.539 107.629 134.749 107.614 134.893H102.438C102.461 135.366 102.575 135.769 102.781 136.104C102.986 136.44 103.257 136.695 103.592 136.87C103.927 137.038 104.293 137.121 104.689 137.121C105.207 137.121 105.641 136.996 105.991 136.744C106.349 136.493 106.586 136.154 106.7 135.727H107.545C107.393 136.337 107.065 136.836 106.563 137.224C106.068 137.605 105.443 137.796 104.689 137.796C104.102 137.796 103.577 137.666 103.112 137.407C102.647 137.14 102.282 136.767 102.015 136.287C101.756 135.8 101.627 135.232 101.627 134.585C101.627 133.937 101.756 133.37 102.015 132.882C102.274 132.395 102.636 132.022 103.101 131.763C103.565 131.504 104.095 131.374 104.689 131.374C105.283 131.374 105.801 131.504 106.243 131.763C106.692 132.022 107.035 132.372 107.271 132.814C107.515 133.248 107.637 133.732 107.637 134.265ZM106.825 134.242C106.833 133.777 106.738 133.381 106.54 133.054C106.349 132.726 106.087 132.479 105.751 132.311C105.416 132.143 105.051 132.06 104.655 132.06C104.06 132.06 103.554 132.25 103.135 132.631C102.716 133.012 102.484 133.549 102.438 134.242H106.825ZM109.9 132.574C110.075 132.185 110.342 131.884 110.7 131.671C111.065 131.458 111.511 131.351 112.037 131.351V132.185H111.819C111.241 132.185 110.776 132.341 110.425 132.654C110.075 132.966 109.9 133.488 109.9 134.219V137.704H109.1V131.466H109.9V132.574ZM121.483 132.014C121.483 132.7 121.258 133.252 120.808 133.671C120.359 134.09 119.685 134.299 118.786 134.299H117.175V137.704H116.375V129.717H118.786C119.677 129.717 120.348 129.927 120.797 130.346C121.254 130.765 121.483 131.321 121.483 132.014ZM118.786 133.614C120.035 133.614 120.66 133.08 120.66 132.014C120.66 131.481 120.511 131.077 120.214 130.803C119.917 130.529 119.441 130.391 118.786 130.391H117.175V133.614H118.786ZM123.624 132.574C123.8 132.185 124.066 131.884 124.424 131.671C124.79 131.458 125.236 131.351 125.761 131.351V132.185H125.544C124.965 132.185 124.5 132.341 124.15 132.654C123.8 132.966 123.624 133.488 123.624 134.219V137.704H122.825V131.466H123.624V132.574ZM129.695 137.796C129.109 137.796 128.579 137.666 128.107 137.407C127.642 137.14 127.273 136.767 126.999 136.287C126.732 135.8 126.599 135.232 126.599 134.585C126.599 133.937 126.736 133.374 127.01 132.894C127.284 132.406 127.657 132.033 128.13 131.774C128.602 131.507 129.131 131.374 129.718 131.374C130.305 131.374 130.834 131.507 131.306 131.774C131.786 132.033 132.159 132.406 132.426 132.894C132.7 133.374 132.837 133.937 132.837 134.585C132.837 135.225 132.7 135.788 132.426 136.276C132.152 136.763 131.775 137.14 131.295 137.407C130.815 137.666 130.282 137.796 129.695 137.796ZM129.695 137.099C130.106 137.099 130.487 137.007 130.838 136.824C131.188 136.634 131.47 136.352 131.683 135.979C131.904 135.598 132.015 135.133 132.015 134.585C132.015 134.036 131.908 133.576 131.695 133.202C131.481 132.821 131.2 132.54 130.849 132.357C130.499 132.166 130.118 132.071 129.707 132.071C129.295 132.071 128.914 132.166 128.564 132.357C128.214 132.54 127.932 132.821 127.718 133.202C127.513 133.576 127.41 134.036 127.41 134.585C127.41 135.133 127.513 135.598 127.718 135.979C127.932 136.352 128.21 136.634 128.553 136.824C128.903 137.007 129.284 137.099 129.695 137.099ZM137.026 137.796C136.44 137.796 135.91 137.666 135.438 137.407C134.973 137.14 134.604 136.767 134.33 136.287C134.063 135.8 133.93 135.232 133.93 134.585C133.93 133.937 134.067 133.374 134.341 132.894C134.615 132.406 134.988 132.033 135.461 131.774C135.933 131.507 136.462 131.374 137.049 131.374C137.635 131.374 138.165 131.507 138.637 131.774C139.117 132.033 139.49 132.406 139.757 132.894C140.031 133.374 140.168 133.937 140.168 134.585C140.168 135.225 140.031 135.788 139.757 136.276C139.483 136.763 139.106 137.14 138.626 137.407C138.146 137.666 137.613 137.796 137.026 137.796ZM137.026 137.099C137.437 137.099 137.818 137.007 138.169 136.824C138.519 136.634 138.801 136.352 139.014 135.979C139.235 135.598 139.346 135.133 139.346 134.585C139.346 134.036 139.239 133.576 139.026 133.202C138.812 132.821 138.53 132.54 138.18 132.357C137.83 132.166 137.449 132.071 137.037 132.071C136.626 132.071 136.245 132.166 135.895 132.357C135.544 132.54 135.263 132.821 135.049 133.202C134.844 133.576 134.741 134.036 134.741 134.585C134.741 135.133 134.844 135.598 135.049 135.979C135.263 136.352 135.541 136.634 135.883 136.824C136.234 137.007 136.615 137.099 137.026 137.099ZM144.083 132.14H142.632V137.704H141.832V132.14H140.963V131.466H141.832V131.031C141.832 130.353 142.003 129.854 142.346 129.535C142.696 129.215 143.26 129.055 144.037 129.055V129.74C143.519 129.74 143.153 129.839 142.94 130.037C142.735 130.235 142.632 130.567 142.632 131.031V131.466H144.083V132.14ZM72.424 154.784C71.8984 154.784 71.4338 154.693 71.03 154.51C70.6339 154.327 70.3216 154.072 70.0931 153.744C69.8646 153.417 69.7427 153.051 69.7275 152.647H70.573C70.6111 153.036 70.7825 153.379 71.0872 153.676C71.3919 153.965 71.8375 154.11 72.424 154.11C72.9648 154.11 73.3914 153.973 73.7037 153.699C74.0236 153.417 74.1836 153.063 74.1836 152.636C74.1836 152.293 74.096 152.019 73.9208 151.813C73.7456 151.6 73.5285 151.444 73.2695 151.345C73.0105 151.238 72.6525 151.124 72.1955 151.002C71.6623 150.857 71.2395 150.716 70.9272 150.579C70.6149 150.442 70.3483 150.229 70.1274 149.939C69.9065 149.65 69.796 149.258 69.796 148.763C69.796 148.351 69.9027 147.986 70.116 147.666C70.3292 147.338 70.6301 147.083 71.0186 146.9C71.4071 146.717 71.8527 146.626 72.3555 146.626C73.0943 146.626 73.6885 146.809 74.1379 147.174C74.5949 147.532 74.8577 147.997 74.9263 148.568H74.0579C74.0046 148.241 73.8256 147.951 73.5209 147.7C73.2162 147.441 72.8049 147.311 72.2869 147.311C71.807 147.311 71.4071 147.441 71.0872 147.7C70.7672 147.951 70.6073 148.298 70.6073 148.74C70.6073 149.075 70.6949 149.345 70.8701 149.551C71.0453 149.757 71.2624 149.913 71.5214 150.019C71.788 150.126 72.146 150.24 72.5954 150.362C73.1134 150.507 73.5323 150.652 73.8523 150.796C74.1722 150.934 74.4426 151.147 74.6635 151.436C74.8844 151.726 74.9949 152.114 74.9949 152.602C74.9949 152.975 74.8958 153.329 74.6978 153.664C74.4997 153.999 74.2065 154.27 73.818 154.476C73.4295 154.681 72.9648 154.784 72.424 154.784ZM81.6821 148.466L77.9801 157.641H77.146L78.3571 154.67L75.7977 148.466H76.6775L78.8027 153.79L80.8594 148.466H81.6821ZM84.9148 154.796C84.1987 154.796 83.6122 154.632 83.1552 154.304C82.7057 153.969 82.4544 153.516 82.401 152.944H83.2237C83.2618 153.295 83.4256 153.581 83.715 153.801C84.0121 154.015 84.4082 154.121 84.9033 154.121C85.3375 154.121 85.6765 154.019 85.9203 153.813C86.1716 153.607 86.2973 153.352 86.2973 153.047C86.2973 152.834 86.2288 152.659 86.0916 152.522C85.9545 152.385 85.7793 152.278 85.566 152.202C85.3604 152.118 85.0785 152.03 84.7205 151.939C84.2559 151.817 83.8788 151.695 83.5894 151.573C83.2999 151.452 83.0523 151.272 82.8467 151.036C82.6486 150.793 82.5496 150.469 82.5496 150.065C82.5496 149.76 82.641 149.479 82.8238 149.22C83.0066 148.961 83.2656 148.755 83.6008 148.603C83.9359 148.45 84.3168 148.374 84.7434 148.374C85.4137 148.374 85.9545 148.545 86.3659 148.888C86.7772 149.223 86.9981 149.688 87.0286 150.282H86.2288C86.2059 149.917 86.0612 149.623 85.7946 149.402C85.5356 149.174 85.1776 149.06 84.7205 149.06C84.3168 149.06 83.9893 149.155 83.7379 149.345C83.4865 149.536 83.3608 149.772 83.3608 150.054C83.3608 150.297 83.4332 150.499 83.5779 150.659C83.7303 150.812 83.9169 150.934 84.1378 151.025C84.3587 151.109 84.6558 151.204 85.029 151.311C85.4785 151.432 85.8365 151.551 86.1031 151.665C86.3697 151.779 86.5982 151.947 86.7886 152.168C86.9791 152.388 87.0781 152.682 87.0857 153.047C87.0857 153.382 86.9943 153.683 86.8115 153.95C86.6287 154.209 86.3735 154.415 86.0459 154.567C85.7184 154.719 85.3413 154.796 84.9148 154.796ZM89.631 149.14V153.013C89.631 153.394 89.7034 153.657 89.8481 153.801C89.9928 153.946 90.248 154.019 90.6137 154.019H91.3449V154.704H90.488C89.9243 154.704 89.5053 154.575 89.2311 154.316C88.9569 154.049 88.8198 153.615 88.8198 153.013V149.14H87.9514V148.466H88.8198V146.9H89.631V148.466H91.3449V149.14H89.631ZM98.3084 151.265C98.3084 151.539 98.3008 151.749 98.2856 151.893H93.1096C93.1325 152.366 93.2467 152.769 93.4524 153.104C93.6581 153.44 93.9285 153.695 94.2636 153.87C94.5988 154.038 94.9644 154.121 95.3605 154.121C95.8785 154.121 96.3127 153.996 96.6631 153.744C97.0211 153.493 97.2573 153.154 97.3715 152.727H98.217C98.0647 153.337 97.7371 153.836 97.2344 154.224C96.7393 154.605 96.1147 154.796 95.3605 154.796C94.774 154.796 94.2484 154.666 93.7838 154.407C93.3191 154.14 92.9535 153.767 92.6869 153.287C92.4279 152.8 92.2984 152.232 92.2984 151.585C92.2984 150.937 92.4279 150.37 92.6869 149.882C92.9458 149.395 93.3077 149.022 93.7723 148.763C94.237 148.504 94.7664 148.374 95.3605 148.374C95.9547 148.374 96.4727 148.504 96.9145 148.763C97.3639 149.022 97.7067 149.372 97.9428 149.814C98.1866 150.248 98.3084 150.732 98.3084 151.265ZM97.4972 151.242C97.5048 150.777 97.4096 150.381 97.2116 150.054C97.0211 149.726 96.7583 149.479 96.4232 149.311C96.088 149.143 95.7224 149.06 95.3263 149.06C94.7321 149.06 94.2256 149.25 93.8066 149.631C93.3877 150.012 93.1553 150.549 93.1096 151.242H97.4972ZM107.199 148.351C107.93 148.351 108.524 148.584 108.981 149.048C109.446 149.505 109.678 150.172 109.678 151.048V154.704H108.89V151.139C108.89 150.461 108.726 149.943 108.398 149.585C108.071 149.227 107.625 149.048 107.062 149.048C106.475 149.048 106.007 149.242 105.656 149.631C105.306 150.019 105.131 150.583 105.131 151.322V154.704H104.342V151.139C104.342 150.461 104.178 149.943 103.851 149.585C103.523 149.227 103.074 149.048 102.503 149.048C101.916 149.048 101.448 149.242 101.097 149.631C100.747 150.019 100.572 150.583 100.572 151.322V154.704H99.7718V148.466H100.572V149.54C100.77 149.151 101.051 148.858 101.417 148.66C101.783 148.454 102.19 148.351 102.64 148.351C103.181 148.351 103.653 148.481 104.057 148.74C104.468 148.999 104.765 149.38 104.948 149.882C105.115 149.387 105.401 149.01 105.805 148.751C106.216 148.485 106.681 148.351 107.199 148.351Z" fill="#E1B40F"/>
</svg>
