<svg width="179" height="192" viewBox="0 0 179 192" fill="none" xmlns="http://www.w3.org/2000/svg">
<rect width="179" height="192" fill="#111111"/>
<path fill-rule="evenodd" clip-rule="evenodd" d="M84.7113 34.0894C84.7113 34.0035 84.7809 33.9339 84.8668 33.9339H93.2673C93.3532 33.9339 93.4228 34.0035 93.4228 34.0894V38.1341C93.4228 38.7355 93.9104 39.223 94.5118 39.223H98.7157C98.7844 39.223 98.845 39.2681 98.8647 39.3339L99.6594 41.9829L100.742 47.1247C100.762 47.2214 100.688 47.3123 100.59 47.3123H77.8556C77.7568 47.3123 77.683 47.2214 77.7033 47.1247L78.7858 41.9829L79.5805 39.3339C79.6003 39.2681 79.6608 39.223 79.7295 39.223H83.6223C84.2237 39.223 84.7113 38.7355 84.7113 38.1341V34.0894ZM101.655 46.9324L100.687 42.3343H115.357C115.443 42.3343 115.513 42.4039 115.513 42.4899V108.449C115.513 108.535 115.443 108.604 115.357 108.604H63.088C63.0021 108.604 62.9324 108.535 62.9324 108.449V42.4899C62.9324 42.4039 63.0021 42.3343 63.088 42.3343H77.758L76.79 46.9324C76.6475 47.6093 77.1639 48.2457 77.8556 48.2457H100.59C101.281 48.2457 101.798 47.6093 101.655 46.9324ZM78.6865 39.0657L77.9859 41.4009H63.088C62.4866 41.4009 61.999 41.8884 61.999 42.4899V108.449C61.999 109.05 62.4866 109.538 63.088 109.538H115.357C115.959 109.538 116.446 109.05 116.446 108.449V42.4899C116.446 41.8884 115.959 41.4009 115.357 41.4009H100.459L99.7587 39.0657C99.6205 38.6051 99.1966 38.2896 98.7157 38.2896H94.5118C94.4259 38.2896 94.3562 38.22 94.3562 38.1341V34.0894C94.3562 33.488 93.8687 33.0005 93.2673 33.0005H84.8668C84.2654 33.0005 83.7779 33.488 83.7779 34.0894V38.1341C83.7779 38.22 83.7082 38.2896 83.6223 38.2896H79.7295C79.2486 38.2896 78.8247 38.6051 78.6865 39.0657ZM88.322 61.5315C88.5043 61.3492 88.7998 61.3492 88.9821 61.5315C89.1643 61.7138 89.1643 62.0093 88.9821 62.1916L84.9218 66.2519L91.0709 66.4432C92.8755 66.444 94.6507 66.9012 96.2311 67.7725C97.8137 68.645 99.1495 69.9042 100.114 71.4326C101.078 72.9609 101.64 74.7087 101.746 76.5127C101.852 78.3168 101.5 80.1183 100.721 81.7493C100.61 81.9819 100.332 82.0805 100.099 81.9695C99.8663 81.8585 99.7677 81.5799 99.8788 81.3472C100.589 79.8586 100.911 78.2142 100.814 76.5676C100.717 74.9209 100.205 73.3257 99.3244 71.9307C98.4442 70.5357 97.225 69.3864 95.7804 68.59C94.3359 67.7937 92.7132 67.3762 91.0637 67.3766L91.0491 67.3764L84.9922 67.188L88.9821 71.1779C89.1643 71.3601 89.1643 71.6557 88.9821 71.8379C88.7998 72.0202 88.5043 72.0202 88.322 71.8379L83.5048 67.0208C83.4133 66.9325 83.358 66.8074 83.3623 66.6703C83.3624 66.6676 83.3625 66.665 83.3626 66.6623C83.3652 66.6078 83.3773 66.5536 83.399 66.5026C83.4217 66.4488 83.455 66.3985 83.4988 66.3547L88.322 61.5315ZM98.6103 87.238L93.8051 82.4328C93.6228 82.2506 93.3273 82.2506 93.145 82.4328C92.9627 82.6151 92.9627 82.9106 93.145 83.0929L97.1342 87.0821L91.0781 86.8937L91.0635 86.8935C89.414 86.8939 87.7913 86.4764 86.3468 85.6801C84.9022 84.8837 83.683 83.7344 82.8028 82.3394C81.9226 80.9444 81.4101 79.3492 81.3131 77.7025C81.2162 76.0559 81.538 74.4115 82.2484 72.9229C82.3595 72.6902 82.2609 72.4116 82.0282 72.3006C81.7956 72.1896 81.517 72.2882 81.406 72.5208C80.6276 74.1518 80.2751 75.9533 80.3813 77.7574C80.4875 79.5614 81.0489 81.3092 82.0133 82.8376C82.9777 84.3659 84.3135 85.6251 85.8961 86.4976C87.4765 87.3689 89.2517 87.8262 91.0563 87.8269L97.2059 88.0183L93.145 92.0792C92.9627 92.2615 92.9627 92.557 93.145 92.7393C93.3273 92.9215 93.6228 92.9215 93.8051 92.7393L98.6282 87.9161C98.6906 87.8537 98.7317 87.778 98.7514 87.6982C98.7592 87.6666 98.7638 87.6337 98.7649 87.5998C98.7693 87.4568 98.709 87.3268 98.6103 87.238Z" fill="#E1B40F" fill-opacity="0.6"/>
<path d="M29.2788 137.775C28.7532 137.775 28.2885 137.684 27.8848 137.501C27.4887 137.318 27.1764 137.063 26.9479 136.736C26.7194 136.408 26.5975 136.042 26.5823 135.639H27.4278C27.4659 136.027 27.6373 136.37 27.942 136.667C28.2467 136.956 28.6923 137.101 29.2788 137.101C29.8196 137.101 30.2462 136.964 30.5585 136.69C30.8784 136.408 31.0384 136.054 31.0384 135.627C31.0384 135.284 30.9508 135.01 30.7756 134.805C30.6004 134.591 30.3833 134.435 30.1243 134.336C29.8653 134.229 29.5073 134.115 29.0503 133.993C28.5171 133.849 28.0943 133.708 27.782 133.571C27.4697 133.433 27.2031 133.22 26.9822 132.931C26.7613 132.641 26.6508 132.249 26.6508 131.754C26.6508 131.342 26.7575 130.977 26.9707 130.657C27.184 130.329 27.4849 130.074 27.8734 129.891C28.2619 129.709 28.7075 129.617 29.2102 129.617C29.9491 129.617 30.5433 129.8 30.9927 130.166C31.4497 130.524 31.7125 130.988 31.7811 131.56H30.9127C30.8594 131.232 30.6804 130.943 30.3757 130.691C30.071 130.432 29.6597 130.303 29.1417 130.303C28.6618 130.303 28.2619 130.432 27.942 130.691C27.622 130.943 27.4621 131.289 27.4621 131.731C27.4621 132.066 27.5497 132.337 27.7249 132.542C27.9001 132.748 28.1172 132.904 28.3761 133.011C28.6428 133.117 29.0008 133.232 29.4502 133.353C29.9682 133.498 30.3871 133.643 30.7071 133.788C31.027 133.925 31.2974 134.138 31.5183 134.427C31.7392 134.717 31.8497 135.105 31.8497 135.593C31.8497 135.966 31.7506 136.32 31.5526 136.656C31.3545 136.991 31.0613 137.261 30.6728 137.467C30.2843 137.672 29.8196 137.775 29.2788 137.775ZM38.5369 131.457L34.8349 140.632H34.0008L35.2119 137.661L32.6525 131.457H33.5323L35.6575 136.781L37.7142 131.457H38.5369ZM41.7696 137.787C41.0535 137.787 40.467 137.623 40.01 137.295C39.5605 136.96 39.3092 136.507 39.2558 135.936H40.0785C40.1166 136.286 40.2804 136.572 40.5698 136.793C40.8669 137.006 41.263 137.113 41.7581 137.113C42.1923 137.113 42.5313 137.01 42.775 136.804C43.0264 136.598 43.1521 136.343 43.1521 136.039C43.1521 135.825 43.0835 135.65 42.9464 135.513C42.8093 135.376 42.6341 135.269 42.4208 135.193C42.2152 135.109 41.9333 135.022 41.5753 134.93C41.1107 134.808 40.7336 134.686 40.4441 134.565C40.1547 134.443 39.9071 134.264 39.7015 134.028C39.5034 133.784 39.4044 133.46 39.4044 133.056C39.4044 132.752 39.4958 132.47 39.6786 132.211C39.8614 131.952 40.1204 131.746 40.4556 131.594C40.7907 131.441 41.1716 131.365 41.5982 131.365C42.2685 131.365 42.8093 131.537 43.2207 131.879C43.632 132.215 43.8529 132.679 43.8834 133.273H43.0835C43.0607 132.908 42.916 132.615 42.6494 132.394C42.3904 132.165 42.0324 132.051 41.5753 132.051C41.1716 132.051 40.8441 132.146 40.5927 132.337C40.3413 132.527 40.2156 132.763 40.2156 133.045C40.2156 133.289 40.288 133.491 40.4327 133.651C40.5851 133.803 40.7717 133.925 40.9926 134.016C41.2135 134.1 41.5106 134.195 41.8838 134.302C42.3332 134.424 42.6913 134.542 42.9579 134.656C43.2245 134.77 43.453 134.938 43.6434 135.159C43.8339 135.38 43.9329 135.673 43.9405 136.039C43.9405 136.374 43.8491 136.675 43.6663 136.941C43.4835 137.2 43.2283 137.406 42.9007 137.558C42.5732 137.711 42.1961 137.787 41.7696 137.787ZM46.4858 132.131V136.004C46.4858 136.385 46.5582 136.648 46.7029 136.793C46.8476 136.937 47.1028 137.01 47.4685 137.01H48.1997V137.695H47.3428C46.7791 137.695 46.3601 137.566 46.0859 137.307C45.8117 137.04 45.6746 136.606 45.6746 136.004V132.131H44.8062V131.457H45.6746V129.891H46.4858V131.457H48.1997V132.131H46.4858ZM55.1632 134.256C55.1632 134.53 55.1556 134.74 55.1404 134.885H49.9644C49.9873 135.357 50.1015 135.761 50.3072 136.096C50.5129 136.431 50.7833 136.686 51.1184 136.861C51.4536 137.029 51.8192 137.113 52.2153 137.113C52.7333 137.113 53.1675 136.987 53.5179 136.736C53.8759 136.484 54.112 136.145 54.2263 135.719H55.0718C54.9195 136.328 54.5919 136.827 54.0892 137.215C53.5941 137.596 52.9694 137.787 52.2153 137.787C51.6288 137.787 51.1032 137.657 50.6385 137.398C50.1739 137.132 49.8083 136.758 49.5416 136.278C49.2827 135.791 49.1532 135.223 49.1532 134.576C49.1532 133.929 49.2827 133.361 49.5416 132.874C49.8006 132.386 50.1625 132.013 50.6271 131.754C51.0918 131.495 51.6212 131.365 52.2153 131.365C52.8095 131.365 53.3275 131.495 53.7693 131.754C54.2187 132.013 54.5615 132.363 54.7976 132.805C55.0414 133.239 55.1632 133.723 55.1632 134.256ZM54.352 134.233C54.3596 133.769 54.2644 133.372 54.0663 133.045C53.8759 132.717 53.6131 132.47 53.2779 132.302C52.9428 132.135 52.5772 132.051 52.1811 132.051C51.5869 132.051 51.0803 132.241 50.6614 132.622C50.2424 133.003 50.0101 133.54 49.9644 134.233H54.352ZM64.0535 131.342C64.7847 131.342 65.3789 131.575 65.8359 132.039C66.3006 132.496 66.5329 133.163 66.5329 134.039V137.695H65.7445V134.13C65.7445 133.452 65.5807 132.934 65.2532 132.576C64.9257 132.218 64.48 132.039 63.9164 132.039C63.3298 132.039 62.8614 132.234 62.511 132.622C62.1606 133.011 61.9854 133.574 61.9854 134.313V137.695H61.197V134.13C61.197 133.452 61.0332 132.934 60.7057 132.576C60.3781 132.218 59.9287 132.039 59.3574 132.039C58.7708 132.039 58.3024 132.234 57.952 132.622C57.6016 133.011 57.4264 133.574 57.4264 134.313V137.695H56.6266V131.457H57.4264V132.531C57.6244 132.142 57.9063 131.849 58.2719 131.651C58.6375 131.445 59.0451 131.342 59.4945 131.342C60.0353 131.342 60.5076 131.472 60.9113 131.731C61.3227 131.99 61.6197 132.371 61.8025 132.874C61.9701 132.378 62.2558 132.001 62.6595 131.742C63.0708 131.476 63.5355 131.342 64.0535 131.342ZM81.1339 129.709L78.8716 137.695H77.9803L75.9694 130.885L73.9127 137.695L73.0443 137.707L70.8277 129.709H71.6846L73.5128 136.713L75.558 129.709H76.4492L78.4374 136.713L80.277 129.709H81.1339ZM82.7573 130.28C82.5973 130.28 82.4602 130.223 82.346 130.108C82.2317 129.994 82.1746 129.853 82.1746 129.686C82.1746 129.518 82.2317 129.381 82.346 129.274C82.4602 129.16 82.5973 129.103 82.7573 129.103C82.9173 129.103 83.0544 129.16 83.1686 129.274C83.2829 129.381 83.34 129.518 83.34 129.686C83.34 129.853 83.2829 129.994 83.1686 130.108C83.0544 130.223 82.9173 130.28 82.7573 130.28ZM83.1572 131.457V137.695H82.3574V131.457H83.1572ZM86.0082 132.131V136.004C86.0082 136.385 86.0805 136.648 86.2253 136.793C86.37 136.937 86.6252 137.01 86.9908 137.01H87.7221V137.695H86.8651C86.3014 137.695 85.8825 137.566 85.6083 137.307C85.334 137.04 85.1969 136.606 85.1969 136.004V132.131H84.3285V131.457H85.1969V129.891H86.0082V131.457H87.7221V132.131H86.0082ZM92.0119 131.342C92.4842 131.342 92.9069 131.441 93.2802 131.64C93.6611 131.838 93.9581 132.142 94.1714 132.554C94.3923 132.957 94.5028 133.452 94.5028 134.039V137.695H93.7144V134.13C93.7144 133.452 93.543 132.934 93.2002 132.576C92.865 132.218 92.4042 132.039 91.8177 132.039C91.2159 132.039 90.736 132.23 90.378 132.611C90.02 132.992 89.841 133.551 89.841 134.29V137.695H89.0411V129.24H89.841V132.519C90.039 132.146 90.3285 131.857 90.7093 131.651C91.0978 131.445 91.532 131.342 92.0119 131.342ZM107.211 129.811V137.695H106.411V131.4L103.6 137.695H103.018L100.207 131.422V137.695H99.4071V129.811H100.253L103.303 136.644L106.354 129.811H107.211ZM114.43 131.457V137.695H113.63V136.598C113.447 136.987 113.166 137.284 112.785 137.49C112.404 137.695 111.977 137.798 111.505 137.798C110.758 137.798 110.149 137.57 109.677 137.113C109.204 136.648 108.968 135.978 108.968 135.102V131.457H109.757V135.01C109.757 135.688 109.924 136.206 110.259 136.564C110.602 136.922 111.067 137.101 111.653 137.101C112.255 137.101 112.735 136.911 113.093 136.53C113.451 136.149 113.63 135.589 113.63 134.85V131.457H114.43ZM117.056 129.24V137.695H116.256V129.24H117.056ZM119.907 132.131V136.004C119.907 136.385 119.979 136.648 120.124 136.793C120.269 136.937 120.524 137.01 120.889 137.01H121.621V137.695H120.764C120.2 137.695 119.781 137.566 119.507 137.307C119.233 137.04 119.096 136.606 119.096 136.004V132.131H118.227V131.457H119.096V129.891H119.907V131.457H121.621V132.131H119.907ZM123.34 130.28C123.18 130.28 123.043 130.223 122.928 130.108C122.814 129.994 122.757 129.853 122.757 129.686C122.757 129.518 122.814 129.381 122.928 129.274C123.043 129.16 123.18 129.103 123.34 129.103C123.5 129.103 123.637 129.16 123.751 129.274C123.865 129.381 123.922 129.518 123.922 129.686C123.922 129.853 123.865 129.994 123.751 130.108C123.637 130.223 123.5 130.28 123.34 130.28ZM123.74 131.457V137.695H122.94V131.457H123.74ZM125.185 134.576C125.185 133.929 125.315 133.365 125.574 132.885C125.833 132.397 126.191 132.024 126.648 131.765C127.105 131.499 127.626 131.365 128.213 131.365C128.982 131.365 129.615 131.556 130.11 131.937C130.612 132.317 130.936 132.835 131.081 133.491H130.224C130.117 133.041 129.885 132.691 129.527 132.439C129.177 132.18 128.739 132.051 128.213 132.051C127.794 132.051 127.417 132.146 127.082 132.337C126.747 132.527 126.48 132.813 126.282 133.193C126.092 133.567 125.996 134.028 125.996 134.576C125.996 135.124 126.092 135.589 126.282 135.97C126.48 136.351 126.747 136.637 127.082 136.827C127.417 137.017 127.794 137.113 128.213 137.113C128.739 137.113 129.177 136.987 129.527 136.736C129.885 136.477 130.117 136.119 130.224 135.661H131.081C130.936 136.301 130.612 136.816 130.11 137.204C129.607 137.592 128.975 137.787 128.213 137.787C127.626 137.787 127.105 137.657 126.648 137.398C126.191 137.132 125.833 136.758 125.574 136.278C125.315 135.791 125.185 135.223 125.185 134.576ZM135.289 137.787C134.702 137.787 134.173 137.657 133.701 137.398C133.236 137.132 132.867 136.758 132.592 136.278C132.326 135.791 132.192 135.223 132.192 134.576C132.192 133.929 132.33 133.365 132.604 132.885C132.878 132.397 133.251 132.024 133.724 131.765C134.196 131.499 134.725 131.365 135.312 131.365C135.898 131.365 136.428 131.499 136.9 131.765C137.38 132.024 137.753 132.397 138.02 132.885C138.294 133.365 138.431 133.929 138.431 134.576C138.431 135.216 138.294 135.78 138.02 136.267C137.746 136.755 137.368 137.132 136.889 137.398C136.409 137.657 135.875 137.787 135.289 137.787ZM135.289 137.09C135.7 137.09 136.081 136.998 136.432 136.816C136.782 136.625 137.064 136.343 137.277 135.97C137.498 135.589 137.608 135.124 137.608 134.576C137.608 134.028 137.502 133.567 137.288 133.193C137.075 132.813 136.793 132.531 136.443 132.348C136.093 132.158 135.712 132.062 135.3 132.062C134.889 132.062 134.508 132.158 134.158 132.348C133.807 132.531 133.526 132.813 133.312 133.193C133.107 133.567 133.004 134.028 133.004 134.576C133.004 135.124 133.107 135.589 133.312 135.97C133.526 136.343 133.804 136.625 134.146 136.816C134.497 136.998 134.878 137.09 135.289 137.09ZM140.689 129.24V137.695H139.889V129.24H140.689ZM145.231 137.787C144.644 137.787 144.115 137.657 143.643 137.398C143.178 137.132 142.809 136.758 142.534 136.278C142.268 135.791 142.134 135.223 142.134 134.576C142.134 133.929 142.272 133.365 142.546 132.885C142.82 132.397 143.193 132.024 143.666 131.765C144.138 131.499 144.667 131.365 145.254 131.365C145.84 131.365 146.37 131.499 146.842 131.765C147.322 132.024 147.695 132.397 147.962 132.885C148.236 133.365 148.373 133.929 148.373 134.576C148.373 135.216 148.236 135.78 147.962 136.267C147.687 136.755 147.31 137.132 146.831 137.398C146.351 137.657 145.817 137.787 145.231 137.787ZM145.231 137.09C145.642 137.09 146.023 136.998 146.373 136.816C146.724 136.625 147.006 136.343 147.219 135.97C147.44 135.589 147.55 135.124 147.55 134.576C147.55 134.028 147.444 133.567 147.23 133.193C147.017 132.813 146.735 132.531 146.385 132.348C146.035 132.158 145.654 132.062 145.242 132.062C144.831 132.062 144.45 132.158 144.1 132.348C143.749 132.531 143.467 132.813 143.254 133.193C143.049 133.567 142.946 134.028 142.946 134.576C142.946 135.124 143.049 135.589 143.254 135.97C143.467 136.343 143.746 136.625 144.088 136.816C144.439 136.998 144.82 137.09 145.231 137.09ZM150.631 132.565C150.806 132.177 151.073 131.876 151.431 131.662C151.796 131.449 152.242 131.342 152.768 131.342V132.177H152.55C151.971 132.177 151.507 132.333 151.156 132.645C150.806 132.957 150.631 133.479 150.631 134.21V137.695H149.831V131.457H150.631V132.565ZM72.109 154.775C71.3701 154.775 70.6998 154.604 70.098 154.261C69.4962 153.911 69.0201 153.427 68.6697 152.81C68.327 152.185 68.1556 151.481 68.1556 150.696C68.1556 149.912 68.327 149.211 68.6697 148.594C69.0201 147.969 69.4962 147.486 70.098 147.143C70.6998 146.792 71.3701 146.617 72.109 146.617C72.8555 146.617 73.5296 146.792 74.1314 147.143C74.7331 147.486 75.2054 147.969 75.5482 148.594C75.891 149.211 76.0624 149.912 76.0624 150.696C76.0624 151.481 75.891 152.185 75.5482 152.81C75.2054 153.427 74.7331 153.911 74.1314 154.261C73.5296 154.604 72.8555 154.775 72.109 154.775ZM72.109 154.078C72.7031 154.078 73.2363 153.941 73.7086 153.667C74.1809 153.393 74.5541 153 74.8284 152.49C75.1026 151.972 75.2397 151.374 75.2397 150.696C75.2397 150.018 75.1026 149.424 74.8284 148.914C74.5541 148.403 74.1809 148.011 73.7086 147.737C73.2363 147.463 72.7031 147.326 72.109 147.326C71.5148 147.326 70.9816 147.463 70.5093 147.737C70.0371 148.011 69.6638 148.403 69.3896 148.914C69.1154 149.424 68.9783 150.018 68.9783 150.696C68.9783 151.374 69.1154 151.972 69.3896 152.49C69.6638 153 70.0371 153.393 70.5093 153.667C70.9816 153.941 71.5148 154.078 72.109 154.078ZM78.3143 149.828C78.5123 149.409 78.8246 149.062 79.2512 148.788C79.6854 148.506 80.1996 148.365 80.7937 148.365C81.3574 148.365 81.864 148.499 82.3134 148.765C82.7704 149.024 83.1246 149.397 83.376 149.885C83.635 150.365 83.7645 150.925 83.7645 151.565C83.7645 152.204 83.635 152.768 83.376 153.256C83.1246 153.743 82.7704 154.12 82.3134 154.387C81.864 154.653 81.3574 154.787 80.7937 154.787C80.2072 154.787 79.6968 154.65 79.2626 154.375C78.8284 154.094 78.5123 153.743 78.3143 153.324V157.643H77.5259V148.457H78.3143V149.828ZM82.9532 151.565C82.9532 151.047 82.8504 150.601 82.6447 150.228C82.4467 149.847 82.1725 149.557 81.8221 149.359C81.4717 149.161 81.0756 149.062 80.6338 149.062C80.2072 149.062 79.8149 149.165 79.4569 149.371C79.1065 149.576 78.8284 149.87 78.6228 150.251C78.4171 150.631 78.3143 151.073 78.3143 151.576C78.3143 152.079 78.4171 152.521 78.6228 152.901C78.8284 153.282 79.1065 153.576 79.4569 153.781C79.8149 153.987 80.2072 154.09 80.6338 154.09C81.0756 154.09 81.4717 153.991 81.8221 153.793C82.1725 153.587 82.4467 153.294 82.6447 152.913C82.8504 152.524 82.9532 152.075 82.9532 151.565ZM86.276 149.131V153.004C86.276 153.385 86.3483 153.648 86.4931 153.793C86.6378 153.937 86.893 154.01 87.2586 154.01H87.9899V154.695H87.1329C86.5692 154.695 86.1503 154.566 85.8761 154.307C85.6018 154.04 85.4647 153.606 85.4647 153.004V149.131H84.5963V148.457H85.4647V146.891H86.276V148.457H87.9899V149.131H86.276ZM89.7088 147.28C89.5489 147.28 89.4118 147.223 89.2975 147.108C89.1833 146.994 89.1261 146.853 89.1261 146.686C89.1261 146.518 89.1833 146.381 89.2975 146.274C89.4118 146.16 89.5489 146.103 89.7088 146.103C89.8688 146.103 90.0059 146.16 90.1202 146.274C90.2344 146.381 90.2916 146.518 90.2916 146.686C90.2916 146.853 90.2344 146.994 90.1202 147.108C90.0059 147.223 89.8688 147.28 89.7088 147.28ZM90.1088 148.457V154.695H89.3089V148.457H90.1088ZM94.6508 154.787C94.0642 154.787 93.5348 154.657 93.0626 154.398C92.5979 154.132 92.2285 153.758 91.9542 153.278C91.6876 152.791 91.5543 152.223 91.5543 151.576C91.5543 150.929 91.6914 150.365 91.9657 149.885C92.2399 149.397 92.6131 149.024 93.0854 148.765C93.5577 148.499 94.0871 148.365 94.6736 148.365C95.2602 148.365 95.7896 148.499 96.2618 148.765C96.7417 149.024 97.115 149.397 97.3816 149.885C97.6558 150.365 97.7929 150.929 97.7929 151.576C97.7929 152.216 97.6558 152.78 97.3816 153.267C97.1074 153.755 96.7303 154.132 96.2504 154.398C95.7705 154.657 95.2373 154.787 94.6508 154.787ZM94.6508 154.09C95.0621 154.09 95.443 153.998 95.7934 153.816C96.1438 153.625 96.4256 153.343 96.6389 152.97C96.8598 152.589 96.9702 152.124 96.9702 151.576C96.9702 151.028 96.8636 150.567 96.6503 150.193C96.437 149.813 96.1552 149.531 95.8048 149.348C95.4544 149.158 95.0735 149.062 94.6622 149.062C94.2509 149.062 93.87 149.158 93.5196 149.348C93.1692 149.531 92.8874 149.813 92.6741 150.193C92.4684 150.567 92.3656 151.028 92.3656 151.576C92.3656 152.124 92.4684 152.589 92.6741 152.97C92.8874 153.343 93.1654 153.625 93.5082 153.816C93.8586 153.998 94.2394 154.09 94.6508 154.09ZM102.176 148.342C102.922 148.342 103.532 148.575 104.004 149.039C104.476 149.496 104.713 150.163 104.713 151.039V154.695H103.924V151.13C103.924 150.452 103.753 149.934 103.41 149.576C103.075 149.218 102.614 149.039 102.027 149.039C101.426 149.039 100.946 149.23 100.588 149.611C100.23 149.992 100.051 150.551 100.051 151.29V154.695H99.2509V148.457H100.051V149.519C100.249 149.138 100.534 148.849 100.908 148.651C101.281 148.445 101.704 148.342 102.176 148.342ZM108.629 154.787C107.913 154.787 107.327 154.623 106.87 154.295C106.42 153.96 106.169 153.507 106.116 152.936H106.938C106.977 153.286 107.14 153.572 107.43 153.793C107.727 154.006 108.123 154.113 108.618 154.113C109.052 154.113 109.391 154.01 109.635 153.804C109.886 153.598 110.012 153.343 110.012 153.039C110.012 152.825 109.943 152.65 109.806 152.513C109.669 152.376 109.494 152.269 109.281 152.193C109.075 152.109 108.793 152.022 108.435 151.93C107.971 151.808 107.594 151.686 107.304 151.565C107.015 151.443 106.767 151.264 106.561 151.028C106.363 150.784 106.264 150.46 106.264 150.056C106.264 149.752 106.356 149.47 106.539 149.211C106.721 148.952 106.98 148.746 107.316 148.594C107.651 148.441 108.032 148.365 108.458 148.365C109.128 148.365 109.669 148.537 110.081 148.879C110.492 149.215 110.713 149.679 110.743 150.273H109.943C109.921 149.908 109.776 149.615 109.509 149.394C109.25 149.165 108.892 149.051 108.435 149.051C108.032 149.051 107.704 149.146 107.453 149.337C107.201 149.527 107.076 149.763 107.076 150.045C107.076 150.289 107.148 150.491 107.293 150.651C107.445 150.803 107.632 150.925 107.853 151.016C108.073 151.1 108.371 151.195 108.744 151.302C109.193 151.424 109.551 151.542 109.818 151.656C110.084 151.77 110.313 151.938 110.503 152.159C110.694 152.38 110.793 152.673 110.8 153.039C110.8 153.374 110.709 153.675 110.526 153.941C110.343 154.2 110.088 154.406 109.761 154.558C109.433 154.711 109.056 154.787 108.629 154.787Z" fill="#E1B40F"/>
</svg>
